<svg id="icons" xmlns="http://www.w3.org/2000/svg" viewBox="0 0 190 190"><defs><style>.cls-1{fill:#fff;}.cls-2{fill:#595863;}.cls-3{fill:#b5b3c9;}.cls-4{fill:#e8345f;}.cls-5{fill:#9695af;}.cls-6{fill:none;stroke:#27272d;stroke-linecap:round;stroke-linejoin:round;stroke-width:2px;}.cls-7{opacity:0.24;}.cls-8{fill:#27272d;}</style></defs><title>astronaut</title><g id="_Group_" data-name="&lt;Group&gt;"><path class="cls-1" d="M123,75h-8c-.08-6.33-1-10.06-2.88-12.36C109.54,59.56,103.78,58,95,58s-14.54,1.56-17.11,4.64C76,64.94,75.09,68.67,75,75H67c0-14.91,6-29,28-29S123,60.09,123,75Z"/><path class="cls-1" d="M115,75h8c0,9.6-1.24,18-8.8,22.82C110,100.47,103.91,102,95,102s-15-1.53-19.2-4.18C68.24,93,67,84.6,67,75h8c0,.34,0,.69,0,1,0,14,6,20,20,20s20-6,20-20c0-.36,0-.71,0-1Z"/><path class="cls-1" d="M111.84,121.28l.28,4.72H77.88l.28-4.72-9,3L67,125c0-15.46,2.49-23.45,8.8-27.18C80,100.47,86.09,102,95,102s15-1.53,19.2-4.18c6.31,3.73,8.8,11.72,8.8,27.18l-2.15-.72Zm-8.9-.28a2,2,0,0,0,2-2.28l-1.22-8.29A4.08,4.08,0,0,0,99.67,107H90.33a4.08,4.08,0,0,0-4.09,3.43L85,118.72a2,2,0,0,0,2,2.28Z"/><circle class="cls-2" cx="98" cy="113" r="2"/><path class="cls-3" d="M111.84,121.28l9,3c-.75,3.5-4.5,6.58-8.44,6.71l-.29-5Z"/><path class="cls-3" d="M115,76a34.24,34.24,0,0,1-.57,6.62C112.66,91.94,106.56,96,95,96a32.87,32.87,0,0,1-8-.86C78.67,93,75,87,75,76c0-.36,0-.71,0-1,.08-6.33,1-10.06,2.88-12.36C80.46,59.56,86.22,58,95,58s14.54,1.56,17.11,4.64c1.92,2.3,2.8,6,2.88,12.36C115,75.34,115,75.69,115,76Z"/><path class="cls-1" d="M113.05,141.86,114,158c-3.5-10.67-15.5-10.67-19,0V145Z"/><path class="cls-2" d="M114,158H95C98.5,147.33,110.5,147.33,114,158Z"/><polygon class="cls-4" points="112.82 137.9 113.05 141.86 95 145 95 141 112.82 137.9"/><polygon class="cls-1" points="95 141 77.18 137.9 77.59 130.99 77.88 126 112.12 126 112.41 130.99 112.82 137.9 95 141"/><path class="cls-3" d="M105,118.72a2,2,0,0,1-2,2.28H87.06a2,2,0,0,1-2-2.28l1.22-8.29A4.08,4.08,0,0,1,90.33,107h9.34a4.08,4.08,0,0,1,4.09,3.43ZM100,113a2,2,0,1,0-2,2A2,2,0,0,0,100,113Z"/><path class="cls-1" d="M95,145v13c-3.5-10.67-15.5-10.67-19,0l1-16.14Z"/><polygon class="cls-4" points="95 141 95 145 76.95 141.86 77.18 137.9 95 141"/><path class="cls-2" d="M95,158H76C79.5,147.33,91.5,147.33,95,158Z"/><path class="cls-3" d="M78.16,121.28,77.88,126l-.29,5c-3.94-.13-7.69-3.21-8.44-6.71Z"/><path class="cls-5" d="M114.43,82.67C112.66,91.94,106.56,96,95,96a32.87,32.87,0,0,1-8-.86C94.26,91.84,108.69,92.47,114.43,82.67Z"/><path class="cls-6" d="M69.15,124.28c.75,3.5,4.5,6.58,8.44,6.71"/><path class="cls-6" d="M112.41,131c3.94-.13,7.69-3.21,8.44-6.71"/><path class="cls-6" d="M75.8,97.82C69.49,101.55,67,109.54,67,125l2.15-.72,9-3"/><polyline class="cls-6" points="76 158 76.95 141.86 77.18 137.9 77.59 130.99 77.88 126 78.16 121.28 79 107"/><polyline class="cls-6" points="111 107 111.84 121.28 112.12 126 112.41 130.99 112.82 137.9 113.05 141.86 114 158"/><path class="cls-6" d="M114.2,97.82c6.31,3.73,8.8,11.72,8.8,27.18l-2.15-.72-9-3"/><line class="cls-6" x1="112.12" y1="126" x2="77.88" y2="126"/><polyline class="cls-6" points="95 158 95 145 95 141 95 138"/><path class="cls-6" d="M76,158c3.5-10.67,15.5-10.67,19,0Z"/><path class="cls-6" d="M95,158c3.5-10.67,15.5-10.67,19,0Z"/><path class="cls-6" d="M67,75c0,9.6,1.24,18,8.8,22.82C80,100.47,86.09,102,95,102s15-1.53,19.2-4.18C121.76,93,123,84.6,123,75c0-14.91-6-29-28-29S67,60.09,67,75Z"/><path class="cls-6" d="M115,75c-.08-6.33-1-10.06-2.88-12.36C109.54,59.56,103.78,58,95,58s-14.54,1.56-17.11,4.64C76,64.94,75.09,68.67,75,75c0,.34,0,.69,0,1,0,14,6,20,20,20s20-6,20-20C115,75.69,115,75.34,115,75Z"/><line class="cls-6" x1="95" y1="141" x2="77.18" y2="137.9"/><line class="cls-6" x1="95" y1="145" x2="76.95" y2="141.86"/><line class="cls-6" x1="112.82" y1="137.9" x2="95" y2="141"/><line class="cls-6" x1="113.05" y1="141.86" x2="95" y2="145"/><path class="cls-6" d="M102.94,121H87.06a2,2,0,0,1-2-2.28l1.22-8.29A4.08,4.08,0,0,1,90.33,107h9.34a4.08,4.08,0,0,1,4.09,3.43l1.22,8.29A2,2,0,0,1,102.94,121Z"/><circle class="cls-6" cx="98" cy="113" r="2"/><line class="cls-6" x1="67" y1="75" x2="75" y2="75"/><line class="cls-6" x1="123" y1="75" x2="115" y2="75"/></g><g class="cls-7"><path class="cls-8" d="M81.58,67.73a5.37,5.37,0,0,1,1.26-1.41,5.17,5.17,0,0,1,1.69-.9,5.48,5.48,0,0,1,1.94-.25,7.64,7.64,0,0,1,1.9.34,1,1,0,1,1-.55,1.93l-.13,0,0,0a5.81,5.81,0,0,0-1.35-.46,3.86,3.86,0,0,0-1.39,0,3.79,3.79,0,0,0-1.35.48,4.38,4.38,0,0,0-1.13.92l0,0a.5.5,0,0,1-.8-.59Z"/></g><g class="cls-7"><path class="cls-8" d="M107.58,68.27a4.38,4.38,0,0,0-1.13-.92,3.79,3.79,0,0,0-1.35-.48,3.86,3.86,0,0,0-1.39,0,5.81,5.81,0,0,0-1.35.46l0,0a1,1,0,1,1-.82-1.83l.13,0a7.64,7.64,0,0,1,1.9-.34,5.48,5.48,0,0,1,1.94.25,5.17,5.17,0,0,1,1.69.9,5.37,5.37,0,0,1,1.26,1.41.5.5,0,0,1-.8.59Z"/></g><circle class="cls-8" cx="104" cy="73" r="3"/><circle class="cls-8" cx="86" cy="73" r="3"/><path class="cls-6" d="M102.5,83.5s-3.2,7.37-12,4.21"/></svg>