<svg id="icons" xmlns="http://www.w3.org/2000/svg" viewBox="0 0 190 190"><defs><style>.cls-1{fill:#f2e9a2;}.cls-2{fill:#ba9b85;}.cls-3{fill:#a58067;}.cls-4{fill:#425589;}.cls-5{fill:#e89c42;}.cls-6{fill:#595863;}.cls-7{fill:#5a70a0;}.cls-8{opacity:0.24;}.cls-9{fill:#27272d;}.cls-10{fill:#fff;}.cls-11{fill:none;stroke:#27272d;stroke-linecap:round;stroke-linejoin:round;stroke-width:2px;}</style></defs><title>fisherman</title><path class="cls-1" d="M111.36,113.12l.76,12.88H104V100.44a17.23,17.23,0,0,0,6.33-4.25C119.52,98.87,123,109,123,117l-2.11-.7Z"/><path class="cls-2" d="M117,71a6,6,0,1,1-.71,12c-.91,5.23-2.77,9.85-6,13.23a17.23,17.23,0,0,1-6.33,4.25,19.45,19.45,0,0,1-3,.93l-1,.2a29.28,29.28,0,0,1-10,0l-1-.2a19.45,19.45,0,0,1-3-.93,17.23,17.23,0,0,1-6.33-4.25c-3.19-3.38-5-8-6-13.23A6,6,0,1,1,73,71h.06a12.59,12.59,0,0,1,3.59.68A30.32,30.32,0,0,1,77,67H113a30.32,30.32,0,0,1,.39,4.68,12.59,12.59,0,0,1,3.59-.68Z"/><path class="cls-3" d="M116.22,83.42c-.06.34-.12.68-.19,1a24.33,24.33,0,0,1-5.7,11.86h0C106.91,99.91,102,102.1,95,102.1c-.88,0-1.72,0-2.54-.1a22.54,22.54,0,0,1-6.29-1.39A110.87,110.87,0,0,1,98,97.51c7.74-1.57,12.81-4.65,15.88-12.17A3.05,3.05,0,0,1,116.22,83.42Z"/><path class="cls-2" d="M120.89,116.3c.08,2,.11,4.27.11,6.7,0,4-4.18,7.84-8.59,8l-.29-5-.76-12.88Z"/><rect class="cls-4" x="70" y="59" width="50" height="8" rx="2" ry="2"/><path class="cls-4" d="M118,59H72c0-9.18,8-17.44,17.25-19.39a27.41,27.41,0,0,1,11.5,0,21.69,21.69,0,0,1,3.94,1.23C112.19,44,118,51.15,118,59Z"/><path class="cls-5" d="M116.66,67c.15,1.3.24,2.64.28,4a12.59,12.59,0,0,0-3.59.68A30.32,30.32,0,0,0,113,67Z"/><path class="cls-4" d="M95,158c-3.5-10.67-15.5-10.67-19,0l1.59-27,.29-5h34.24l.29,5L114,158C110.5,147.33,98.5,147.33,95,158Z"/><path class="cls-6" d="M114,158H95C98.5,147.33,110.5,147.33,114,158Z"/><path class="cls-4" d="M104,100.44V126h-4V101.57l1-.2A19.45,19.45,0,0,0,104,100.44Z"/><path class="cls-1" d="M100,101.57V126H90V101.57a29.28,29.28,0,0,0,10,0Z"/><path class="cls-6" d="M95,158H76C79.5,147.33,91.5,147.33,95,158Z"/><path class="cls-4" d="M90,101.57V126H86V100.44a19.45,19.45,0,0,0,3,.93Z"/><path class="cls-1" d="M78.64,113.12l-9.53,3.18L67,117c0-8,3.48-18.13,12.67-20.81A17.23,17.23,0,0,0,86,100.44V126H77.88Z"/><path class="cls-2" d="M78.64,113.12,77.88,126l-.29,5c-4.41-.15-8.59-4-8.59-8,0-2.43,0-4.66.11-6.7Z"/><path class="cls-5" d="M73.34,67H77a30.32,30.32,0,0,0-.39,4.68A12.59,12.59,0,0,0,73.06,71C73.1,69.64,73.19,68.3,73.34,67Z"/><path class="cls-7" d="M104.69,40.84a52.22,52.22,0,0,0-15.58,3.85c-4.64,2-8.58,4.85-11.13,9.32a14.93,14.93,0,0,0-1.87,5,14.76,14.76,0,0,0,1.09,8H72a2,2,0,0,1-2-2V61a2,2,0,0,1,2-2c0-9.18,8-17.44,17.25-19.39a27.41,27.41,0,0,1,11.5,0A21.69,21.69,0,0,1,104.69,40.84Z"/><g class="cls-8"><path class="cls-9" d="M71.67,79.37a4.16,4.16,0,0,1-.91-1,3.14,3.14,0,0,1-.5-1.37,2.89,2.89,0,0,1,.25-1.54,4.52,4.52,0,0,1,.83-1.22,1,1,0,0,1,1.51,1.33l-.15.14,0,0a2.8,2.8,0,0,0-.61.56,1.28,1.28,0,0,0-.29.66,1.73,1.73,0,0,0,.11.83,3.14,3.14,0,0,0,.47.83l0,0a.5.5,0,0,1-.7.7Z"/></g><g class="cls-8"><path class="cls-9" d="M118.66,74.25a4.34,4.34,0,0,1,.8,1.25,3.37,3.37,0,0,1,.28,1.48,2.72,2.72,0,0,1-.47,1.42,3.93,3.93,0,0,1-.94,1,.5.5,0,0,1-.7-.7l0,0a2.77,2.77,0,0,0,.5-.81,1.33,1.33,0,0,0,.07-.78,1.8,1.8,0,0,0-.33-.71,2.48,2.48,0,0,0-.58-.57,1,1,0,1,1,1.28-1.55Z"/></g><ellipse class="cls-9" cx="104" cy="73" rx="3" ry="2"/><ellipse class="cls-9" cx="86" cy="73" rx="3" ry="2"/><path class="cls-10" d="M88,87.36S95.75,91.3,102,85C102.73,92.09,93.43,97.61,88,87.36Z"/><path class="cls-11" d="M88,87.36S95.75,91.3,102,85C102.73,92.09,93.43,97.61,88,87.36Z"/><polyline class="cls-11" points="76 158 77.59 130.99 77.88 126 78.64 113.12 79 107"/><polyline class="cls-11" points="111 107 111.36 113.12 112.12 126 112.41 130.99 114 158"/><polyline class="cls-11" points="112.12 126 104 126 100 126 90 126 86 126 77.88 126"/><line class="cls-11" x1="95" y1="158" x2="95" y2="138"/><path class="cls-11" d="M76,158c3.5-10.67,15.5-10.67,19,0Z"/><path class="cls-11" d="M95,158c3.5-10.67,15.5-10.67,19,0Z"/><path class="cls-11" d="M69.11,116.3c-.08,2-.11,4.27-.11,6.7,0,4,4.18,7.84,8.59,8"/><path class="cls-11" d="M79.67,96.19C70.48,98.87,67,109,67,117l2.11-.7,9.53-3.18"/><path class="cls-11" d="M120.89,116.3c.08,2,.11,4.27.11,6.7,0,4-4.18,7.84-8.59,8"/><path class="cls-11" d="M110.33,96.19C119.52,98.87,123,109,123,117l-2.11-.7-9.53-3.18"/><line class="cls-11" x1="86" y1="126" x2="86" y2="100.44"/><line class="cls-11" x1="90" y1="126" x2="90" y2="101.57"/><line class="cls-11" x1="104" y1="126" x2="104" y2="100.44"/><line class="cls-11" x1="100" y1="126" x2="100" y2="101.57"/><path class="cls-11" d="M76.65,71.68A12.59,12.59,0,0,0,73.06,71H73a6,6,0,1,0,.71,12"/><path class="cls-11" d="M113.35,71.68a12.59,12.59,0,0,1,3.59-.68H117a6,6,0,1,1-.71,12"/><path class="cls-11" d="M116.94,71c0-1.36-.13-2.7-.28-4"/><path class="cls-11" d="M73.34,67c-.15,1.3-.24,2.64-.28,4"/><path class="cls-11" d="M116.29,83c-.91,5.23-2.77,9.85-6,13.23a17.23,17.23,0,0,1-6.33,4.25,19.45,19.45,0,0,1-3,.93l-1,.2a29.28,29.28,0,0,1-10,0l-1-.2a19.45,19.45,0,0,1-3-.93,17.23,17.23,0,0,1-6.33-4.25c-3.19-3.38-5-8-6-13.23"/><path class="cls-11" d="M77,67a30.32,30.32,0,0,0-.39,4.68"/><path class="cls-11" d="M113.35,71.68A30.32,30.32,0,0,0,113,67"/><path class="cls-11" d="M118,59a2,2,0,0,1,2,2v4a2,2,0,0,1-2,2H72a2,2,0,0,1-2-2V61a2,2,0,0,1,2-2"/><path class="cls-11" d="M118,59H72c0-9.18,8-17.44,17.25-19.39a27.41,27.41,0,0,1,11.5,0C110.05,41.56,118,49.82,118,59Z"/></svg>