<svg id="icons" xmlns="http://www.w3.org/2000/svg" viewBox="0 0 190 190"><defs><style>.cls-1{fill:#ba9b85;}.cls-2{fill:#f1bf9c;}.cls-3{fill:#dba47f;}.cls-4{fill:#d6532b;}.cls-5{fill:#fff;}.cls-6{fill:#595863;}.cls-7{fill:#e8345f;}.cls-8{fill:#27272d;}.cls-9{fill:#e26042;}.cls-10{fill:none;stroke:#27272d;stroke-linecap:round;stroke-linejoin:round;stroke-width:2px;}.cls-11{opacity:0.24;}</style></defs><title>chef</title><g id="_Group_" data-name="&lt;Group&gt;"><path class="cls-1" d="M76,158c3.5-10.67,15.5-10.67,19,0Z"/><path class="cls-1" d="M114,158H95C98.5,147.33,110.5,147.33,114,158Z"/><path class="cls-2" d="M78.16,121.28,77.88,126l-.29,5c-3.94-.13-7.69-3.21-8.44-6.71Z"/><path class="cls-2" d="M111.84,121.28l9,3c-.75,3.5-4.5,6.58-8.44,6.71l-.29-5Z"/><path class="cls-2" d="M120,71.82A6,6,0,0,1,116.29,83c-.92,5.24-2.77,9.86-6,13.23A17.35,17.35,0,0,1,105,100a19.78,19.78,0,0,1-4,1.35,27.09,27.09,0,0,1-6,.63c-7,0-11.91-2.19-15.33-5.81-3.19-3.37-5-8-6-13.23A6,6,0,1,1,73,71h.06a12.6,12.6,0,0,1,3.46.64A40.91,40.91,0,0,1,77,65.76,164.84,164.84,0,0,1,95,65a164.84,164.84,0,0,1,18,.76,39.61,39.61,0,0,1,.43,5.88,12.6,12.6,0,0,1,3.46-.64H117A6,6,0,0,1,120,71.82Z"/><path class="cls-3" d="M116.19,83.34c-.06.34-.12.68-.19,1a24.33,24.33,0,0,1-5.7,11.86h0C106.88,99.83,101.93,102,95,102c-.88,0-1.72,0-2.54-.1a22.54,22.54,0,0,1-6.29-1.39A110.87,110.87,0,0,1,98,97.43c7.74-1.57,12.81-4.65,15.88-12.17A3.05,3.05,0,0,1,116.19,83.34Z"/><path class="cls-4" d="M79.67,96.19a17.06,17.06,0,0,0-3.38,1.37,25.26,25.26,0,0,1-7.54-1.65A13.1,13.1,0,0,1,64,93a17.42,17.42,0,0,0,5.14-11.41A5.93,5.93,0,0,0,72.94,83H73a6,6,0,0,0,.71,0C74.63,88.2,76.48,92.82,79.67,96.19Z"/><path class="cls-4" d="M77,65.76a40.91,40.91,0,0,0-.43,5.88,14.28,14.28,0,0,0-2.41-.56,8.15,8.15,0,0,0-1-.08H73a6,6,0,0,0-3,.82c.37-1.55,1-2.53,1-4.82a10.44,10.44,0,0,1,3.33-.87C75,66,75.91,65.88,77,65.76Z"/><path class="cls-4" d="M119,67c0,2.29.66,3.27,1,4.82a6,6,0,0,0-3-.82h-.06a12.6,12.6,0,0,0-3.46.64,39.61,39.61,0,0,0-.43-5.88C118,66.33,119,67,119,67Z"/><path class="cls-4" d="M126,93s-3.44,3.87-12.29,4.56a17.06,17.06,0,0,0-3.38-1.37c3.19-3.37,5-8,6-13.23a6,6,0,0,0,4.57-1.37A17.42,17.42,0,0,0,126,93Z"/><path class="cls-5" d="M122,38a9,9,0,0,1-7.13,8.81c1.21,6.36,4.85,9.45,4.13,20.19,0,0-1-.67-6-1.24A164.84,164.84,0,0,0,95,65a164.84,164.84,0,0,0-18,.76C72,66.33,71,67,71,67c-.72-10.74,2.92-13.83,4.13-20.19A9,9,0,0,1,77,29a8.78,8.78,0,0,1,3.13.57A8,8,0,0,1,94.47,26.3,8,8,0,0,1,110,29c0,.18,0,.36,0,.53a8.64,8.64,0,0,1,3-.53A9,9,0,0,1,122,38Z"/><path class="cls-6" d="M95,158c-3.5-10.67-15.5-10.67-19,0l1.59-27,.29-5h34.24l.29,5L114,158C110.5,147.33,98.5,147.33,95,158Z"/><path class="cls-5" d="M78.16,121.28l-9,3L67,125c0-15.84,2.61-23.85,9.29-27.44a17.06,17.06,0,0,1,3.38-1.37C83.09,99.81,88,102,95,102a27.09,27.09,0,0,0,6-.63V126H77.88Z"/><path class="cls-5" d="M113.71,97.56c6.68,3.59,9.29,11.6,9.29,27.44l-2.14-.72h0l-9-3,.28,4.72H105V100a17.35,17.35,0,0,0,5.33-3.83A17.06,17.06,0,0,1,113.71,97.56Z"/><path class="cls-7" d="M105,100v26h-4V101.37A19.78,19.78,0,0,0,105,100Z"/><circle class="cls-8" cx="95" cy="108" r="1"/><circle class="cls-8" cx="95" cy="114" r="1"/><circle class="cls-8" cx="95" cy="120" r="1"/><path class="cls-9" d="M69.14,81.59A5.93,5.93,0,0,0,72.94,83a42.31,42.31,0,0,1-4.19,12.91A13.1,13.1,0,0,1,64,93,17.42,17.42,0,0,0,69.14,81.59Z"/><path class="cls-9" d="M74.33,66.13c-.07,1.65-.14,3.3-.22,4.95a8.15,8.15,0,0,0-1-.08H73a6,6,0,0,0-3,.82c.37-1.55,1-2.53,1-4.82A10.44,10.44,0,0,1,74.33,66.13Z"/><path class="cls-10" d="M76.29,97.56C67.44,96.87,64,93,64,93a17.42,17.42,0,0,0,5.14-11.41"/><path class="cls-10" d="M120.86,81.59A17.42,17.42,0,0,0,126,93s-3.44,3.87-12.29,4.56"/><path class="cls-10" d="M71,67c0,2.29-.66,3.27-1,4.82"/><path class="cls-10" d="M120,71.82c-.37-1.55-1-2.53-1-4.82"/><path class="cls-10" d="M69.15,124.28c.75,3.5,4.5,6.58,8.44,6.71"/><path class="cls-10" d="M112.41,131c3.94-.13,7.69-3.21,8.44-6.71"/><path class="cls-10" d="M79.67,96.19a17.06,17.06,0,0,0-3.38,1.37C69.61,101.15,67,109.16,67,125l2.15-.72,9-3"/><polyline class="cls-10" points="76 158 77.59 130.99 77.88 126 78.16 121.28 79 107"/><polyline class="cls-10" points="111 107 111.84 121.28 112.12 126 112.41 130.99 114 158"/><path class="cls-10" d="M76.52,71.64A12.6,12.6,0,0,0,73.06,71H73a6,6,0,1,0,.71,12"/><path class="cls-10" d="M113.48,71.64a12.6,12.6,0,0,1,3.46-.64H117a6,6,0,1,1-.71,12"/><path class="cls-10" d="M73.71,83c.92,5.24,2.77,9.86,6,13.23C83.09,99.81,88,102,95,102a27.09,27.09,0,0,0,6-.63,19.78,19.78,0,0,0,4-1.35,17.35,17.35,0,0,0,5.33-3.83c3.19-3.37,5-8,6-13.23"/><polyline class="cls-10" points="77.88 126 101 126 103 126 105 126 112.12 126"/><line class="cls-10" x1="95" y1="158" x2="95" y2="138"/><path class="cls-10" d="M76,158c3.5-10.67,15.5-10.67,19,0Z"/><path class="cls-10" d="M95,158c3.5-10.67,15.5-10.67,19,0Z"/><path class="cls-10" d="M77,65.76a40.91,40.91,0,0,0-.43,5.88"/><path class="cls-10" d="M113.48,71.64a39.61,39.61,0,0,0-.43-5.88"/><path class="cls-10" d="M75.13,46.81C73.92,53.17,70.28,56.26,71,67c0,0,1-.67,6-1.24A164.84,164.84,0,0,1,95,65"/><path class="cls-10" d="M114.87,46.81c1.21,6.36,4.85,9.45,4.13,20.19,0,0-1-.67-6-1.24A164.84,164.84,0,0,0,95,65"/><path class="cls-10" d="M75.13,46.81A9,9,0,0,1,77,29a8.78,8.78,0,0,1,3.13.57"/><path class="cls-10" d="M80.13,29.57A8,8,0,0,1,94.47,26.3"/><path class="cls-10" d="M110,29.53a8.64,8.64,0,0,1,3-.53,9,9,0,0,1,1.87,17.81"/><path class="cls-10" d="M94.47,26.3A8,8,0,0,1,110,29c0,.18,0,.36,0,.53"/><line class="cls-10" x1="105" y1="126" x2="105" y2="100.02"/><line class="cls-10" x1="101" y1="126" x2="101" y2="101.37"/><path class="cls-10" d="M111.84,121.28l9,3h0L123,125c0-15.84-2.61-23.85-9.29-27.44a17.06,17.06,0,0,0-3.38-1.37"/></g><g class="cls-11"><path class="cls-8" d="M71.67,79.37a4.16,4.16,0,0,1-.91-1,3.14,3.14,0,0,1-.5-1.37,2.89,2.89,0,0,1,.25-1.54,4.52,4.52,0,0,1,.83-1.22,1,1,0,0,1,1.51,1.33l-.15.14,0,0a2.8,2.8,0,0,0-.61.56,1.28,1.28,0,0,0-.29.66,1.73,1.73,0,0,0,.11.83,3.14,3.14,0,0,0,.47.83l0,0a.5.5,0,0,1-.7.7Z"/></g><g class="cls-11"><path class="cls-8" d="M118.66,74.25a4.34,4.34,0,0,1,.8,1.25,3.37,3.37,0,0,1,.28,1.48,2.73,2.73,0,0,1-.47,1.42,3.93,3.93,0,0,1-.94,1,.5.5,0,0,1-.7-.7l0,0a2.76,2.76,0,0,0,.5-.81,1.33,1.33,0,0,0,.07-.78,1.8,1.8,0,0,0-.33-.71,2.48,2.48,0,0,0-.58-.57,1,1,0,1,1,1.28-1.55Z"/></g><circle class="cls-8" cx="104" cy="73" r="3"/><circle class="cls-8" cx="86" cy="73" r="3"/><path class="cls-8" d="M95,90a45.87,45.87,0,0,1-7.47-.69,8.29,8.29,0,0,0,14.93,0A45.87,45.87,0,0,1,95,90Z"/><path class="cls-5" d="M102.47,89.31c.14-.27.28-.53.4-.81a1.78,1.78,0,0,0-2-2.44,25.53,25.53,0,0,1-11.75,0,1.78,1.78,0,0,0-2,2.44c.11.28.26.55.4.81A45.87,45.87,0,0,0,95,90,45.87,45.87,0,0,0,102.47,89.31Z"/><path class="cls-10" d="M95,86.73A24.9,24.9,0,0,1,89.13,86a1.78,1.78,0,0,0-2,2.44,8.37,8.37,0,0,0,15.73,0,1.78,1.78,0,0,0-2-2.44A24.9,24.9,0,0,1,95,86.73Z"/></svg>