<svg viewBox="0 0 190 190" xmlns="http://www.w3.org/2000/svg"><path d="m95 158h-19c3.5-10.67 15.5-10.67 19 0z" fill="#595863"/><path d="m114 158h-19c3.5-10.67 15.5-10.67 19 0z" fill="#595863"/><path d="m95 158c-3.5-10.67-15.5-10.67-19 0l1.59-27 .29-5h34.24l.29 5 1.59 27c-3.5-10.67-15.5-10.67-19 0z" fill="#50a0ea"/><path d="m101 101.37v24.63h-12v-24.63a28.89 28.89 0 0 0 12 0z" fill="#fff"/><path d="m78.64 113.12-9.53 3.18-2.11.7c0-8 3.48-18.13 12.67-20.81a17.93 17.93 0 0 0 9.33 5.18v24.63h-11.12z" fill="#e8345f"/><path d="m111.36 113.12.76 12.88h-11.12v-24.63a17.93 17.93 0 0 0 9.33-5.18c9.19 2.68 12.67 12.81 12.67 20.81l-2.11-.7z" fill="#e8345f"/><path d="m78.64 113.12-.76 12.88-.29 5c-4.41-.15-8.59-4-8.59-8 0-2.43 0-4.66.11-6.7z" fill="#f9e7d4"/><path d="m120.89 116.3c.08 2 .11 4.27.11 6.7 0 4-4.18 7.84-8.59 8l-.29-5-.76-12.88z" fill="#f9e7d4"/><path d="m117 71a6 6 0 1 1 -.71 12c-.91 5.23-2.77 9.85-6 13.23a17.93 17.93 0 0 1 -9.33 5.18 28.89 28.89 0 0 1 -12 0 17.93 17.93 0 0 1 -9.33-5.18c-3.19-3.38-5-8-6-13.23a6 6 0 1 1 -.63-12h.06a12.59 12.59 0 0 1 3.59.68 30.32 30.32 0 0 1 .35-4.68h36a30.32 30.32 0 0 1 .39 4.68 12.59 12.59 0 0 1 3.59-.68z" fill="#f9e7d4"/><path d="m116.22 83.42c-.06.34-.12.68-.19 1a24.33 24.33 0 0 1 -5.7 11.86c-3.42 3.63-8.33 5.82-15.33 5.82-.88 0-1.72 0-2.54-.1a22.54 22.54 0 0 1 -6.29-1.39 110.87 110.87 0 0 1 11.83-3.1c7.74-1.57 12.81-4.65 15.88-12.17a3.05 3.05 0 0 1 2.34-1.92z" fill="#eacdb2"/><path d="m73.34 67h3.66a30.32 30.32 0 0 0 -.39 4.68 12.59 12.59 0 0 0 -3.55-.68c.04-1.36.13-2.7.28-4z" fill="#403e4c"/><path d="m116.66 67c.15 1.3.24 2.64.28 4a12.59 12.59 0 0 0 -3.59.68 30.32 30.32 0 0 0 -.35-4.68z" fill="#403e4c"/><path d="m68 63h54v4h-54z" fill="#e89c42"/><path d="m101 39.73v23.27h-12v-23.27a25 25 0 0 1 12 0z" fill="#e89c42"/><path d="m89 39.73v23.27h-18c0-11 8.3-20.93 18-23.27z" fill="#edd64a"/><path d="m119 63h-18v-23.27c9.7 2.34 18 12.27 18 23.27z" fill="#edd64a"/><path d="m89 39.73v4.55c-1.2.72-2.44 1.41-3.67 2.1-6.83 3.88-9.15 9.8-9.51 16.62h-4.82c0-11 8.3-20.93 18-23.27z" fill="#f7e174"/><path d="m72.4 65.91c0 .37-.09.73-.15 1.09h-4.25v-4h4.53a15.72 15.72 0 0 1 -.13 2.91z" fill="#f2b066"/><g fill="none" stroke="#27272d" stroke-linecap="round" stroke-linejoin="round" stroke-width="2"><path d="m76.65 71.68a12.59 12.59 0 0 0 -3.59-.68h-.06a6 6 0 1 0 .71 12"/><path d="m113.35 71.68a12.59 12.59 0 0 1 3.59-.68h.06a6 6 0 1 1 -.71 12"/><path d="m116.94 71c0-1.36-.13-2.7-.28-4"/><path d="m73.34 67c-.15 1.3-.24 2.64-.28 4"/><path d="m116.29 83c-.91 5.23-2.77 9.85-6 13.23a17.93 17.93 0 0 1 -9.33 5.18 28.89 28.89 0 0 1 -12 0 17.93 17.93 0 0 1 -9.33-5.18c-3.19-3.38-5-8-6-13.23"/><path d="m77 67a30.32 30.32 0 0 0 -.39 4.68"/><path d="m113.35 71.68a30.32 30.32 0 0 0 -.35-4.68"/><path d="m119 63h3v4h-5.34-3.7-35.92-3.7-5.34v-4h3"/><path d="m119 63h-48c0-11 8.3-20.93 18-23.27a25 25 0 0 1 12 0c9.7 2.34 18 12.27 18 23.27z"/><path d="m89 63v-23.27"/><path d="m101 39.73v23.27"/><path d="m76 158 1.59-27.01.29-4.99.76-12.88.36-6.12"/><path d="m111 107 .36 6.12.76 12.88.29 4.99 1.59 27.01"/><path d="m112.12 126h-11.12-12-11.12"/><path d="m95 158v-20"/><path d="m76 158c3.5-10.67 15.5-10.67 19 0z"/><path d="m95 158c3.5-10.67 15.5-10.67 19 0z"/><path d="m69.11 116.3c-.08 2-.11 4.27-.11 6.7 0 4 4.18 7.84 8.59 8"/><path d="m79.67 96.19c-9.19 2.68-12.67 12.81-12.67 20.81l2.11-.7 9.53-3.18"/><path d="m120.89 116.3c.08 2 .11 4.27.11 6.7 0 4-4.18 7.84-8.59 8"/><path d="m110.33 96.19c9.19 2.68 12.67 12.81 12.67 20.81l-2.11-.7-9.53-3.18"/><path d="m89 126v-24.63"/><path d="m101 126v-24.63"/></g><path d="m71.67 79.37a4.16 4.16 0 0 1 -.91-1 3.14 3.14 0 0 1 -.5-1.37 2.89 2.89 0 0 1 .25-1.54 4.52 4.52 0 0 1 .83-1.22 1 1 0 0 1 1.51 1.33l-.15.14a2.8 2.8 0 0 0 -.61.56 1.28 1.28 0 0 0 -.29.66 1.73 1.73 0 0 0 .11.83 3.14 3.14 0 0 0 .47.83.5.5 0 0 1 -.7.7z" fill="#27272d" opacity=".24"/><path d="m118.66 74.25a4.34 4.34 0 0 1 .8 1.25 3.37 3.37 0 0 1 .28 1.48 2.73 2.73 0 0 1 -.47 1.42 3.93 3.93 0 0 1 -.94 1 .5.5 0 0 1 -.7-.7 2.76 2.76 0 0 0 .5-.81 1.33 1.33 0 0 0 .07-.78 1.8 1.8 0 0 0 -.33-.71 2.48 2.48 0 0 0 -.58-.57 1 1 0 1 1 1.28-1.55z" fill="#27272d" opacity=".24"/><circle cx="104" cy="73" fill="#27272d" r="3"/><circle cx="86" cy="73" fill="#27272d" r="3"/><path d="m88 88s2 3 7 3 7-3 7-3" fill="none" stroke="#27272d" stroke-linecap="round" stroke-linejoin="round" stroke-width="2"/></svg>