<svg id="icons" xmlns="http://www.w3.org/2000/svg" viewBox="0 0 190 190"><defs><style>.cls-1{fill:#edd64a;}.cls-2{fill:#8468ba;}.cls-3{fill:#a58067;}.cls-4{fill:#e8345f;}.cls-5{fill:#ba9b85;}.cls-6{fill:#403e4c;}.cls-7{fill:#565466;}.cls-8{fill:#fff;}.cls-9{fill:none;stroke:#27272d;stroke-linecap:round;stroke-linejoin:round;stroke-width:2px;}.cls-10{opacity:0.24;}.cls-11{fill:#27272d;}</style></defs><title>office-worker</title><g id="_Group_" data-name="&lt;Group&gt;"><polygon class="cls-1" points="115 146 75 146 77.16 130.97 77.88 126 112.12 126 112.84 130.97 112.87 131.2 113.34 134.47 115 146"/><path class="cls-2" d="M78.16,121.28l-9,3L67,125c0-18.29,3.48-26.13,12.67-28.81a17.53,17.53,0,0,0,8.2,4.88l0,.09c1.21,2.65,3.71,6.94,7.16,6.94s6-4.29,7.16-6.94l0-.09a17.53,17.53,0,0,0,8.2-4.88C119.52,98.87,123,106.71,123,125l-2.14-.72h0l-9-3,.28,4.72H77.88Z"/><path class="cls-3" d="M102.13,101.07l0,.09c-1.21,2.65-3.71,6.94-7.16,6.94s-6-4.29-7.16-6.94l0-.09a27.8,27.8,0,0,0,14.26,0Z"/><path class="cls-4" d="M78.25,153.72C83.1,147.6,92.06,149,95,158H76A13.64,13.64,0,0,1,78.25,153.72Z"/><path class="cls-4" d="M114,158H95c2.94-9,11.9-10.4,16.75-4.28A13.64,13.64,0,0,1,114,158Z"/><path class="cls-5" d="M95,158c-2.94-9-11.9-10.4-16.75-4.28l.46-7.72H95Z"/><path class="cls-5" d="M95,158V146h16.3l.45,7.72C106.9,147.6,97.94,149,95,158Z"/><path class="cls-5" d="M78.16,121.28,77.88,126l-.72,5c-3.78-.34-7.29-3.32-8-6.69Z"/><path class="cls-5" d="M111.84,121.28l9,3c-.72,3.37-4.23,6.35-8,6.69l-.72-5Z"/><path class="cls-5" d="M121.36,72.89A5.92,5.92,0,0,1,123,77a6,6,0,0,1-6.71,6c-.91,5.23-2.77,9.85-6,13.23a17.53,17.53,0,0,1-8.2,4.88,27.8,27.8,0,0,1-14.26,0,17.53,17.53,0,0,1-8.2-4.88c-3.19-3.38-5-8-6-13.23A6,6,0,1,1,73,71h.06a12.6,12.6,0,0,1,3.46.64,34.11,34.11,0,0,1,2.81-14,24.34,24.34,0,0,0,15.58-1.74c2,1.73,7.49,5.35,16.79,4.3a36,36,0,0,1,1.78,11.47,12.6,12.6,0,0,1,3.46-.64H117A6,6,0,0,1,121.36,72.89Z"/><path class="cls-3" d="M116.22,83.42c-.06.34-.12.68-.19,1a24.33,24.33,0,0,1-5.7,11.86h0C106.91,99.91,102,102.1,95,102.1c-.88,0-1.72,0-2.54-.1a22.54,22.54,0,0,1-6.29-1.39A110.87,110.87,0,0,1,98,97.51c7.74-1.57,12.81-4.65,15.88-12.17A3.05,3.05,0,0,1,116.22,83.42Z"/><path class="cls-6" d="M118.92,50.56a33,33,0,0,1,2.44,22.33A6,6,0,0,0,117,71h-.06a12.6,12.6,0,0,0-3.46.64,36,36,0,0,0-1.78-11.47c-9.3,1-14.76-2.57-16.79-4.3a24.34,24.34,0,0,1-15.58,1.74,34.11,34.11,0,0,0-2.81,14A12.6,12.6,0,0,0,73.06,71h-.22a6,6,0,0,0-4.2,1.88C65.09,58.47,71.38,37,95,37a33.64,33.64,0,0,1,6.88.68,11,11,0,1,1,17,12.88Z"/><path class="cls-7" d="M121.08,35.79c-3.89-.75-7.74-1.24-11.31.86-2.32,1.36-4.26,3-6.74,4.14-5,2.19-10.35,2.49-15.6,3.55-3,.6-6.27,1.34-8.46,3.61s-3.26,5.9-4.14,8.85a48.12,48.12,0,0,0-2,14.21,6,6,0,0,0-4.2,1.88C65.09,58.47,71.38,37,95,37a33.64,33.64,0,0,1,6.88.68,11,11,0,0,1,19.2-1.89Z"/><circle class="cls-8" cx="84" cy="131" r="2"/><path class="cls-8" d="M99,145a2,2,0,0,1-.27,1H95.27A2,2,0,1,1,99,145Z"/><circle class="cls-8" cx="107" cy="139" r="2"/><path class="cls-8" d="M113.34,134.47A1.9,1.9,0,0,1,112,135a2,2,0,0,1,0-4,2,2,0,0,1,.87.2Z"/><circle class="cls-8" cx="100" cy="130" r="2"/><circle class="cls-8" cx="82" cy="141" r="2"/><circle class="cls-8" cx="93" cy="137" r="2"/><path class="cls-9" d="M76.52,71.64A12.6,12.6,0,0,0,73.06,71H73a6,6,0,1,0,.71,12"/><path class="cls-9" d="M113.48,71.64a12.6,12.6,0,0,1,3.46-.64H117a6,6,0,1,1-.71,12"/><path class="cls-9" d="M73.71,83c.91,5.23,2.77,9.85,6,13.23a17.53,17.53,0,0,0,8.2,4.88,27.8,27.8,0,0,0,14.26,0,17.53,17.53,0,0,0,8.2-4.88c3.19-3.38,5-8,6-13.23"/><path class="cls-9" d="M87.84,101.16c1.21,2.65,3.71,6.94,7.16,6.94s6-4.29,7.16-6.94"/><path class="cls-9" d="M76.52,71.64a34.11,34.11,0,0,1,2.81-14,24.34,24.34,0,0,0,15.58-1.74c2,1.73,7.49,5.35,16.79,4.3a36,36,0,0,1,1.78,11.47"/><path class="cls-9" d="M68.64,72.89C65.09,58.47,71.38,37,95,37a33.64,33.64,0,0,1,6.88.68,11,11,0,1,1,17,12.88,33,33,0,0,1,2.44,22.33"/><path class="cls-9" d="M69.15,124.28c.72,3.37,4.23,6.35,8,6.69"/><path class="cls-9" d="M120.85,124.28c-.72,3.37-4.23,6.35-8,6.69"/><path class="cls-9" d="M78.16,121.28l-9,3L67,125c0-18.29,3.48-26.13,12.67-28.81"/><line class="cls-9" x1="111.75" y1="153.72" x2="111.3" y2="146"/><line class="cls-9" x1="78.71" y1="146" x2="78.25" y2="153.72"/><polyline class="cls-9" points="112.12 126 111.84 121.28 111 107"/><polyline class="cls-9" points="77.88 126 78.16 121.28 79 107"/><path class="cls-9" d="M111.84,121.28l9,3h0L123,125c0-18.29-3.48-26.13-12.67-28.81"/><polyline class="cls-9" points="77.88 126 79.88 126 110.12 126 112.12 126"/><line class="cls-9" x1="95" y1="158" x2="95" y2="146"/><path class="cls-9" d="M95,158H76a13.64,13.64,0,0,1,2.25-4.28C83.1,147.6,92.06,149,95,158Z"/><path class="cls-9" d="M95,158c2.94-9,11.9-10.4,16.75-4.28A13.64,13.64,0,0,1,114,158H95Z"/><polyline class="cls-9" points="112.12 126 112.84 130.97 115 146 111.3 146 95 146 78.71 146 75 146 77.16 130.97 77.88 126"/><path class="cls-9" d="M78.52,115.32c1.88.76,6.54,2.87,12.48-2.22"/><path class="cls-9" d="M99,113.1c5.94,5.09,10.6,3,12.48,2.22"/></g><g class="cls-10"><path class="cls-11" d="M81.84,66.53a16.24,16.24,0,0,1,3.05-.87,13.26,13.26,0,0,1,3.25-.21,1,1,0,1,1-.12,2l-.16,0A11.51,11.51,0,0,0,85,67.15a15.1,15.1,0,0,0-2.89.32h0a.5.5,0,0,1-.29-1Z"/></g><g class="cls-10"><path class="cls-11" d="M107.58,68.27a4.38,4.38,0,0,0-1.13-.92,3.79,3.79,0,0,0-1.35-.48,3.86,3.86,0,0,0-1.39,0,5.81,5.81,0,0,0-1.35.46l0,0a1,1,0,1,1-.82-1.83l.13,0a7.64,7.64,0,0,1,1.9-.34,5.48,5.48,0,0,1,1.94.25,5.17,5.17,0,0,1,1.69.9,5.37,5.37,0,0,1,1.26,1.41.5.5,0,0,1-.8.59Z"/></g><g class="cls-10"><path class="cls-11" d="M71.67,79.37a4.16,4.16,0,0,1-.91-1,3.14,3.14,0,0,1-.5-1.37,2.89,2.89,0,0,1,.25-1.54,4.52,4.52,0,0,1,.83-1.22,1,1,0,0,1,1.51,1.33l-.15.14,0,0a2.8,2.8,0,0,0-.61.56,1.28,1.28,0,0,0-.29.66,1.73,1.73,0,0,0,.11.83,3.14,3.14,0,0,0,.47.83l0,0a.5.5,0,0,1-.7.7Z"/></g><g class="cls-10"><path class="cls-11" d="M118.66,74.25a4.34,4.34,0,0,1,.8,1.25,3.37,3.37,0,0,1,.28,1.48,2.73,2.73,0,0,1-.47,1.42,3.93,3.93,0,0,1-.94,1,.5.5,0,0,1-.7-.7l0,0a2.77,2.77,0,0,0,.5-.81,1.33,1.33,0,0,0,.07-.78,1.8,1.8,0,0,0-.33-.71,2.48,2.48,0,0,0-.58-.57,1,1,0,1,1,1.28-1.55Z"/></g><ellipse class="cls-11" cx="104" cy="73" rx="2" ry="3"/><ellipse class="cls-11" cx="86" cy="73" rx="2" ry="3"/><path class="cls-9" d="M89,89a10,10,0,0,0,12,0"/></svg>