<svg id="icons" xmlns="http://www.w3.org/2000/svg" viewBox="0 0 190 190"><defs><style>.cls-1{fill:#f2e9a2;}.cls-2{fill:#50a0ea;}.cls-3{fill:#846a61;}.cls-4{fill:#725650;}.cls-5{fill:#e8345f;}.cls-6{fill:#595863;}.cls-7{fill:#edd64a;}.cls-8{fill:#8be8ef;}.cls-9{fill:#f7f1cd;}.cls-10{fill:none;stroke:#27272d;stroke-linecap:round;stroke-linejoin:round;stroke-width:2px;}.cls-11{opacity:0.24;}.cls-12{fill:#27272d;}</style></defs><title>diver</title><g id="_Group_" data-name="&lt;Group&gt;"><path class="cls-1" d="M133,105s-5,1-10-5a19.27,19.27,0,0,0,3,9,13.72,13.72,0,0,1-4.76-1.08c-1.87-6.59-5.34-10.11-10.91-11.73,3.19-3.38,5-8,6-13.23A6,6,0,1,0,117,71h-.06a8,8,0,0,0-.94.07V42.72c5.31,5.73,9.83,14.51,13,25.28C134,85,125,85,133,105Z"/><path class="cls-2" d="M78.16,121.28l-9,3L67,125c0-7.2.54-12.79,1.76-17.08,1.87-6.59,5.34-10.11,10.91-11.73C83.09,99.81,88,102,95,102s11.91-2.19,15.33-5.81c5.57,1.62,9,5.14,10.91,11.73,1.22,4.29,1.76,9.88,1.76,17.08l-2.14-.72h0l-9-3,.57,9.71L114,158c-3.5-10.67-15.5-10.67-19,0-3.5-10.67-15.5-10.67-19,0l1.59-27Z"/><path class="cls-3" d="M117,71a6,6,0,1,1-.71,12c-.91,5.23-2.77,9.85-6,13.23C106.91,99.81,102,102,95,102s-11.91-2.19-15.33-5.81c-3.19-3.38-5-8-6-13.23A6,6,0,1,1,73,71a12,12,0,0,1,2.94.46,15.37,15.37,0,0,1,2.06.73V77a4,4,0,0,0,4,4h3a8,8,0,0,0,7.12-4.36A2.94,2.94,0,0,1,94.75,75h.5a2.94,2.94,0,0,1,2.63,1.64A8,8,0,0,0,105,81h3a4,4,0,0,0,3.68-2.45c-1,6.77-4.27,9.08-12.39,9.41A5.28,5.28,0,0,0,95,86c-2.76,0-5,1.79-5,4s2.24,4,5,4a5.3,5.3,0,0,0,4.36-2C111.59,91.39,116,86.21,116,73V71.07a8,8,0,0,1,.94-.07Z"/><path class="cls-4" d="M116.22,83.42c-.06.34-.12.68-.19,1a24.33,24.33,0,0,1-5.7,11.86h0C106.91,99.91,102,102.1,95,102.1c-.88,0-1.72,0-2.54-.1a22.54,22.54,0,0,1-6.29-1.39A110.87,110.87,0,0,1,98,97.51c7.74-1.57,12.81-4.65,15.88-12.17A3.05,3.05,0,0,1,116.22,83.42Z"/><path class="cls-3" d="M111.84,121.28l9,3c-.75,3.5-4.5,6.58-8.44,6.71Z"/><path class="cls-5" d="M116,71.07V73c0,13.21-4.41,18.39-16.64,19a3.35,3.35,0,0,0,.64-2,3.39,3.39,0,0,0-.71-2c8.12-.33,11.42-2.64,12.39-9.41A3.8,3.8,0,0,0,112,77V41.66a4,4,0,0,1,.6-2.11,3.92,3.92,0,0,1,.57-.72l2-2L116,36V71.07Z"/><path class="cls-6" d="M114,158H95C98.5,147.33,110.5,147.33,114,158Z"/><path class="cls-1" d="M112.6,39.55a4,4,0,0,0-.6,2.11V62.45C108.47,50.07,98,55,98,55c-6-7-11,1-11,1-6-5.1-10.45,5-11.06,15.46A12,12,0,0,0,73,71a6,6,0,1,0,.71,12c.91,5.23,2.77,9.85,6,13.23-5.57,1.62-9,5.14-10.91,11.73A13.72,13.72,0,0,1,64,109a19.27,19.27,0,0,0,3-9,15.22,15.22,0,0,1-4.59,3.85A8.83,8.83,0,0,1,57,105c8-20-1-20,4-37,6.78-23,17.66-30.64,32.2-30.13a16.1,16.1,0,0,1,9.5-2.47A18,18,0,0,1,112.6,39.55Z"/><path class="cls-3" d="M112,72.19V77a3.8,3.8,0,0,1-.32,1.55A4,4,0,0,1,108,81h-3a8,8,0,0,1-7.12-4.36A2.94,2.94,0,0,0,95.25,75h-.5a2.94,2.94,0,0,0-2.63,1.64A8,8,0,0,1,85,81H82a4,4,0,0,1-4-4V71a5,5,0,0,1,5-5h24a5,5,0,0,1,5,5Z"/><path class="cls-3" d="M112,62.45V71a5,5,0,0,0-5-5H83a5,5,0,0,0-5,5v1.19a15.37,15.37,0,0,0-2.06-.73C76.55,61,81.05,50.9,87,56c0,0,5-8,11-1C98,55,108.47,50.07,112,62.45Z"/><path class="cls-7" d="M100,90a3.35,3.35,0,0,1-.64,2A5.3,5.3,0,0,1,95,94c-2.76,0-5-1.79-5-4s2.24-4,5-4a5.28,5.28,0,0,1,4.29,2A3.39,3.39,0,0,1,100,90Z"/><path class="cls-6" d="M95,158H76C79.5,147.33,91.5,147.33,95,158Z"/><path class="cls-3" d="M78.16,121.28,77.59,131c-3.94-.13-7.69-3.21-8.44-6.71Z"/><path class="cls-8" d="M112,71a5,5,0,0,0-5-5H83a5,5,0,0,0-5,5v6a4,4,0,0,0,4,4h3a8,8,0,0,0,7.12-4.36A2.94,2.94,0,0,1,94.75,75h.5a2.94,2.94,0,0,1,2.63,1.64A8,8,0,0,0,105,81h3a4,4,0,0,0,3.68-2.45A3.8,3.8,0,0,0,112,77V72.19"/><path class="cls-9" d="M102.7,35.4C100,37,97.11,38.55,94.42,40.22c-4.55,2.84-8.69,3-13.73,4.32s-6.26,6.39-8.38,10.63c-2.63,5.27-6.37,9.73-7.25,15.73-.84,5.68.73,10.88,1.61,16.43,1,6.54-.9,11.79-4.26,16.52A8.83,8.83,0,0,1,57,105c8-20-1-20,4-37,6.78-23,17.66-30.64,32.2-30.13A16.1,16.1,0,0,1,102.7,35.4Z"/><path class="cls-10" d="M69.15,124.28c.75,3.5,4.5,6.58,8.44,6.71"/><path class="cls-10" d="M112.41,131c3.94-.13,7.69-3.21,8.44-6.71"/><path class="cls-10" d="M79.67,96.19c-5.57,1.62-9,5.14-10.91,11.73C67.54,112.21,67,117.8,67,125l2.15-.72,9-3"/><polyline class="cls-10" points="76 158 77.59 130.99 78.16 121.28 79 107"/><polyline class="cls-10" points="111 107 111.84 121.28 112.41 130.99 114 158"/><path class="cls-10" d="M78.52,115.32c1.88.76,6.54,2.87,12.48-2.22"/><path class="cls-10" d="M99,113.1c5.94,5.09,10.6,3,12.48,2.22"/><path class="cls-10" d="M111.84,121.28l9,3h0L123,125c0-7.2-.54-12.79-1.76-17.08-1.87-6.59-5.34-10.11-10.91-11.73"/><line class="cls-10" x1="95" y1="158" x2="95" y2="134"/><path class="cls-10" d="M76,158c3.5-10.67,15.5-10.67,19,0Z"/><path class="cls-10" d="M95,158c3.5-10.67,15.5-10.67,19,0Z"/><path class="cls-10" d="M116,71.07a8,8,0,0,1,.94-.07H117a6,6,0,1,1-.71,12c-.91,5.23-2.77,9.85-6,13.23C106.91,99.81,102,102,95,102s-11.91-2.19-15.33-5.81c-3.19-3.38-5-8-6-13.23A6,6,0,1,1,73,71a12,12,0,0,1,2.94.46,15.37,15.37,0,0,1,2.06.73"/><path class="cls-10" d="M75.94,71.46C76.55,61,81.05,50.9,87,56c0,0,5-8,11-1,0,0,10.47-4.93,14,7.45"/><path class="cls-10" d="M68.76,107.92A13.72,13.72,0,0,1,64,109a19.27,19.27,0,0,0,3-9c-5,6-10,5-10,5,8-20-1-20,4-37,6.78-23,17.66-30.64,32.2-30.13"/><path class="cls-10" d="M93.2,37.87c6.73-4,13.43-3,19.4,1.68"/><path class="cls-10" d="M116,42.72c5.31,5.73,9.83,14.51,13,25.28,5,17-4,17,4,37,0,0-5,1-10-5a19.27,19.27,0,0,0,3,9,13.72,13.72,0,0,1-4.76-1.08"/><path class="cls-10" d="M112,71a5,5,0,0,0-5-5H83a5,5,0,0,0-5,5v6a4,4,0,0,0,4,4h3a8,8,0,0,0,7.12-4.36A2.94,2.94,0,0,1,94.75,75h.5a2.94,2.94,0,0,1,2.63,1.64A8,8,0,0,0,105,81h3a4,4,0,0,0,3.68-2.45A3.8,3.8,0,0,0,112,77V72.19"/><path class="cls-10" d="M99.36,92C111.59,91.39,116,86.21,116,73V36l-.84.84-2,2a3.92,3.92,0,0,0-.57.72,4,4,0,0,0-.6,2.11V72.19"/><path class="cls-10" d="M111.68,78.55c-1,6.77-4.27,9.08-12.39,9.41"/><path class="cls-10" d="M99.29,88a3.39,3.39,0,0,1,.71,2,3.35,3.35,0,0,1-.64,2A5.3,5.3,0,0,1,95,94c-2.76,0-5-1.79-5-4s2.24-4,5-4A5.28,5.28,0,0,1,99.29,88Z"/></g><g class="cls-11"><path class="cls-12" d="M71.67,79.37a4.16,4.16,0,0,1-.91-1,3.14,3.14,0,0,1-.5-1.37,2.89,2.89,0,0,1,.25-1.54,4.52,4.52,0,0,1,.83-1.22,1,1,0,0,1,1.51,1.33l-.15.14,0,0a2.8,2.8,0,0,0-.61.56,1.28,1.28,0,0,0-.29.66,1.73,1.73,0,0,0,.11.83,3.14,3.14,0,0,0,.47.83l0,0a.5.5,0,0,1-.7.7Z"/></g><g class="cls-11"><path class="cls-12" d="M118.66,74.25a4.34,4.34,0,0,1,.8,1.25,3.37,3.37,0,0,1,.28,1.48,2.72,2.72,0,0,1-.47,1.42,3.93,3.93,0,0,1-.94,1,.5.5,0,0,1-.7-.7l0,0a2.77,2.77,0,0,0,.5-.81,1.33,1.33,0,0,0,.07-.78,1.8,1.8,0,0,0-.33-.71,2.48,2.48,0,0,0-.58-.57,1,1,0,1,1,1.28-1.55Z"/></g><circle class="cls-12" cx="103" cy="73" r="2"/><circle class="cls-12" cx="87" cy="73" r="2"/></svg>