<svg id="icons" xmlns="http://www.w3.org/2000/svg" viewBox="0 0 190 190"><defs><style>.cls-1{fill:#ba9b85;}.cls-2{fill:#f9ede5;}.cls-3{fill:#a9eada;}.cls-4{fill:#59392e;}.cls-5{fill:#6d5041;}.cls-6{fill:#fff;}.cls-7{fill:#f1bf9c;}.cls-8{fill:#dba47f;}.cls-9{fill:none;stroke:#27272d;stroke-linecap:round;stroke-linejoin:round;stroke-width:2px;}.cls-10{opacity:0.24;}.cls-11{fill:#27272d;}</style></defs><title>scientist</title><g id="_Group_" data-name="&lt;Group&gt;"><path class="cls-1" d="M76,158c3.5-10.67,15.5-10.67,19,0Z"/><path class="cls-1" d="M114,158H95C98.5,147.33,110.5,147.33,114,158Z"/><path class="cls-2" d="M76,158l.71-12.1C87.56,145.12,91,139.56,91,134v-8h8v8c0,5.56,3.44,11.12,14.29,11.9L114,158c-3.5-10.67-15.5-10.67-19,0C91.5,147.33,79.5,147.33,76,158Z"/><path class="cls-3" d="M99,101.73V126H91V101.73a29.76,29.76,0,0,0,8,0Z"/><path class="cls-4" d="M121.53,62.5h0a59,59,0,0,1-.82,9.78A6,6,0,0,0,117,71h-.06a13.53,13.53,0,0,0-4.3.93,125.2,125.2,0,0,0-2.53-14.49A90.18,90.18,0,0,1,95,59a90.18,90.18,0,0,1-15.11-1.56,125.2,125.2,0,0,0-2.53,14.49A13.45,13.45,0,0,0,73.19,71H73a6,6,0,0,0-3.69,1.27C65,45.68,78.16,37.35,94,37v0a59.11,59.11,0,0,0,22-4,11.71,11.71,0,0,1-1.08,4.72A5.34,5.34,0,0,1,114,39a7.2,7.2,0,0,0,7,0C117,47,121.53,51,121.53,62.5Z"/><path class="cls-5" d="M116,33a11.71,11.71,0,0,1-1.08,4.72,44.65,44.65,0,0,1-5.27,3.6c-5.16,3-10.77,2.44-16.5,2.81-7.06.46-14.32,2.54-17.47,9.5A34.85,34.85,0,0,0,73.19,71H73a6,6,0,0,0-3.69,1.27C65,45.68,78.16,37.35,94,37v0A59.11,59.11,0,0,0,116,33Z"/><path class="cls-6" d="M78.16,121.28l-9,3L67,125c0-18.29,3.48-26.13,12.67-28.81A18.56,18.56,0,0,0,91,101.73V134c0,5.56-3.44,11.12-14.29,11.9L77.59,131l.29-5Z"/><path class="cls-6" d="M120.85,124.28l-9-3,.28,4.72.29,5,.88,14.91C102.44,145.12,99,139.56,99,134V101.73a18.56,18.56,0,0,0,11.33-5.54C119.52,98.87,123,106.71,123,125Z"/><path class="cls-7" d="M78.16,121.28,77.88,126l-.29,5c-3.94-.13-7.69-3.21-8.44-6.71Z"/><path class="cls-7" d="M111.84,121.28l9,3c-.75,3.5-4.5,6.58-8.44,6.71l-.29-5Z"/><path class="cls-7" d="M120.7,72.28A6,6,0,0,0,117,71h-.06a13.53,13.53,0,0,0-4.3.93,125.2,125.2,0,0,0-2.53-14.49A90.18,90.18,0,0,1,95,59a90.18,90.18,0,0,1-15.11-1.56,125.2,125.2,0,0,0-2.53,14.49,13.53,13.53,0,0,0-4.3-.93H73a6,6,0,0,0-3.69,1.27h0A6,6,0,0,0,71,82.63h0A6.05,6.05,0,0,0,73,83a6,6,0,0,0,.71,0c.92,5.24,2.77,9.86,6,13.23A18.56,18.56,0,0,0,91,101.73a29.76,29.76,0,0,0,8,0,18.56,18.56,0,0,0,11.33-5.54c3.19-3.37,5-8,6-13.23a6,6,0,0,0,.71,0,6.05,6.05,0,0,0,2-.36h0a6,6,0,0,0,1.65-10.35Z"/><path class="cls-8" d="M116.19,83.34c-.06.34-.12.68-.19,1a24.33,24.33,0,0,1-5.7,11.86h0C106.88,99.83,101.93,102,95,102c-.88,0-1.72,0-2.54-.1a22.54,22.54,0,0,1-6.29-1.39A110.87,110.87,0,0,1,98,97.43c7.74-1.57,12.81-4.65,15.88-12.17A3.05,3.05,0,0,1,116.19,83.34Z"/><path class="cls-9" d="M69.15,124.28c.75,3.5,4.5,6.58,8.44,6.71"/><path class="cls-9" d="M112.41,131c3.94-.13,7.69-3.21,8.44-6.71"/><path class="cls-9" d="M79.67,96.19C70.48,98.87,67,106.71,67,125l2.15-.72,9-3"/><polyline class="cls-9" points="76 158 76.71 145.9 77.59 130.99 77.88 126 78.16 121.28 79 107"/><polyline class="cls-9" points="111 107 111.84 121.28 112.12 126 112.41 130.99 113.29 145.9 114 158"/><path class="cls-9" d="M111.84,121.28l9,3L123,125c0-18.29-3.48-26.13-12.67-28.81"/><line class="cls-9" x1="99" y1="126" x2="91" y2="126"/><line class="cls-9" x1="95" y1="158" x2="95" y2="138"/><path class="cls-9" d="M76,158c3.5-10.67,15.5-10.67,19,0Z"/><path class="cls-9" d="M95,158c3.5-10.67,15.5-10.67,19,0Z"/><path class="cls-9" d="M91,101.72h0V134c0,5.56-3.44,11.12-14.29,11.9"/><path class="cls-9" d="M99,101.72h0V134c0,5.56,3.44,11.12,14.29,11.9"/><path class="cls-9" d="M69.31,72.27A6,6,0,0,1,73,71h.06a13.53,13.53,0,0,1,4.3.93,14,14,0,0,1,1.64.71"/><path class="cls-9" d="M73.71,83A6,6,0,0,1,73,83a6.05,6.05,0,0,1-2-.36h0a6,6,0,0,1-1.64-10.35"/><path class="cls-9" d="M116.29,83a6,6,0,0,0,.71,0,6.05,6.05,0,0,0,2-.36h0A6,6,0,0,0,117,71h-.06a13.53,13.53,0,0,0-4.3.93,14,14,0,0,0-1.64.71"/><path class="cls-9" d="M73.71,83c.92,5.24,2.77,9.86,6,13.23A18.56,18.56,0,0,0,91,101.73a29.76,29.76,0,0,0,8,0,18.56,18.56,0,0,0,11.33-5.54c3.19-3.37,5-8,6-13.23"/><path class="cls-9" d="M89.58,70H81a2.08,2.08,0,0,0-.71.13A2,2,0,0,0,79,72v2a4,4,0,0,0,4,4h3a6,6,0,0,0,6-6,2,2,0,0,0-2-2"/><path class="cls-9" d="M100.42,70H109a2.08,2.08,0,0,1,.71.13A2,2,0,0,1,111,72v.63h0V74a4,4,0,0,1-4,4h-3a6,6,0,0,1-6-6,2,2,0,0,1,2-2"/><polyline class="cls-9" points="89.58 70 90 70 100 70 100.42 70"/><path class="cls-9" d="M120.7,72.28a59,59,0,0,0,.82-9.78h0C121.53,51,117,47,121,39a7.2,7.2,0,0,1-7,0c2-2,2-6,2-6a59.11,59.11,0,0,1-22,4v0c-15.84.33-29,8.66-24.69,35.25h0"/><path class="cls-9" d="M77.36,71.93a125.21,125.21,0,0,1,2.53-14.49A90.18,90.18,0,0,0,95,59a90.18,90.18,0,0,0,15.11-1.56,125.21,125.21,0,0,1,2.53,14.49"/></g><g class="cls-10"><path class="cls-11" d="M82.84,65.53a16.24,16.24,0,0,1,3.05-.87,13.26,13.26,0,0,1,3.25-.21,1,1,0,1,1-.12,2l-.16,0A11.51,11.51,0,0,0,86,66.15a15.1,15.1,0,0,0-2.89.32h0a.5.5,0,0,1-.29-1Z"/></g><g class="cls-10"><path class="cls-11" d="M106.84,66.47a15.1,15.1,0,0,0-2.89-.32,11.51,11.51,0,0,0-2.81.28,1,1,0,0,1-.45-2l.16,0a13.26,13.26,0,0,1,3.25.21,16.24,16.24,0,0,1,3.05.87.5.5,0,0,1-.29,1Z"/></g><g class="cls-10"><path class="cls-11" d="M71.67,79.37a4.16,4.16,0,0,1-.91-1,3.14,3.14,0,0,1-.5-1.37,2.89,2.89,0,0,1,.25-1.54,4.52,4.52,0,0,1,.83-1.22,1,1,0,0,1,1.51,1.33l-.15.14,0,0a2.8,2.8,0,0,0-.61.56,1.28,1.28,0,0,0-.29.66,1.73,1.73,0,0,0,.11.83,3.14,3.14,0,0,0,.47.83l0,0a.5.5,0,0,1-.7.7Z"/></g><g class="cls-10"><path class="cls-11" d="M118.66,74.25a4.34,4.34,0,0,1,.8,1.25,3.37,3.37,0,0,1,.28,1.48,2.73,2.73,0,0,1-.47,1.42,3.93,3.93,0,0,1-.94,1,.5.5,0,0,1-.7-.7l0,0a2.77,2.77,0,0,0,.5-.81,1.33,1.33,0,0,0,.07-.78,1.8,1.8,0,0,0-.33-.71,2.48,2.48,0,0,0-.58-.57,1,1,0,1,1,1.28-1.55Z"/></g><circle class="cls-11" cx="104" cy="73" r="2"/><circle class="cls-11" cx="86" cy="73" r="2"/><path class="cls-9" d="M93,91.28s5,1.39,8-2.78"/></svg>