<svg id="icons" xmlns="http://www.w3.org/2000/svg" viewBox="0 0 190 190"><defs><style>.cls-1{fill:#ba9b85;}.cls-2{fill:#59392e;}.cls-3{fill:#e8345f;}.cls-4{fill:#425589;}.cls-5{fill:#f9e7d4;}.cls-6{fill:#eacdb2;}.cls-7{fill:#403e4c;}.cls-8{fill:#565466;}.cls-9{fill:#e89c42;}.cls-10{fill:#edd64a;}.cls-11{fill:#f7e174;}.cls-12{fill:#f2b066;}.cls-13{fill:none;stroke:#27272d;stroke-linecap:round;stroke-linejoin:round;stroke-width:2px;}.cls-14{opacity:0.24;}.cls-15{fill:#27272d;}.cls-16{fill:#f1bf9c;}.cls-17{fill:#fff;}</style></defs><title>farmer</title><g id="_Group_" data-name="&lt;Group&gt;"><path class="cls-1" d="M76,158c3.5-10.67,15.5-10.67,19,0Z"/><path class="cls-1" d="M114,158H95C98.5,147.33,110.5,147.33,114,158Z"/><path class="cls-2" d="M116.66,67c.15,1.3.24,2.64.28,4a12.59,12.59,0,0,0-3.59.68A30.32,30.32,0,0,0,113,67Z"/><path class="cls-2" d="M73.34,67H77a30.32,30.32,0,0,0-.39,4.68A12.59,12.59,0,0,0,73.06,71C73.1,69.64,73.19,68.3,73.34,67Z"/><path class="cls-3" d="M78.76,111l-.12,2.12-9.53,3.18L67,117c0-8,3.48-18.13,12.67-20.81A17.35,17.35,0,0,0,85,100v11Z"/><path class="cls-3" d="M101,101.37V111H89v-9.63a28.89,28.89,0,0,0,12,0Z"/><path class="cls-3" d="M111.24,111H105V100a17.35,17.35,0,0,0,5.33-3.83C119.52,98.87,123,109,123,117l-2.11-.7-9.53-3.18Z"/><path class="cls-4" d="M89,101.37V111H85V100A19.78,19.78,0,0,0,89,101.37Z"/><path class="cls-4" d="M105,100v11h-4v-9.63A19.78,19.78,0,0,0,105,100Z"/><path class="cls-4" d="M95,158c-3.5-10.67-15.5-10.67-19,0l1.59-27,.29-5,.76-12.88.12-2.12h32.48l.12,2.12.76,12.88.29,5L114,158C110.5,147.33,98.5,147.33,95,158Z"/><path class="cls-5" d="M78.64,113.12,77.88,126l-.29,5c-4.41-.15-8.59-4-8.59-8,0-2.43,0-4.66.11-6.7Z"/><path class="cls-5" d="M120.89,116.3c.08,2,.11,4.27.11,6.7,0,4-4.18,7.84-8.59,8l-.29-5-.76-12.88Z"/><path class="cls-5" d="M73.06,71a12.59,12.59,0,0,1,3.59.68A30.32,30.32,0,0,1,77,67H113a30.32,30.32,0,0,1,.39,4.68,12.59,12.59,0,0,1,3.59-.68H117a6,6,0,1,1-.71,12c-.91,5.23-2.77,9.85-6,13.23A17.35,17.35,0,0,1,105,100a19.78,19.78,0,0,1-4,1.35,28.89,28.89,0,0,1-12,0A19.78,19.78,0,0,1,85,100a17.35,17.35,0,0,1-5.33-3.83c-3.19-3.38-5-8-6-13.23A6,6,0,1,1,73,71Z"/><path class="cls-6" d="M116.22,83.42c-.06.34-.12.68-.19,1a24.33,24.33,0,0,1-5.7,11.86h0C106.91,99.91,102,102.1,95,102.1c-.88,0-1.72,0-2.54-.1a22.54,22.54,0,0,1-6.29-1.39A110.87,110.87,0,0,1,98,97.51c7.74-1.57,12.81-4.65,15.88-12.17A3.05,3.05,0,0,1,116.22,83.42Z"/><path class="cls-7" d="M121,63H69.11c4.16,0,5.83-2.58,7-6h37.78C115.07,60.45,116.76,63,121,63Z"/><path class="cls-8" d="M79.65,57q-.71,3-1.64,6h-8.9c4.16,0,5.83-2.58,7-6Z"/><path class="cls-9" d="M126,65a2,2,0,0,1-2,2H66a2,2,0,0,1-2-2,2,2,0,0,1,2-2h58A2,2,0,0,1,126,65Z"/><path class="cls-10" d="M113.89,57H76.11C78.55,49.9,78.83,39,95,39c.51,0,1,0,1.48,0C111.19,39.68,111.53,50.12,113.89,57Z"/><path class="cls-11" d="M96.48,39C88,42,81.11,48.31,79.78,57H76.11C78.55,49.9,78.83,39,95,39,95.51,39,96,39,96.48,39Z"/><path class="cls-12" d="M69.79,63l-.87,4H66a2,2,0,0,1-2-2,2,2,0,0,1,2-2Z"/><path class="cls-13" d="M76.65,71.68A12.59,12.59,0,0,0,73.06,71H73a6,6,0,1,0,.71,12"/><path class="cls-13" d="M113.35,71.68a12.59,12.59,0,0,1,3.59-.68H117a6,6,0,1,1-.71,12"/><path class="cls-13" d="M116.94,71c0-1.36-.13-2.7-.28-4"/><path class="cls-13" d="M73.34,67c-.15,1.3-.24,2.64-.28,4"/><path class="cls-13" d="M116.29,83c-.91,5.23-2.77,9.85-6,13.23A17.35,17.35,0,0,1,105,100a19.78,19.78,0,0,1-4,1.35,28.89,28.89,0,0,1-12,0A19.78,19.78,0,0,1,85,100a17.35,17.35,0,0,1-5.33-3.83c-3.19-3.38-5-8-6-13.23"/><path class="cls-13" d="M77,67a30.32,30.32,0,0,0-.39,4.68"/><path class="cls-13" d="M113.35,71.68A30.32,30.32,0,0,0,113,67"/><path class="cls-13" d="M121,63h3a2,2,0,0,1,2,2,2,2,0,0,1-2,2H66a2,2,0,0,1-2-2,2,2,0,0,1,2-2h55Z"/><polyline class="cls-13" points="76 158 77.59 130.99 77.88 126 78.64 113.12 78.76 111 79 107"/><polyline class="cls-13" points="111 107 111.24 111 111.36 113.12 112.12 126 112.41 130.99 114 158"/><polyline class="cls-13" points="111.24 111 105 111 101 111 89 111 85 111 78.76 111"/><line class="cls-13" x1="95" y1="158" x2="95" y2="134"/><path class="cls-13" d="M76,158c3.5-10.67,15.5-10.67,19,0Z"/><path class="cls-13" d="M95,158c3.5-10.67,15.5-10.67,19,0Z"/><path class="cls-13" d="M69.11,116.3c-.08,2-.11,4.27-.11,6.7,0,4,4.18,7.84,8.59,8"/><path class="cls-13" d="M79.67,96.19C70.48,98.87,67,109,67,117l2.11-.7,9.53-3.18"/><path class="cls-13" d="M120.89,116.3c.08,2,.11,4.27.11,6.7,0,4-4.18,7.84-8.59,8"/><path class="cls-13" d="M110.33,96.19C119.52,98.87,123,109,123,117l-2.11-.7-9.53-3.18"/><line class="cls-13" x1="89" y1="111" x2="89" y2="101.37"/><line class="cls-13" x1="85" y1="111" x2="85" y2="100.02"/><line class="cls-13" x1="101" y1="111" x2="101" y2="101.37"/><line class="cls-13" x1="105" y1="111" x2="105" y2="100.02"/><path class="cls-13" d="M121,63c-4.24,0-5.93-2.55-7.11-6-2.44-7.1-2.72-18-18.89-18S78.55,49.9,76.11,57c-1.18,3.45-2.87,6-7.11,6"/><line class="cls-13" x1="113.89" y1="57" x2="76.11" y2="57"/></g><g class="cls-14"><path class="cls-15" d="M71.67,79.37a4.16,4.16,0,0,1-.91-1,3.14,3.14,0,0,1-.5-1.37,2.89,2.89,0,0,1,.25-1.54,4.52,4.52,0,0,1,.83-1.22,1,1,0,0,1,1.51,1.33l-.15.14,0,0a2.8,2.8,0,0,0-.61.56,1.28,1.28,0,0,0-.29.66,1.73,1.73,0,0,0,.11.83,3.14,3.14,0,0,0,.47.83l0,0a.5.5,0,0,1-.7.7Z"/></g><g class="cls-14"><path class="cls-15" d="M118.66,74.25a4.34,4.34,0,0,1,.8,1.25,3.37,3.37,0,0,1,.28,1.48,2.73,2.73,0,0,1-.47,1.42,3.93,3.93,0,0,1-.94,1,.5.5,0,0,1-.7-.7l0,0a2.77,2.77,0,0,0,.5-.81,1.33,1.33,0,0,0,.07-.78,1.8,1.8,0,0,0-.33-.71,2.48,2.48,0,0,0-.58-.57,1,1,0,1,1,1.28-1.55Z"/></g><ellipse class="cls-15" cx="104" cy="73" rx="2" ry="3"/><ellipse class="cls-15" cx="86" cy="73" rx="2" ry="3"/><path class="cls-16" d="M95.17,93.1a7.41,7.41,0,0,1-7-6.67c0-2.76,3.13-3.33,7-3.33s7,.57,7,3.33A7.41,7.41,0,0,1,95.17,93.1Z"/><path class="cls-17" d="M102.17,86.43c0-2.76-3.13-3.33-7-3.33s-7,.57-7,3.33a4.35,4.35,0,0,0,.06.67h13.88A4.35,4.35,0,0,0,102.17,86.43Z"/><path class="cls-15" d="M95.17,93.1c3.69,0,6.52-3.32,6.94-6H88.23C88.65,89.78,91.48,93.1,95.17,93.1Z"/><path class="cls-13" d="M102.17,86.43a7,7,0,0,1-14,0c0-2.76,3.13-3.33,7-3.33S102.17,83.67,102.17,86.43Z"/></svg>