<svg id="icons" xmlns="http://www.w3.org/2000/svg" viewBox="0 0 190 190"><defs><style>.cls-1{fill:#403e4c;}.cls-2{fill:#565466;}.cls-3{fill:#ba9b85;}.cls-4{fill:#a58067;}.cls-5{fill:#595863;}.cls-6{fill:#edd64a;}.cls-7{fill:#e8345f;}.cls-8{fill:#ef507e;}.cls-9{fill:#f7e174;}.cls-10{fill:none;stroke:#27272d;stroke-linecap:round;stroke-linejoin:round;stroke-width:2px;}.cls-11{opacity:0.24;}.cls-12{fill:#27272d;}.cls-13{fill:#fff;}</style></defs><title>firewoman</title><g id="_Group_" data-name="&lt;Group&gt;"><path class="cls-1" d="M116.66,67c.15,1.3.24,2.64.28,4a12.59,12.59,0,0,0-3.59.68A30.32,30.32,0,0,0,113,67Z"/><path class="cls-1" d="M117.88,82.93c.73,2.72,2,6,4.12,8.07,0,0-2,3-5,1,0,0,1,4,4,6a9.55,9.55,0,0,1-3.47,2.6,14.62,14.62,0,0,0-7.2-4.41c3.19-3.38,5-8,6-13.23a6,6,0,0,0,.71,0A5.14,5.14,0,0,0,117.88,82.93Z"/><path class="cls-1" d="M79.67,96.19a16.2,16.2,0,0,0-4.24,1.88,13,13,0,0,0-3,2.53A9.55,9.55,0,0,1,69,98c3-2,4-6,4-6-3,2-5-1-5-1,2.11-2.11,3.39-5.35,4.12-8.07A5.14,5.14,0,0,0,73,83a6,6,0,0,0,.71,0c.11.66.24,1.3.38,1.93A24,24,0,0,0,79.67,96.19Z"/><path class="cls-2" d="M77,67a30.32,30.32,0,0,0-.39,4.68c-.43-.14-.86-.26-1.28-.36A11.16,11.16,0,0,0,73.06,71c0-1.36.13-2.7.28-4Z"/><path class="cls-3" d="M78.16,121.28,77.88,126l-.29,5c-3.94-.13-7.69-3.21-8.44-6.71Z"/><path class="cls-3" d="M111.84,121.28l9,3c-.75,3.5-4.5,6.58-8.44,6.71l-.29-5Z"/><path class="cls-3" d="M117,71a6,6,0,0,1,.88,11.93A5.14,5.14,0,0,1,117,83a6,6,0,0,1-.71,0c-.91,5.23-2.77,9.85-6,13.23A17.35,17.35,0,0,1,105,100a19.78,19.78,0,0,1-4,1.35,28.89,28.89,0,0,1-12,0A19.78,19.78,0,0,1,85,100a17.35,17.35,0,0,1-5.33-3.83c-3.19-3.38-5-8-6-13.23A6,6,0,0,1,73,83a5.14,5.14,0,0,1-.88-.07A6,6,0,0,1,73,71h.06a12.59,12.59,0,0,1,3.59.68A30.32,30.32,0,0,1,77,67H113a30.32,30.32,0,0,1,.39,4.68,12.59,12.59,0,0,1,3.59-.68Z"/><path class="cls-4" d="M116.22,83.42c-.06.34-.12.68-.19,1a24.33,24.33,0,0,1-5.7,11.86h0C106.91,99.91,102,102.1,95,102.1c-.88,0-1.72,0-2.54-.1a22.54,22.54,0,0,1-6.29-1.39A110.87,110.87,0,0,1,98,97.51c7.74-1.57,12.81-4.65,15.88-12.17A3.05,3.05,0,0,1,116.22,83.42Z"/><path class="cls-5" d="M76,158c3.5-10.67,15.5-10.67,19,0Z"/><path class="cls-5" d="M114,158H95C98.5,147.33,110.5,147.33,114,158Z"/><path class="cls-6" d="M114,158c-3.5-10.67-15.5-10.67-19,0-3.5-10.67-15.5-10.67-19,0l1.59-27,.29-5h34.24l.29,5Z"/><path class="cls-7" d="M122.84,118.73q.16,2.91.16,6.27l-2.15-.72-9-3-.35-6Z"/><path class="cls-7" d="M78.75,111.21,67.5,114.63c.74-6.49,2.32-11,5-14a14.62,14.62,0,0,1,7.2-4.41A17.35,17.35,0,0,0,85,100v26H77.88l.28-4.72.35-6Z"/><path class="cls-7" d="M78.51,115.28l-.35,6-9,3L67,125q0-3.36.16-6.27Z"/><path class="cls-7" d="M101,101.37V126H89V101.37a28.89,28.89,0,0,0,12,0Z"/><path class="cls-7" d="M111.25,111.21l.24,4.07.35,6,.28,4.72H105V100a17.35,17.35,0,0,0,5.33-3.83,14.62,14.62,0,0,1,7.2,4.41c2.65,3,4.23,7.54,5,14Z"/><path class="cls-6" d="M78.75,111.21l-.24,4.07-11.35,3.45c.08-1.45.2-2.81.34-4.1Z"/><path class="cls-6" d="M89,101.37V126H85V100A19.78,19.78,0,0,0,89,101.37Z"/><path class="cls-6" d="M122.84,118.73l-11.35-3.45-.24-4.07,11.25,3.42C122.64,115.92,122.76,117.28,122.84,118.73Z"/><path class="cls-6" d="M105,100v26h-4V101.37A19.78,19.78,0,0,0,105,100Z"/><rect class="cls-7" x="68" y="63" width="54" height="4"/><path class="cls-6" d="M101,39.73V63H89V39.73a25,25,0,0,1,11.83,0Z"/><path class="cls-7" d="M89,39.73V63H71C71,52,79.3,42.07,89,39.73Z"/><path class="cls-7" d="M101,39.73C110.7,42.07,119,52,119,63H101Z"/><path class="cls-8" d="M89,39.73v4.49a27.57,27.57,0,0,0-7.23,6.1A45.48,45.48,0,0,0,74.13,63a29.55,29.55,0,0,0-1.21,4H68V63h3C71,52,79.3,42.07,89,39.73Z"/><path class="cls-9" d="M100.83,39.69l-.25.07A41,41,0,0,0,89,44.22V39.73a25,25,0,0,1,11.83,0Z"/><path class="cls-2" d="M75.43,98.07a13,13,0,0,0-3,2.53A9.55,9.55,0,0,1,69,98c3-2,4-6,4-6-3,2-5-1-5-1,2.11-2.11,3.39-5.35,4.12-8.07A5.14,5.14,0,0,0,73,83a6,6,0,0,0,.71,0c.11.66.24,1.3.38,1.93A22.37,22.37,0,0,0,72,90c1,.66,3.56.65,4,2C76.63,93.91,76.08,96.17,75.43,98.07Z"/><path class="cls-10" d="M113.35,71.68a12.59,12.59,0,0,1,3.59-.68H117a6,6,0,0,1,.88,11.93A5.14,5.14,0,0,1,117,83a6,6,0,0,1-.71,0"/><path class="cls-10" d="M116.94,71c0-1.36-.13-2.7-.28-4"/><path class="cls-10" d="M73.34,67c-.15,1.3-.24,2.64-.28,4"/><path class="cls-10" d="M116.29,83c-.91,5.23-2.77,9.85-6,13.23A17.35,17.35,0,0,1,105,100a19.78,19.78,0,0,1-4,1.35,28.89,28.89,0,0,1-12,0A19.78,19.78,0,0,1,85,100a17.35,17.35,0,0,1-5.33-3.83c-3.19-3.38-5-8-6-13.23A6,6,0,0,1,73,83a5.14,5.14,0,0,1-.88-.07A6,6,0,0,1,73,71h.06a12.59,12.59,0,0,1,3.59.68"/><path class="cls-10" d="M77,67a30.32,30.32,0,0,0-.39,4.68"/><path class="cls-10" d="M113.35,71.68A30.32,30.32,0,0,0,113,67"/><polyline class="cls-10" points="119 63 122 63 122 67 116.66 67 112.96 67 77.04 67 73.34 67 68 67 68 63 71 63"/><path class="cls-10" d="M119,63H71c0-11,8.3-20.93,18-23.27a25,25,0,0,1,12,0C110.7,42.07,119,52,119,63Z"/><line class="cls-10" x1="89" y1="63" x2="89" y2="39.73"/><line class="cls-10" x1="101" y1="39.73" x2="101" y2="63"/><path class="cls-10" d="M69.15,124.28c.75,3.5,4.5,6.58,8.44,6.71"/><path class="cls-10" d="M112.41,131c3.94-.13,7.69-3.21,8.44-6.71"/><path class="cls-10" d="M79.67,96.19a14.62,14.62,0,0,0-7.2,4.41c-2.65,3-4.23,7.54-5,14-.14,1.29-.26,2.65-.34,4.1Q67,121.64,67,125l2.15-.72,9-3"/><polyline class="cls-10" points="76 158 77.59 130.99 77.88 126 78.16 121.28 78.51 115.28 78.75 111.21 79 107"/><polyline class="cls-10" points="111 107 111.25 111.21 111.49 115.28 111.84 121.28 112.12 126 112.41 130.99 114 158"/><path class="cls-10" d="M111.84,121.28l9,3L123,125q0-3.36-.16-6.27c-.08-1.45-.2-2.81-.34-4.1-.74-6.49-2.32-11-5-14a14.62,14.62,0,0,0-7.2-4.41"/><polyline class="cls-10" points="112.12 126 105 126 101 126 89 126 85 126 77.88 126"/><line class="cls-10" x1="95" y1="158" x2="95" y2="138"/><path class="cls-10" d="M76,158c3.5-10.67,15.5-10.67,19,0Z"/><path class="cls-10" d="M95,158c3.5-10.67,15.5-10.67,19,0Z"/><line class="cls-10" x1="78.51" y1="115.28" x2="67.16" y2="118.73"/><line class="cls-10" x1="78.75" y1="111.21" x2="67.5" y2="114.63"/><line class="cls-10" x1="122.84" y1="118.73" x2="111.49" y2="115.28"/><line class="cls-10" x1="122.5" y1="114.63" x2="111.25" y2="111.21"/><line class="cls-10" x1="89" y1="126" x2="89" y2="101.37"/><line class="cls-10" x1="85" y1="126" x2="85" y2="100.02"/><line class="cls-10" x1="105" y1="126" x2="105" y2="100.02"/><line class="cls-10" x1="101" y1="126" x2="101" y2="101.37"/><path class="cls-10" d="M72.47,100.6A9.55,9.55,0,0,1,69,98c3-2,4-6,4-6-3,2-5-1-5-1,2.11-2.11,3.39-5.35,4.12-8.07"/><path class="cls-10" d="M117.88,82.93c.73,2.72,2,6,4.12,8.07,0,0-2,3-5,1,0,0,1,4,4,6a9.55,9.55,0,0,1-3.47,2.6"/></g><g class="cls-11"><path class="cls-12" d="M71.67,79.37a4.16,4.16,0,0,1-.91-1,3.14,3.14,0,0,1-.5-1.37,2.89,2.89,0,0,1,.25-1.54,4.52,4.52,0,0,1,.83-1.22,1,1,0,1,1,1.51,1.33l-.15.14,0,0a2.8,2.8,0,0,0-.61.56,1.28,1.28,0,0,0-.29.66,1.73,1.73,0,0,0,.11.83,3.14,3.14,0,0,0,.47.83l0,0a.5.5,0,0,1-.7.7Z"/></g><g class="cls-11"><path class="cls-12" d="M118.66,74.25a4.33,4.33,0,0,1,.8,1.25,3.37,3.37,0,0,1,.28,1.48,2.73,2.73,0,0,1-.47,1.42,3.93,3.93,0,0,1-.94,1,.5.5,0,0,1-.7-.7l0,0a2.77,2.77,0,0,0,.5-.81,1.33,1.33,0,0,0,.07-.78,1.8,1.8,0,0,0-.33-.71,2.48,2.48,0,0,0-.58-.57,1,1,0,1,1,1.28-1.55Z"/></g><circle class="cls-12" cx="104" cy="73" r="3"/><circle class="cls-12" cx="86" cy="73" r="3"/><path class="cls-13" d="M102,87s-8,2-14-1c0,0,1,7,8,7C102,93,102,87,102,87Z"/><path class="cls-10" d="M102,87s-8,2-14-1c0,0,1,7,8,7C102,93,102,87,102,87Z"/></svg>