<svg id="icons" xmlns="http://www.w3.org/2000/svg" viewBox="0 0 190 190"><defs><style>.cls-1{fill:#686772;}.cls-2{fill:#ef8c48;}.cls-3{fill:#403e4c;}.cls-4{fill:#b5b3c9;}.cls-5{fill:#595863;}.cls-6{fill:#ba9b85;}.cls-7{fill:#7e7e89;}.cls-8{fill:none;stroke:#27272d;stroke-linecap:round;stroke-linejoin:round;stroke-width:2px;}</style></defs><title>welder</title><g id="_Group_" data-name="&lt;Group&gt;"><path class="cls-1" d="M78.16,121.28,77.88,126l-.29,5c-3.94-.13-7.69-3.21-8.44-6.71Z"/><path class="cls-1" d="M111.84,121.28l9,3c-.75,3.5-4.5,6.58-8.44,6.71l-.29-5Z"/><path class="cls-2" d="M76,158c3.5-10.67,15.5-10.67,19,0Z"/><path class="cls-2" d="M114,158H95C98.5,147.33,110.5,147.33,114,158Z"/><rect class="cls-3" x="83" y="63" width="24" height="8"/><path class="cls-4" d="M111,59V75H79V59Zm-4,12V63H83v8Z"/><path class="cls-5" d="M89,101.86V106H85v-4.43C86.21,101.69,87.54,101.79,89,101.86Z"/><path class="cls-5" d="M105,101.57V106h-4v-4.14C102.46,101.79,103.79,101.69,105,101.57Z"/><path class="cls-6" d="M95,145v13c-3.5-10.67-15.5-10.67-19,0l1.59-27,.29-5H82l-1,19Z"/><path class="cls-6" d="M95,158V145h14l-1-19h4.09l.29,5L114,158C110.5,147.33,98.5,147.33,95,158Z"/><path class="cls-6" d="M101,101.86V106H89v-4.14c1.8.09,3.79.14,6,.14S99.2,102,101,101.86Z"/><path class="cls-6" d="M78.16,121.28l-9,3h0L67,125c0-14.18,2.09-22.08,7.32-26.16a4.19,4.19,0,0,0,1.33.82A35.2,35.2,0,0,0,85,101.57V106H83l-1,20H77.88Z"/><path class="cls-6" d="M115.68,98.84c5.23,4.08,7.32,12,7.32,26.16l-2.14-.72h0l-9-3,.28,4.72H108l-1-20h-2v-4.43a35.2,35.2,0,0,0,9.35-1.91A4.19,4.19,0,0,0,115.68,98.84Z"/><polygon class="cls-1" points="108.03 126 109 145 95 145 81 145 81.97 126 83 106 85 106 89 106 101 106 105 106 107 106 108.03 126"/><path class="cls-1" d="M114.35,44.34C111.58,43.24,106,42,95,42c-3.83,0-7,.15-9.62.39a36,36,0,0,0-9.73,1.95A4,4,0,0,0,73,48V96a3.77,3.77,0,0,0,1.32,2.85,4.19,4.19,0,0,0,1.33.82,27.32,27.32,0,0,0,5.76,1.45c1.06.18,2.25.33,3.59.46s2.54.22,4,.29c1.8.09,3.79.14,6,.14s4.2,0,6-.14c1.46-.07,2.79-.17,4-.29a35.2,35.2,0,0,0,9.35-1.91,4.19,4.19,0,0,0,1.33-.82A3.77,3.77,0,0,0,117,96V48A4,4,0,0,0,114.35,44.34ZM111,75H79V59h32Z"/><path class="cls-7" d="M79.4,53.31A38.22,38.22,0,0,0,79.15,59c0,1.86.1,3.73.08,5.53,0,3.51-.12,7-.1,10.47a100.52,100.52,0,0,0,1,14.67c.54,3.55,1.6,7.65,1.31,11.44a27.32,27.32,0,0,1-5.76-1.45,4.19,4.19,0,0,1-1.33-.82A3.77,3.77,0,0,1,73,96V48a4,4,0,0,1,2.65-3.67,36,36,0,0,1,9.73-1.95,1.18,1.18,0,0,1-.11.19C83.19,45.82,80,49.39,79.4,53.31Z"/><path class="cls-8" d="M69.15,124.28c.75,3.5,4.5,6.58,8.44,6.71"/><path class="cls-8" d="M112.41,131c3.94-.13,7.69-3.21,8.44-6.71"/><path class="cls-8" d="M74.32,98.84C69.09,102.92,67,110.82,67,125l2.14-.72h0l9-3"/><polyline class="cls-8" points="114 158 112.41 130.99 112.12 126 111.84 121.28 111 107"/><polyline class="cls-8" points="79 107 78.16 121.28 77.88 126 77.59 130.99 76 158"/><path class="cls-8" d="M115.68,98.84c5.23,4.08,7.32,12,7.32,26.16l-2.14-.72h0l-9-3"/><line class="cls-8" x1="112.12" y1="126" x2="108.03" y2="126"/><line class="cls-8" x1="81.97" y1="126" x2="77.88" y2="126"/><line class="cls-8" x1="95" y1="158" x2="95" y2="145"/><path class="cls-8" d="M76,158c3.5-10.67,15.5-10.67,19,0Z"/><path class="cls-8" d="M95,158c3.5-10.67,15.5-10.67,19,0Z"/><polyline class="cls-8" points="89 101.86 89 106 85 106 85 101.57"/><line class="cls-8" x1="101" y1="106" x2="101" y2="101.86"/><line class="cls-8" x1="105" y1="101.57" x2="105" y2="106"/><polyline class="cls-8" points="85 106 83 106 81.97 126 81 145 95 145 109 145 108.03 126 107 106 105 106 101 106 89 106"/><path class="cls-8" d="M74.32,98.84A3.77,3.77,0,0,1,73,96V48a4,4,0,0,1,2.65-3.67C78.42,43.24,84,42,95,42s16.58,1.24,19.35,2.34A4,4,0,0,1,117,48V96a3.77,3.77,0,0,1-1.32,2.85,4.19,4.19,0,0,1-1.33.82,35.2,35.2,0,0,1-9.35,1.91c-1.21.12-2.54.22-4,.29-1.8.09-3.79.14-6,.14s-4.2,0-6-.14c-1.46-.07-2.79-.17-4-.29a35.2,35.2,0,0,1-9.35-1.91A4.19,4.19,0,0,1,74.32,98.84Z"/><rect class="cls-8" x="83" y="63" width="24" height="8"/><rect class="cls-8" x="79" y="59" width="32" height="16"/></g></svg>