<svg id="icons" xmlns="http://www.w3.org/2000/svg" viewBox="0 0 190 190"><defs><style>.cls-1{fill:#59392e;}.cls-2{fill:#fff;}.cls-3{fill:#a9eada;}.cls-4{fill:#f1bf9c;}.cls-5{fill:#6d5041;}.cls-6{fill:#dba47f;}.cls-7{fill:none;stroke:#27272d;stroke-linecap:round;stroke-linejoin:round;stroke-width:2px;}.cls-8{fill:#50a0ea;}.cls-9{fill:#27272d;}.cls-10{opacity:0.24;}</style></defs><title>doctor</title><g id="_Group_" data-name="&lt;Group&gt;"><path class="cls-1" d="M122,61s3,5.23.56,13.76A6,6,0,0,0,117,71h-.06a13.28,13.28,0,0,0-4.15.88C111.82,59.29,108,57,108,57c-2,4-8,4-8,4,3-4,2-7,2-7-5,5-13,3-13,3a16.65,16.65,0,0,0,6-5C79.4,52,76.68,64,76.55,71.65A12.47,12.47,0,0,0,73.06,71H73a5.94,5.94,0,0,0-2,.34,6.09,6.09,0,0,0-3.33,2.88C66.88,68.57,68.89,62.34,69,62a20.59,20.59,0,0,0-8,6C60,57,71,47,71,47a12.14,12.14,0,0,0-10,3c6-18.77,22.14-17.16,30.48-12.55h0l.59.35C99.57,34.33,115.8,29.57,127,46c0,0-5-2-8,1,0,0,10,6,11,17A12,12,0,0,0,122,61Z"/><path class="cls-2" d="M95,158H76C79.5,147.33,91.5,147.33,95,158Z"/><path class="cls-2" d="M114,158H95C98.5,147.33,110.5,147.33,114,158Z"/><path class="cls-3" d="M111.84,121.28l.28,4.72H99V101.73a18.56,18.56,0,0,0,11.33-5.54C119.52,98.87,123,106.71,123,125l-2.15-.72Z"/><path class="cls-4" d="M91,101.73a18.56,18.56,0,0,1-11.33-5.54c-3.19-3.37-5-8-6-13.23A6,6,0,0,1,67,77a5.88,5.88,0,0,1,.68-2.77h0A6,6,0,0,1,73,71h.06a12.47,12.47,0,0,1,3.49.65C76.68,64,79.4,52,95,52a16.65,16.65,0,0,1-6,5s8,2,13-3c0,0,1,3-2,7,0,0,6,0,8-4,0,0,3.82,2.29,4.79,14.88a13.28,13.28,0,0,1,4.15-.88H117a6,6,0,0,1,5.56,3.76A5.77,5.77,0,0,1,123,77a6,6,0,0,1-6.71,6c-.92,5.24-2.77,9.86-6,13.23A18.56,18.56,0,0,1,99,101.73a29.76,29.76,0,0,1-8,0Z"/><path class="cls-4" d="M111.84,121.28l9,3c-.75,3.5-4.5,6.58-8.44,6.71l-.29-5Z"/><path class="cls-3" d="M95,158c-3.5-10.67-15.5-10.67-19,0l1.59-27,.29-5h34.24l.29,5L114,158C110.5,147.33,98.5,147.33,95,158Z"/><path class="cls-2" d="M99,101.73V126H91V101.73a29.76,29.76,0,0,0,8,0Z"/><path class="cls-3" d="M78.16,121.28l-9,3L67,125c0-18.29,3.48-26.13,12.67-28.81A18.56,18.56,0,0,0,91,101.73V126H77.88Z"/><path class="cls-4" d="M78.16,121.28,77.88,126l-.29,5c-3.94-.13-7.69-3.21-8.44-6.71Z"/><path class="cls-5" d="M91.48,37.45a.93.93,0,0,1-.32.06C83,37,73,40,70.3,42.75c.29,0,.58,0,.88,0C74.94,42.67,76,47,74,49.55a58.7,58.7,0,0,0-3.63,5.13,4.69,4.69,0,0,1,2.75,5Q71.86,65.47,71,71.34a6.09,6.09,0,0,0-3.33,2.88C66.88,68.57,68.89,62.34,69,62a20.59,20.59,0,0,0-8,6C60,57,71,47,71,47a12.14,12.14,0,0,0-10,3C67,31.23,83.14,32.84,91.48,37.45Z"/><path class="cls-6" d="M116.19,83.34c-.06.34-.12.68-.19,1a24.33,24.33,0,0,1-5.7,11.86h0C106.88,99.83,101.93,102,95,102c-.88,0-1.72,0-2.54-.1a22.54,22.54,0,0,1-6.29-1.39A110.87,110.87,0,0,1,98,97.43c7.74-1.57,12.81-4.65,15.88-12.17A3.05,3.05,0,0,1,116.19,83.34Z"/><path class="cls-7" d="M69.15,124.28c.75,3.5,4.5,6.58,8.44,6.71"/><path class="cls-7" d="M112.41,131c3.94-.13,7.69-3.21,8.44-6.71"/><path class="cls-7" d="M79.67,96.19C70.48,98.87,67,106.71,67,125l2.15-.72,9-3"/><polyline class="cls-7" points="76 158 77.59 130.99 77.88 126 78.16 121.28 79 107"/><polyline class="cls-7" points="111 107 111.84 121.28 112.12 126 112.41 130.99 114 158"/><path class="cls-7" d="M67.68,74.23A5.88,5.88,0,0,0,67,77a6,6,0,0,0,6.71,6"/><path class="cls-7" d="M76.55,71.65A12.47,12.47,0,0,0,73.06,71H73a6,6,0,0,0-5.32,3.22"/><path class="cls-7" d="M112.79,71.88a13.28,13.28,0,0,1,4.15-.88H117a6,6,0,0,1,5.56,3.76A5.77,5.77,0,0,1,123,77a6,6,0,0,1-6.71,6"/><path class="cls-7" d="M73.71,83c.92,5.24,2.77,9.86,6,13.23A18.56,18.56,0,0,0,91,101.73a29.76,29.76,0,0,0,8,0,18.56,18.56,0,0,0,11.33-5.54c3.19-3.37,5-8,6-13.23"/><path class="cls-7" d="M111.84,121.28l9,3L123,125c0-18.29-3.48-26.13-12.67-28.81"/><polyline class="cls-7" points="77.88 126 91 126 99 126 112.12 126"/><line class="cls-7" x1="95" y1="158" x2="95" y2="138"/><path class="cls-7" d="M76,158c3.5-10.67,15.5-10.67,19,0Z"/><path class="cls-7" d="M95,158c3.5-10.67,15.5-10.67,19,0Z"/><polyline class="cls-7" points="91 126 91 101.73 91 101.72"/><polyline class="cls-7" points="99 126 99 101.73 99 101.72"/><path class="cls-7" d="M76.55,71.65C76.68,64,79.4,52,95,52a16.65,16.65,0,0,1-6,5s8,2,13-3c0,0,1,3-2,7,0,0,6,0,8-4,0,0,3.82,2.29,4.79,14.88"/><path class="cls-7" d="M67.68,74.23h0C66.88,68.57,68.89,62.34,69,62"/><path class="cls-7" d="M69,62h0a20.59,20.59,0,0,0-8,6C60,57,71,47,71,47a12.14,12.14,0,0,0-10,3c6.12-19.23,22.94-17.07,31.08-12.2"/><path class="cls-7" d="M122.56,74.76C125,66.23,122,61,122,61a12,12,0,0,1,8,3c-1-11-11-17-11-17,3-3,8-1,8-1-11.2-16.43-27.43-11.67-34.92-8.2A32.5,32.5,0,0,0,88,40"/><rect class="cls-8" x="102" y="130" width="6" height="8"/><rect class="cls-7" x="102" y="130" width="6" height="8"/><line class="cls-7" x1="105" y1="126" x2="105" y2="130"/><line class="cls-7" x1="85" y1="109" x2="85" y2="113"/><line class="cls-7" x1="87" y1="111" x2="83" y2="111"/></g><path class="cls-9" d="M89.9,90.15a6,6,0,0,0,10.19,0,15.77,15.77,0,0,1-10.19,0Z"/><path class="cls-2" d="M95,88.2A17.1,17.1,0,0,1,89,87a6,6,0,0,0,.9,3.15,15.77,15.77,0,0,0,10.19,0A6,6,0,0,0,101,87,17.1,17.1,0,0,1,95,88.2Z"/><path class="cls-7" d="M101,87a6,6,0,1,1-12,0,15.6,15.6,0,0,0,12,0Z"/><g class="cls-10"><path class="cls-9" d="M81.78,67.55a7.83,7.83,0,0,1,1.56-.6,13.21,13.21,0,0,1,1.58-.33,18.1,18.1,0,0,1,3.2-.17h0a1,1,0,1,1-.06,2l-.16,0A16.37,16.37,0,0,0,85,68.11a11.86,11.86,0,0,0-1.44.06,7.17,7.17,0,0,0-1.35.27l-.06,0a.5.5,0,0,1-.39-.91Z"/></g><g class="cls-10"><path class="cls-9" d="M107.78,68.45a7.17,7.17,0,0,0-1.35-.27,11.86,11.86,0,0,0-1.44-.06,16.37,16.37,0,0,0-2.88.32,1,1,0,0,1-.39-2l.16,0h0a18.1,18.1,0,0,1,3.2.17,13.21,13.21,0,0,1,1.58.33,7.83,7.83,0,0,1,1.56.6.5.5,0,0,1-.39.91Z"/></g><g class="cls-10"><path class="cls-9" d="M71.67,79.37a4.16,4.16,0,0,1-.91-1,3.14,3.14,0,0,1-.5-1.37,2.89,2.89,0,0,1,.25-1.54,4.52,4.52,0,0,1,.83-1.22,1,1,0,1,1,1.51,1.33l-.15.14,0,0a2.8,2.8,0,0,0-.61.56,1.28,1.28,0,0,0-.29.66,1.73,1.73,0,0,0,.11.83,3.14,3.14,0,0,0,.47.83l0,0a.5.5,0,0,1-.7.7Z"/></g><g class="cls-10"><path class="cls-9" d="M118.66,74.25a4.34,4.34,0,0,1,.8,1.25,3.37,3.37,0,0,1,.28,1.48,2.73,2.73,0,0,1-.47,1.42,3.93,3.93,0,0,1-.94,1,.5.5,0,0,1-.7-.7l0,0a2.77,2.77,0,0,0,.5-.81,1.33,1.33,0,0,0,.07-.78,1.8,1.8,0,0,0-.33-.71,2.48,2.48,0,0,0-.58-.57,1,1,0,1,1,1.28-1.55Z"/></g><ellipse class="cls-9" cx="104" cy="73" rx="2" ry="3"/><ellipse class="cls-9" cx="86" cy="73" rx="2" ry="3"/></svg>