<svg id="icons" xmlns="http://www.w3.org/2000/svg" viewBox="0 0 190 190"><defs><style>.cls-1{fill:#edd64a;}.cls-2{fill:#ceccc8;}.cls-3{fill:#e0dcd7;}.cls-4{fill:#ba9b85;}.cls-5{fill:#50a0ea;}.cls-6{fill:#846a61;}.cls-7{fill:#725650;}.cls-8{fill:#595863;}.cls-9{fill:#27272d;}.cls-10{fill:#6ab6ef;}.cls-11{fill:none;stroke:#27272d;stroke-linecap:round;stroke-linejoin:round;stroke-width:2px;}.cls-12{opacity:0.24;}</style></defs><title>police-officer</title><g id="_Group_" data-name="&lt;Group&gt;"><path class="cls-1" d="M99,47c1,2-4,3-4,3s-5-1-4-3c1.41-2.83,1-4,0-6a8.5,8.5,0,0,0,8,0C98,43,97.59,44.17,99,47Z"/><path class="cls-2" d="M77.73,64a28.08,28.08,0,0,0-1.08,7.73A12.59,12.59,0,0,0,73.06,71h-.18a6,6,0,0,0-2.87.8,34.41,34.41,0,0,1,1.13-9.66l.07-.14a2,2,0,0,0,2.13-.4c.3-.28.65-.59,1.06-.92l.17.21,1.62,1.94A3.76,3.76,0,0,0,77.73,64Z"/><path class="cls-3" d="M74.57,60.89a23.57,23.57,0,0,1-.89,5.56,29.35,29.35,0,0,0-.8,4.55,6,6,0,0,0-2.87.8,34.41,34.41,0,0,1,1.13-9.66l.07-.14a2,2,0,0,0,2.13-.4c.3-.28.65-.59,1.06-.92Z"/><path class="cls-2" d="M118.86,62.14A34.41,34.41,0,0,1,120,71.8a5.94,5.94,0,0,0-3-.8h-.06a12.59,12.59,0,0,0-3.59.68A28.08,28.08,0,0,0,112.27,64a3.76,3.76,0,0,0,1.54-1.12l1.79-2.15c.41.33.76.64,1.06.92a2,2,0,0,0,2.13.4Z"/><path class="cls-4" d="M95,158H76C79.5,147.33,91.5,147.33,95,158Z"/><path class="cls-4" d="M114,158H95C98.5,147.33,110.5,147.33,114,158Z"/><path class="cls-5" d="M123.47,54.59,120.64,52a6,6,0,0,1-1.36-4.5l.47-4.22a2,2,0,0,0-2-2.22c-4.36-.1-14.24-1-20.73-6.85A17.08,17.08,0,0,1,95,32c-6.24,7.8-17.94,8.91-22.8,9a2,2,0,0,0-2,2.22l.47,4.22A6,6,0,0,1,69.36,52l-2.83,2.63a2,2,0,0,0-.06,2.88l4.09,4.09a2,2,0,0,0,2.78,0c.3-.28.65-.59,1.06-.92l.46-.37a28,28,0,0,1,7.54-4.15h0a37.94,37.94,0,0,1,25.18,0h0a27.83,27.83,0,0,1,8,4.52c.41.33.76.64,1.06.92a2,2,0,0,0,2.78,0l4.09-4.09A2,2,0,0,0,123.47,54.59ZM95,50s-5-1-4-3c1.41-2.83,1-4,0-6a8.5,8.5,0,0,0,8,0c-1,2-1.41,3.17,0,6C100,49,95,50,95,50Z"/><path class="cls-5" d="M111.84,121.28l.28,4.72H95V102c7,0,11.91-2.19,15.33-5.81C119.52,98.87,123,106.71,123,125l-2.15-.72Z"/><path class="cls-6" d="M120,71.8A6,6,0,0,1,116.29,83c-.92,5.24-2.77,9.86-6,13.23C106.91,99.81,102,102,95,102s-11.91-2.19-15.33-5.81c-3.19-3.37-5-8-6-13.23A6,6,0,1,1,73,71h.06a12.59,12.59,0,0,1,3.59.68A28.08,28.08,0,0,1,77.73,64a4,4,0,0,0,2.75.1A47.57,47.57,0,0,1,95,62a47.57,47.57,0,0,1,14.52,2,4,4,0,0,0,2.75-.1,28.08,28.08,0,0,1,1.08,7.73,12.59,12.59,0,0,1,3.59-.68H117A5.94,5.94,0,0,1,120,71.8Z"/><path class="cls-7" d="M116.22,83.42c-.06.34-.12.68-.19,1a24.33,24.33,0,0,1-5.7,11.86h0C106.91,99.91,102,102.1,95,102.1c-.88,0-1.72,0-2.54-.1a22.54,22.54,0,0,1-6.29-1.39A110.87,110.87,0,0,1,98,97.51c7.74-1.57,12.81-4.65,15.88-12.17A3.05,3.05,0,0,1,116.22,83.42Z"/><path class="cls-6" d="M111.84,121.28l9,3c-.75,3.5-4.5,6.58-8.44,6.71l-.29-5Z"/><path class="cls-8" d="M115.6,60.68l-1.79,2.15A3.76,3.76,0,0,1,112.27,64a4,4,0,0,1-2.75.1A47.57,47.57,0,0,0,95,62a47.57,47.57,0,0,0-14.52,2,4,4,0,0,1-2.75-.1,3.76,3.76,0,0,1-1.54-1.12L74.4,60.68a27.83,27.83,0,0,1,8-4.52h0a37.94,37.94,0,0,1,25.18,0h0A27.83,27.83,0,0,1,115.6,60.68Z"/><path class="cls-8" d="M95,158c-3.5-10.67-15.5-10.67-19,0l1.59-27,.29-5h34.24l.29,5L114,158C110.5,147.33,98.5,147.33,95,158Z"/><path class="cls-5" d="M78.16,121.28l-9,3h0L67,125c0-18.29,3.48-26.13,12.67-28.81C83.09,99.81,88,102,95,102v24H77.88Z"/><path class="cls-6" d="M78.16,121.28,77.88,126l-.29,5c-3.94-.13-7.69-3.21-8.44-6.71Z"/><circle class="cls-9" cx="99" cy="108" r="1"/><circle class="cls-9" cx="99" cy="120" r="1"/><circle class="cls-9" cx="99" cy="114" r="1"/><path class="cls-10" d="M97.07,34.17c-3.31,4.92-10.19,8.22-15.45,9.28-1.47.3-4.81-.15-6,.64-1.75,1.12-1.07,4.5-1.37,6.19a8,8,0,0,1-1.67,4,2.69,2.69,0,0,1-.45.42,1.61,1.61,0,0,0-.38,2.19,23.16,23.16,0,0,0,3.16,3.45l-.46.37c-.41.33-.76.64-1.06.92a2,2,0,0,1-2.78,0l-4.09-4.09a2,2,0,0,1,.06-2.88L69.36,52a6,6,0,0,0,1.36-4.5l-.47-4.22a2,2,0,0,1,2-2.22c4.86-.11,16.56-1.22,22.8-9A17.08,17.08,0,0,0,97.07,34.17Z"/><path class="cls-11" d="M77.59,131c-3.94-.13-7.69-3.21-8.44-6.71"/><path class="cls-11" d="M112.41,131c3.94-.13,7.69-3.21,8.44-6.71"/><path class="cls-11" d="M79.67,96.19C70.48,98.87,67,106.71,67,125l2.14-.72h0l9-3"/><polyline class="cls-11" points="76 158 77.59 130.99 77.88 126 78.16 121.28 79 107"/><polyline class="cls-11" points="111 107 111.84 121.28 112.12 126 112.41 130.99 114 158"/><path class="cls-11" d="M76.65,71.68A12.59,12.59,0,0,0,73.06,71H73a5.94,5.94,0,0,0-3,.8A6,6,0,0,0,73.71,83"/><path class="cls-11" d="M113.35,71.68a12.59,12.59,0,0,1,3.59-.68H117a5.94,5.94,0,0,1,3,.8A6,6,0,0,1,116.29,83"/><path class="cls-11" d="M73.71,83c.92,5.24,2.77,9.86,6,13.23C83.09,99.81,88,102,95,102s11.91-2.19,15.33-5.81c3.19-3.37,5-8,6-13.23"/><path class="cls-11" d="M111.84,121.28l9,3L123,125c0-18.29-3.48-26.13-12.67-28.81"/><polyline class="cls-11" points="112.12 126 95 126 77.88 126"/><line class="cls-11" x1="95" y1="158" x2="95" y2="138"/><path class="cls-11" d="M76,158c3.5-10.67,15.5-10.67,19,0Z"/><path class="cls-11" d="M95,158c3.5-10.67,15.5-10.67,19,0Z"/><path class="cls-11" d="M77.73,64a28.08,28.08,0,0,0-1.08,7.73"/><path class="cls-11" d="M113.35,71.68A28.08,28.08,0,0,0,112.27,64"/><path class="cls-11" d="M70,71.8a34.41,34.41,0,0,1,1.13-9.66"/><path class="cls-11" d="M118.86,62.14A34.41,34.41,0,0,1,120,71.8"/><path class="cls-11" d="M118.79,62a2,2,0,0,0,.65-.44l4.09-4.09a2,2,0,0,0-.06-2.88L120.64,52a6,6,0,0,1-1.36-4.5l.47-4.22a2,2,0,0,0-2-2.22c-4.86-.11-16.56-1.22-22.8-9-6.24,7.8-17.94,8.91-22.8,9a2,2,0,0,0-2,2.22l.47,4.22A6,6,0,0,1,69.36,52l-2.83,2.63a2,2,0,0,0-.06,2.88l4.09,4.09a2,2,0,0,0,2.78,0c.3-.28.65-.59,1.06-.92a27.83,27.83,0,0,1,8-4.52h0a37.94,37.94,0,0,1,25.18,0h0a27.83,27.83,0,0,1,8,4.52c.41.33.76.64,1.06.92A2,2,0,0,0,118.79,62Z"/><path class="cls-11" d="M115.6,60.68l-1.79,2.15A3.76,3.76,0,0,1,112.27,64a4,4,0,0,1-2.75.1A47.57,47.57,0,0,0,95,62a47.57,47.57,0,0,0-14.52,2,4,4,0,0,1-2.75-.1,3.76,3.76,0,0,1-1.54-1.12L74.4,60.68h0"/><line class="cls-11" x1="95" y1="126" x2="95" y2="102"/><path class="cls-11" d="M99,47c-1.41-2.83-1-4,0-6a8.5,8.5,0,0,1-8,0c1,2,1.41,3.17,0,6-1,2,4,3,4,3S100,49,99,47Z"/></g><g class="cls-12"><path class="cls-9" d="M81.78,68.55a7.83,7.83,0,0,1,1.56-.6,13.21,13.21,0,0,1,1.58-.33,18.1,18.1,0,0,1,3.2-.17h0a1,1,0,1,1-.06,2l-.16,0A16.37,16.37,0,0,0,85,69.11a11.86,11.86,0,0,0-1.44.06,7.17,7.17,0,0,0-1.35.27l-.06,0a.5.5,0,0,1-.39-.91Z"/></g><g class="cls-12"><path class="cls-9" d="M107.58,68.27a4.38,4.38,0,0,0-1.13-.92,3.78,3.78,0,0,0-1.35-.48,3.86,3.86,0,0,0-1.39,0,5.81,5.81,0,0,0-1.35.46l0,0a1,1,0,1,1-.82-1.83l.13,0a7.64,7.64,0,0,1,1.9-.34,5.48,5.48,0,0,1,1.94.25,5.17,5.17,0,0,1,1.69.9,5.38,5.38,0,0,1,1.26,1.41.5.5,0,0,1-.8.59Z"/></g><g class="cls-12"><path class="cls-9" d="M71.67,79.37a4.16,4.16,0,0,1-.91-1,3.14,3.14,0,0,1-.5-1.37,2.89,2.89,0,0,1,.25-1.54,4.52,4.52,0,0,1,.83-1.22,1,1,0,1,1,1.51,1.33l-.15.14,0,0a2.8,2.8,0,0,0-.61.56,1.28,1.28,0,0,0-.29.66,1.73,1.73,0,0,0,.11.83,3.14,3.14,0,0,0,.47.83l0,0a.5.5,0,0,1-.7.7Z"/></g><g class="cls-12"><path class="cls-9" d="M118.66,74.25a4.34,4.34,0,0,1,.8,1.25,3.37,3.37,0,0,1,.28,1.48,2.73,2.73,0,0,1-.47,1.42,3.93,3.93,0,0,1-.94,1,.5.5,0,0,1-.7-.7l0,0a2.77,2.77,0,0,0,.5-.81,1.33,1.33,0,0,0,.07-.78,1.8,1.8,0,0,0-.33-.71,2.48,2.48,0,0,0-.58-.57,1,1,0,1,1,1.28-1.55Z"/></g><circle class="cls-9" cx="104" cy="73" r="3"/><ellipse class="cls-9" cx="86" cy="73" rx="3" ry="1"/><path class="cls-11" d="M95,91s6,1,8-4"/></svg>