<svg id="icons" xmlns="http://www.w3.org/2000/svg" viewBox="0 0 190 190"><defs><style>.cls-1{fill:#59392e;}.cls-2{fill:#f1bf9c;}.cls-3{fill:#dba47f;}.cls-4{fill:#595863;}.cls-5{fill:#81aa87;}.cls-6{fill:#6d5041;}.cls-7{fill:#7b8763;}.cls-8{fill:#b8c99b;}.cls-9{fill:none;stroke:#27272d;stroke-linecap:round;stroke-linejoin:round;stroke-width:2px;}.cls-10{fill:#27272d;}.cls-11{fill:#fff;}.cls-12{opacity:0.24;}</style></defs><title>military-officer</title><g id="_Group_" data-name="&lt;Group&gt;"><path class="cls-1" d="M79.67,96.19a14.72,14.72,0,0,0-7.07,4.25h0a15.86,15.86,0,0,0-2.77,4.46A6.68,6.68,0,0,1,64,103a76.17,76.17,0,0,0,6-7c-4,3-6,0-6,0a19.88,19.88,0,0,0,8.07-13.08A4.73,4.73,0,0,0,73,83a6,6,0,0,0,.71,0c.18,1,.39,2,.65,3A23.2,23.2,0,0,0,79.67,96.19Z"/><path class="cls-1" d="M73.34,67H77a30.32,30.32,0,0,0-.39,4.68A12.59,12.59,0,0,0,73.06,71C73.1,69.64,73.19,68.3,73.34,67Z"/><path class="cls-1" d="M116.66,67c.15,1.3.24,2.64.28,4a12.59,12.59,0,0,0-3.59.68A30.32,30.32,0,0,0,113,67Z"/><path class="cls-1" d="M120,96a76.16,76.16,0,0,0,6,7,6.68,6.68,0,0,1-5.82,1.91,14.39,14.39,0,0,0-9.85-8.72c3.19-3.38,5-8,6-13.23a6,6,0,0,0,.71,0,4.73,4.73,0,0,0,.93-.08A19.88,19.88,0,0,0,126,96S124,99,120,96Z"/><path class="cls-2" d="M78.16,121.28,77.88,126l-.29,5c-3.94-.13-7.69-3.21-8.44-6.71Z"/><path class="cls-2" d="M111.84,121.28l9,3c-.75,3.5-4.5,6.58-8.44,6.71l-.29-5Z"/><path class="cls-2" d="M73.71,83A6,6,0,0,1,73,83a4.73,4.73,0,0,1-.93-.08A6,6,0,0,1,73,71h.06a12.59,12.59,0,0,1,3.59.68A30.32,30.32,0,0,1,77,67H113a30.32,30.32,0,0,1,.39,4.68,12.59,12.59,0,0,1,3.59-.68H117a6,6,0,0,1,.93,11.92A4.73,4.73,0,0,1,117,83a6,6,0,0,1-.71,0c-.91,5.23-2.77,9.85-6,13.23a17.93,17.93,0,0,1-9.33,5.18,28.89,28.89,0,0,1-12,0,17.93,17.93,0,0,1-9.33-5.18C76.48,92.81,74.62,88.19,73.71,83Z"/><path class="cls-3" d="M116.22,83.42c-.06.34-.12.68-.19,1a24.33,24.33,0,0,1-5.7,11.86h0C106.91,99.91,102,102.1,95,102.1c-.88,0-1.72,0-2.54-.1a22.54,22.54,0,0,1-6.29-1.39A110.87,110.87,0,0,1,98,97.51c7.74-1.57,12.81-4.65,15.88-12.17A3.05,3.05,0,0,1,116.22,83.42Z"/><path class="cls-4" d="M114,158H95C98.5,147.33,110.5,147.33,114,158Z"/><path class="cls-4" d="M76,158c3.5-10.67,15.5-10.67,19,0Z"/><path class="cls-5" d="M76,158c.15-.45.32-.88.49-1.29a3.8,3.8,0,0,1-.43.22Z"/><path class="cls-6" d="M73.09,95.29a18.08,18.08,0,0,1-.49,5.15h0a15.86,15.86,0,0,0-2.77,4.46A6.68,6.68,0,0,1,64,103a76.17,76.17,0,0,0,6-7c-4,3-6,0-6,0a19.88,19.88,0,0,0,8.07-13.08A4.73,4.73,0,0,0,73,83a6,6,0,0,0,.71,0c.18,1,.39,2,.65,3a40.93,40.93,0,0,1-2.69,6.32A4.68,4.68,0,0,1,73.09,95.29Z"/><rect class="cls-5" x="68" y="63" width="54" height="4"/><path class="cls-5" d="M119,63H71a23.35,23.35,0,0,1,2.15-9.66l0-.09h0A25.12,25.12,0,0,1,85.25,41,20.61,20.61,0,0,1,89,39.73a25,25,0,0,1,12,0,22.18,22.18,0,0,1,8.8,4.48,25.43,25.43,0,0,1,6.13,7.33A23.52,23.52,0,0,1,119,63Z"/><path class="cls-5" d="M123,125l-2.15-.72-8.7-2.9h0l-.3-.1.28,4.72H77.88l.28-4.72-7.6,2.53-1.41.47L67,125c0-8.81.81-15.2,2.68-19.74a3.64,3.64,0,0,1,.14-.35,14.39,14.39,0,0,1,9.85-8.72A17.93,17.93,0,0,0,89,101.37c.46.1.93.2,1.41.27A27.57,27.57,0,0,0,95,102a27.09,27.09,0,0,0,6-.63,20.1,20.1,0,0,0,4.65-1.66,17.18,17.18,0,0,0,4.68-3.52,16.59,16.59,0,0,1,1.68.58l.21.08a14.21,14.21,0,0,1,8,8.06,29.48,29.48,0,0,1,1.85,6.45c.17,1,.32,2,.45,3.07A93.85,93.85,0,0,1,123,125Z"/><path class="cls-5" d="M114,158a11.77,11.77,0,0,0-.48-1.26c-3-7-10.05-8.57-14.79-4.55A12.53,12.53,0,0,0,95,158c-1.31-4-3.82-6.51-6.63-7.5-4.21-1.5-9.07.37-11.61,5.59A15.82,15.82,0,0,0,76,158l.13-2.15,1-16.87.47-8,.29-5h34.24l.29,5,.61,10.4.52,8.86.37,6.19Z"/><path class="cls-7" d="M109.8,44.21c-1.24.9-2.46,1.84-3.65,2.8a3.42,3.42,0,0,0-1.05,1.19,3.19,3.19,0,0,0-.18,1.19,12.26,12.26,0,0,1-.2,2.91A3,3,0,0,1,103,54.48a4.13,4.13,0,0,1-1.82.08,30.43,30.43,0,0,1-3.43-.62,12,12,0,0,1-5.5-2.6,10.92,10.92,0,0,1-2.13-3,13,13,0,0,1-1.33-3.77A11.81,11.81,0,0,1,89,39.73a25,25,0,0,1,12,0A22.18,22.18,0,0,1,109.8,44.21Z"/><path class="cls-8" d="M84.7,54.27a5.48,5.48,0,0,1-3.82,1.94,10.49,10.49,0,0,1-1.48.08,8,8,0,0,1-3.86-.89,10.83,10.83,0,0,1-2.39-2.06l-.05-.06.1,0h0A25.12,25.12,0,0,1,85.25,41c.16,3,.34,6.62.4,8.16C85.72,51,85.75,52.86,84.7,54.27Z"/><path class="cls-8" d="M122,63v4H111.06a1.19,1.19,0,0,1-.1-.32c-.14-.9.64-1.74.53-2.65a2.62,2.62,0,0,0-.45-1c-.09-.13-.18-.26-.26-.4a6.79,6.79,0,0,1,.41-7.18c.75-1.11,2.89-3.32,4.74-3.88A23.52,23.52,0,0,1,119,63Z"/><path class="cls-8" d="M101.67,67H83.16c-.13-1.23,1.21-2.92,2.07-3.68l.39-.32a9.3,9.3,0,0,1,.9-.65,27.29,27.29,0,0,1,2.93-1.56,16.53,16.53,0,0,1,4.7-1.69,5.55,5.55,0,0,1,4.67,1.26A6.83,6.83,0,0,1,100.34,63l.27.79,1,3C101.62,66.85,101.65,66.92,101.67,67Z"/><path class="cls-7" d="M87.34,67H68V63h3a23.35,23.35,0,0,1,2.15-9.66l-.05-.06.1,0h0a9,9,0,0,1,5.93.08,2.75,2.75,0,0,1,1.66,1.47,3.08,3.08,0,0,1,.09,1.42,4.1,4.1,0,0,0,0,2c.41,1,1.61,1.39,2.61,1.82a7.66,7.66,0,0,1,3,2.29,5.12,5.12,0,0,1,.42.65,4.92,4.92,0,0,1,.41.87A4.8,4.8,0,0,1,87.34,67Z"/><path class="cls-8" d="M74.58,111.8c-.23,1.51-1.35,2.71-2.11,4a9,9,0,0,0-1.13,3.63c-.07.85,0,1.71-.16,2.55a5.52,5.52,0,0,1-.62,1.79l-1.41.47L67,125c0-8.81.81-15.2,2.68-19.74,2.26,0,4.5,3.16,4.85,5A4.63,4.63,0,0,1,74.58,111.8Z"/><path class="cls-7" d="M76.23,116.52a5.21,5.21,0,0,1,0-4.46A8.82,8.82,0,0,0,77,110.4c.29-1.21-.39-2.47-.16-3.69a3.21,3.21,0,0,1,2-2.24,6.57,6.57,0,0,1,3.11-.3,5,5,0,0,1,2.14.61A6.12,6.12,0,0,1,85.39,106l3,3.4a5.7,5.7,0,0,1,.82,1.09,4,4,0,0,1,.38,2.12,7.51,7.51,0,0,1-3.48,5.67C82.92,120.35,78.13,120.37,76.23,116.52Z"/><path class="cls-8" d="M105.85,103a9.57,9.57,0,0,1-.31,3.43c-.32.78-.92,1.42-1.26,2.2a10.24,10.24,0,0,0-.54,2.64,12.22,12.22,0,0,1-1,3.4,3,3,0,0,1-1.51,1.71,3.18,3.18,0,0,1-1.65,0,5.63,5.63,0,0,1-3.34-1.32,5.06,5.06,0,0,1-.94-4.1,5.41,5.41,0,0,0-.22-3.27,5.64,5.64,0,0,0-2.24-1.78c-1.33-.77-2.78-2-2.55-3.73a3.07,3.07,0,0,1,.13-.56A27.57,27.57,0,0,0,95,102a27.09,27.09,0,0,0,6-.63,20.1,20.1,0,0,0,4.65-1.66,3,3,0,0,1,.18.65A15.29,15.29,0,0,1,105.85,103Z"/><path class="cls-7" d="M122,111.36c-2.92.5-3.29,5-8.08,2.65a5.32,5.32,0,0,1-2.21-1.36c-.77-1.08-.45-2.56-.59-3.88-.13-1.14-.63-2.21-.82-3.35a11.15,11.15,0,0,1,0-2.71c.09-1,.2-2.06.34-3.08a4.22,4.22,0,0,1,.78-2.28c.1-.12.32-.34.57-.58l.21.08a14.21,14.21,0,0,1,8,8.06A29.48,29.48,0,0,1,122,111.36Z"/><path class="cls-7" d="M113,141.39c-.41-.22-.83-.44-1.23-.68a3.71,3.71,0,0,1-2.05-2.8c0-.62.18-1.38-.3-1.78a1.61,1.61,0,0,0-.6-.26,21.11,21.11,0,0,1-2.71-.93,7.5,7.5,0,0,1-2.27-1.33,8.38,8.38,0,0,1-1.61-2.29,15.22,15.22,0,0,1-1.71-4.23,6.62,6.62,0,0,1-.13-1.09,5.69,5.69,0,0,1,.75-3.34,8.7,8.7,0,0,1,3.45-2.83,6.49,6.49,0,0,1,3.85-1.07,6.28,6.28,0,0,1,3.68,2.62l-.3-.1.28,4.72.29,5Z"/><path class="cls-8" d="M92,126.48a8.1,8.1,0,0,0-3.72-1.09,7.83,7.83,0,0,0-4.78,1,4.32,4.32,0,0,0-2.1,4.18c.27,1.59,1.59,2.76,2.37,4.17.64,1.17.92,2.53,1.65,3.65a7.36,7.36,0,0,0,5.05,2.94,8.36,8.36,0,0,0,4.31-.31,5.37,5.37,0,0,0,3.12-2.89,5.66,5.66,0,0,0-.42-4.7c-.79-1.48-2.27-2.22-3.15-3.55S93.41,127.38,92,126.48Z"/><path class="cls-8" d="M114.62,155.42a2.28,2.28,0,0,1-.71,1,1.93,1.93,0,0,1-.36.28l0,0c-3-7-10.05-8.57-14.79-4.55a2.9,2.9,0,0,1-.21-2.31,7.42,7.42,0,0,1,1.88-2.68,7.2,7.2,0,0,1,1.71-1.46c1.76-1,4-.27,5.58,1a2.55,2.55,0,0,0,1.4.73c.22,0,.43-.06.65-.08a3.59,3.59,0,0,1,3.09,1.78,10.06,10.06,0,0,1,.71,1.12,9.94,9.94,0,0,1,1.17,3.94A3.38,3.38,0,0,1,114.62,155.42Z"/><path class="cls-7" d="M88.37,150.5c-4.21-1.5-9.07.37-11.61,5.59a3.41,3.41,0,0,1-.63-.24l1-16.87a2.82,2.82,0,0,1,1.86-.72,4.66,4.66,0,0,1,2.17.77,6.42,6.42,0,0,1,3,3c.46,1.26.16,2.65.23,4a1.15,1.15,0,0,0,.18.66,1.6,1.6,0,0,0,.82.41,5,5,0,0,1,2.71,3Z"/><g id="_Group_2" data-name="&lt;Group&gt;"><path class="cls-9" d="M70,96a76.16,76.16,0,0,1-6,7,6.68,6.68,0,0,0,5.82,1.91"/><path class="cls-9" d="M70,96h0c-4,3-6,0-6,0a19.88,19.88,0,0,0,8.07-13.08"/><path class="cls-9" d="M69.15,124.28c.75,3.5,4.5,6.58,8.44,6.71"/><path class="cls-9" d="M79.67,96.19a14.39,14.39,0,0,0-9.85,8.72C67.85,109.48,67,116,67,125l2.15-.72,9-3"/><path class="cls-9" d="M120.18,104.91A6.68,6.68,0,0,0,126,103a76.16,76.16,0,0,1-6-7"/><path class="cls-9" d="M117.93,82.92A19.88,19.88,0,0,0,126,96s-2,3-6,0h0"/><path class="cls-9" d="M112.41,131c3.94-.13,7.69-3.21,8.44-6.71"/><path class="cls-9" d="M111.84,121.28l9,3L123,125c0-9-.85-15.52-2.82-20.09a14.39,14.39,0,0,0-9.85-8.72"/><polyline class="cls-9" points="76 158 77.59 130.99 77.88 126 78.16 121.28 79 107"/><polyline class="cls-9" points="111 107 111.84 121.28 112.12 126 112.41 130.99 114 158"/><line class="cls-9" x1="112.12" y1="126" x2="77.88" y2="126"/><line class="cls-9" x1="95" y1="158" x2="95" y2="138"/><path class="cls-9" d="M76,158c3.5-10.67,15.5-10.67,19,0Z"/><path class="cls-9" d="M95,158c3.5-10.67,15.5-10.67,19,0Z"/><path class="cls-9" d="M116.94,71c0-1.36-.13-2.7-.28-4"/><path class="cls-9" d="M73.34,67c-.15,1.3-.24,2.64-.28,4"/><path class="cls-9" d="M113.35,71.68a12.59,12.59,0,0,1,3.59-.68H117a6,6,0,0,1,.93,11.92A4.73,4.73,0,0,1,117,83a6,6,0,0,1-.71,0c-.91,5.23-2.77,9.85-6,13.23a17.93,17.93,0,0,1-9.33,5.18,28.89,28.89,0,0,1-12,0,17.93,17.93,0,0,1-9.33-5.18c-3.19-3.38-5-8-6-13.23A6,6,0,0,1,73,83a4.73,4.73,0,0,1-.93-.08A6,6,0,0,1,73,71h.06a12.59,12.59,0,0,1,3.59.68"/><path class="cls-9" d="M77,67a30.32,30.32,0,0,0-.39,4.68"/><path class="cls-9" d="M113.35,71.68A30.32,30.32,0,0,0,113,67"/><polyline class="cls-9" points="119 63 122 63 122 67 116.66 67 112.96 67 77.04 67 73.34 67 68 67 68 63 71 63"/><path class="cls-9" d="M119,63H71c0-11,8.3-20.93,18-23.27a25,25,0,0,1,12,0C110.7,42.07,119,52,119,63Z"/></g></g><path class="cls-10" d="M89.07,88.34a3.85,3.85,0,0,0,3,4.47,9.57,9.57,0,0,0,8.17-2.1,2.18,2.18,0,0,0,.7-1.32A83.14,83.14,0,0,0,89.15,88C89.12,88.11,89.09,88.22,89.07,88.34Z"/><path class="cls-11" d="M100.22,87.39a12.53,12.53,0,0,0-1.3-.88c-4-2.32-8.23-1.93-9.55.87a3.88,3.88,0,0,0-.22.61A83.14,83.14,0,0,1,101,89.39,2.11,2.11,0,0,0,100.22,87.39Z"/><g class="cls-12"><path class="cls-10" d="M117.67,78.63a3.14,3.14,0,0,0,.47-.83,1.73,1.73,0,0,0,.11-.83,1.28,1.28,0,0,0-.29-.66,2.8,2.8,0,0,0-.61-.56l0,0a1,1,0,0,1,1.2-1.62,1.06,1.06,0,0,1,.16.14,4.52,4.52,0,0,1,.83,1.22,2.89,2.89,0,0,1,.25,1.54,3.14,3.14,0,0,1-.5,1.37,4.16,4.16,0,0,1-.91,1,.5.5,0,0,1-.7-.7Z"/></g><g class="cls-12"><path class="cls-10" d="M72.66,75.75a2.48,2.48,0,0,0-.58.57,1.8,1.8,0,0,0-.33.71,1.33,1.33,0,0,0,.07.78,2.76,2.76,0,0,0,.5.81l0,0a.5.5,0,0,1-.7.71,3.93,3.93,0,0,1-.94-1A2.73,2.73,0,0,1,70.26,77a3.37,3.37,0,0,1,.28-1.48,4.34,4.34,0,0,1,.8-1.25l.05-.06a1,1,0,0,1,1.5,1.37A1,1,0,0,1,72.66,75.75Z"/></g><ellipse class="cls-10" cx="86" cy="73" rx="2" ry="3"/><ellipse class="cls-10" cx="104" cy="73" rx="2" ry="3"/><path class="cls-9" d="M100.26,90.72a9.57,9.57,0,0,1-8.17,2.1,3.85,3.85,0,0,1-3-4.47,4,4,0,0,1,.31-1c1.31-2.8,5.59-3.2,9.55-.87a12.52,12.52,0,0,1,1.31.88A2.2,2.2,0,0,1,100.26,90.72Z"/></svg>