<svg id="icons" xmlns="http://www.w3.org/2000/svg" viewBox="0 0 190 190"><defs><style>.cls-1{fill:#403e4c;}.cls-2{fill:#ba9b85;}.cls-3{fill:#5ecc3a;}.cls-4{fill:#f9e7d4;}.cls-5{fill:#eacdb2;}.cls-6{fill:#e89c42;}.cls-7{fill:#425589;}.cls-8{fill:#f2b26d;}.cls-9{fill:none;stroke:#27272d;stroke-linecap:round;stroke-linejoin:round;stroke-width:2px;}.cls-10{opacity:0.24;}.cls-11{fill:#27272d;}</style></defs><title>tech-support</title><g id="_Group_" data-name="&lt;Group&gt;"><path class="cls-1" d="M101,91.88a.49.49,0,0,1,0,.12c0,1.66-1.79,3-4,3s-4-1.34-4-3,1.79-3,4-3S100.91,90.28,101,91.88Z"/><path class="cls-1" d="M73,74v7a2,2,0,0,1-2,2H69a4,4,0,0,1-4-4V75a4,4,0,0,1,4-4h2.2A2,2,0,0,1,73,73Z"/><path class="cls-1" d="M125,75v4a4,4,0,0,1-4,4h-2a2,2,0,0,1-2-2V73a2,2,0,0,1,1.8-2H121a4,4,0,0,1,4,4Z"/><path class="cls-2" d="M114,158H95C98.5,147.33,110.5,147.33,114,158Z"/><path class="cls-3" d="M111.84,121.28l.28,4.72H77.88l.28-4.72-9,3L67,125c0-18.29,3.48-26.13,12.67-28.81C83.09,99.81,88,102,95,102s11.91-2.19,15.33-5.81C119.52,98.87,123,106.71,123,125l-2.14-.72h0Z"/><path class="cls-4" d="M111.84,121.28l9,3c-.75,3.5-4.5,6.58-8.44,6.71l-.29-5Z"/><path class="cls-4" d="M101,91.88c-.08-1.6-1.83-2.88-4-2.88s-4,1.34-4,3,1.79,3,4,3,4-1.34,4-3A.49.49,0,0,0,101,91.88Zm14.93-7.09a23.87,23.87,0,0,1-5.59,11.4C106.91,99.81,102,102,95,102s-11.91-2.19-15.33-5.81c-3.19-3.37-5-8-6-13.23A53,53,0,0,1,73,74q0-1.52.06-3a12.82,12.82,0,0,1,3.62.69c.35-8.34,3-11.69,3-11.69,10,4,15-2,15-2-7,0-11-6,0-6,15.68,0,18.29,12.08,18.36,19.77a13.2,13.2,0,0,1,3.87-.77h1.86a2,2,0,0,0-1.8,2v8a2,2,0,0,0,.59,1.41L117,83A12,12,0,0,1,115.92,84.79Z"/><path class="cls-5" d="M116.22,83.42c-.06.34-.12.68-.19,1a24.33,24.33,0,0,1-5.7,11.86h0C106.91,99.91,102,102.1,95,102.1c-.88,0-1.72,0-2.54-.1a22.54,22.54,0,0,1-6.29-1.39A110.87,110.87,0,0,1,98,97.51c7.74-1.57,12.81-4.65,15.88-12.17A3.05,3.05,0,0,1,116.22,83.42Z"/><path class="cls-6" d="M122.82,71.44A4,4,0,0,0,121,71h-4.06a13.2,13.2,0,0,0-3.87.77C113,64.08,110.39,52,94.71,52c-11,0-7,6,0,6,0,0-5,6-15,2,0,0-2.68,3.35-3,11.69A12.82,12.82,0,0,0,73.06,71Q73,72.48,73,74V73a2,2,0,0,0-1.8-2H69a4,4,0,0,0-1.9.48C64,61.67,65,46.69,77,39a10.82,10.82,0,0,0-6-4s16.86-7.1,34.69,1.28c1.1.51,2.21,1.08,3.31,1.72a11.91,11.91,0,0,0-2-6C113.58,32,130.78,47.92,122.82,71.44Z"/><path class="cls-7" d="M95,158c-3.5-10.67-15.5-10.67-19,0l1.59-27,.29-5h34.24l.29,5L114,158C110.5,147.33,98.5,147.33,95,158Z"/><path class="cls-2" d="M95,158H76C79.5,147.33,91.5,147.33,95,158Z"/><path class="cls-4" d="M78.16,121.28,77.88,126l-.29,5c-3.94-.13-7.69-3.21-8.44-6.71Z"/><path class="cls-8" d="M105.69,36.28a4.42,4.42,0,0,1-4,1.41c-5.85-.85-12-1.69-18-1.19a4.12,4.12,0,0,1-1.89,4.33C70.64,46.76,69.38,59.51,70.61,71H69a4,4,0,0,0-1.9.48C64,61.67,65,46.69,77,39a10.82,10.82,0,0,0-6-4S87.86,27.9,105.69,36.28Z"/><path class="cls-9" d="M69.15,124.28c.75,3.5,4.5,6.58,8.44,6.71"/><path class="cls-9" d="M112.41,131c3.94-.13,7.69-3.21,8.44-6.71"/><path class="cls-9" d="M79.67,96.19C70.48,98.87,67,106.71,67,125l2.15-.72,9-3"/><polyline class="cls-9" points="76 158 77.59 130.99 77.88 126 78.16 121.28 79 107"/><polyline class="cls-9" points="111 107 111.84 121.28 112.12 126 112.41 130.99 114 158"/><path class="cls-9" d="M73,71h.06a12.82,12.82,0,0,1,3.62.69"/><path class="cls-9" d="M113.07,71.77a13.2,13.2,0,0,1,3.87-.77H117"/><path class="cls-9" d="M73.06,71Q73,72.48,73,74a53,53,0,0,0,.71,9c.92,5.24,2.77,9.86,6,13.23C83.09,99.81,88,102,95,102s11.91-2.19,15.33-5.81a23.87,23.87,0,0,0,5.59-11.4"/><path class="cls-9" d="M111.84,121.28l9,3h0L123,125c0-18.29-3.48-26.13-12.67-28.81"/><line class="cls-9" x1="112.12" y1="126" x2="77.88" y2="126"/><line class="cls-9" x1="95" y1="158" x2="95" y2="138"/><path class="cls-9" d="M76,158c3.5-10.67,15.5-10.67,19,0Z"/><path class="cls-9" d="M95,158c3.5-10.67,15.5-10.67,19,0Z"/><path class="cls-9" d="M72,71c-2.41-15.21,4.41-27,23-27s25.44,11.79,23,27"/><path class="cls-9" d="M73,74v7a2,2,0,0,1-2,2H69a4,4,0,0,1-4-4V75a4,4,0,0,1,4-4h2.2A2,2,0,0,1,73,73Z"/><path class="cls-9" d="M117.59,82.41A2,2,0,0,0,119,83h2a4,4,0,0,0,4-4V75a4,4,0,0,0-4-4h-2.2a2,2,0,0,0-1.8,2v8A2,2,0,0,0,117.59,82.41Z"/><path class="cls-9" d="M101,91.88c6.66-.53,12-2.89,14.93-7.09A12,12,0,0,0,117,83"/><path class="cls-9" d="M101,92c0,1.66-1.79,3-4,3s-4-1.34-4-3,1.79-3,4-3,3.91,1.28,4,2.88A.49.49,0,0,1,101,92Z"/><path class="cls-9" d="M76.68,71.69c.35-8.34,3-11.69,3-11.69,10,4,15-2,15-2-7,0-11-6,0-6,15.68,0,18.29,12.08,18.36,19.77"/><path class="cls-9" d="M67.1,71.48C64,61.67,65,46.69,77,39a10.82,10.82,0,0,0-6-4s19-8,38,3a11.91,11.91,0,0,0-2-6c6.58,0,23.78,15.92,15.82,39.44"/></g><g class="cls-10"><path class="cls-11" d="M81.58,67.73a5.37,5.37,0,0,1,1.26-1.41,5.17,5.17,0,0,1,1.69-.9,5.48,5.48,0,0,1,1.94-.25,7.64,7.64,0,0,1,1.9.34,1,1,0,0,1-.55,1.93l-.13,0,0,0a5.81,5.81,0,0,0-1.35-.46,3.86,3.86,0,0,0-1.39,0,3.78,3.78,0,0,0-1.35.48,4.38,4.38,0,0,0-1.13.92l0,0a.5.5,0,0,1-.8-.59Z"/></g><g class="cls-10"><path class="cls-11" d="M107.58,66.27a4.38,4.38,0,0,0-1.13-.92,3.78,3.78,0,0,0-1.35-.48,3.86,3.86,0,0,0-1.39,0,5.81,5.81,0,0,0-1.35.46l0,0a1,1,0,1,1-.82-1.83l.13,0a7.64,7.64,0,0,1,1.9-.34,5.48,5.48,0,0,1,1.94.25,5.17,5.17,0,0,1,1.69.9,5.37,5.37,0,0,1,1.26,1.41.5.5,0,0,1-.8.59Z"/></g><circle class="cls-11" cx="104" cy="73" r="3"/><circle class="cls-11" cx="86" cy="73" r="3"/></svg>