<svg width="58" height="58" viewBox="0 0 58 58" fill="none" xmlns="http://www.w3.org/2000/svg">
  <path d="M57 30H49C48.92 23.67 48 19.94 46.12 17.64C43.54 14.56 37.78 13 29 13C20.22 13 14.46 14.56 11.89 17.64C10 19.94 9.09 23.67 9 30H1C1 15.09 7 1 29 1C51 1 57 15.09 57 30Z" fill="white"/>
  <path d="M49 30H57C57 39.6 55.76 48 48.2 52.82C44 55.47 37.91 57 29 57C20.09 57 14 55.47 9.8 52.82C2.24 48 1 39.6 1 30H9C9 30.34 9 30.69 9 31C9 45 15 51 29 51C43 51 49 45 49 31C49 30.64 49 30.29 49 30Z" fill="white"/>
  <path d="M49 31C49.0251 33.2199 48.8342 35.437 48.43 37.62C46.66 46.94 40.56 51 29 51C26.3082 51.042 23.6214 50.7532 21 50.14C12.67 48 9 42 9 31C9 30.64 9 30.29 9 30C9.08 23.67 10 19.94 11.88 17.64C14.46 14.56 20.22 13 29 13C37.78 13 43.54 14.56 46.11 17.64C48.03 19.94 48.91 23.64 48.99 30C49 30.34 49 30.69 49 31Z" fill="#B5B3C9"/>
  <path d="M48.43 37.67C46.66 46.94 40.56 51 29 51C26.3082 51.0421 23.6214 50.7532 21 50.14C28.26 46.84 42.69 47.47 48.43 37.67Z" fill="#9695AF"/>
  <path d="M1 30C1 39.6 2.24 48 9.8 52.82C14 55.47 20.09 57 29 57C37.91 57 44 55.47 48.2 52.82C55.76 48 57 39.6 57 30C57 15.09 51 1 29 1C7 1 1 15.09 1 30Z" stroke="#27272D" stroke-width="2" stroke-linecap="round" stroke-linejoin="round"/>
  <path d="M49 30C48.92 23.67 48 19.94 46.12 17.64C43.54 14.56 37.78 13 29 13C20.22 13 14.46 14.56 11.89 17.64C10 19.94 9.09 23.67 9 30C9 30.34 9 30.69 9 31C9 45 15 51 29 51C43 51 49 45 49 31C49 30.69 49 30.34 49 30Z" stroke="#27272D" stroke-width="2" stroke-linecap="round" stroke-linejoin="round"/>
  <path d="M1 30H9" stroke="#27272D" stroke-width="2" stroke-linecap="round" stroke-linejoin="round"/>
  <path d="M57 30H49" stroke="#27272D" stroke-width="2" stroke-linecap="round" stroke-linejoin="round"/>
  <g opacity="0.24">
  <path opacity="0.24" d="M15.5801 22.73C15.9134 22.1892 16.34 21.7118 16.8401 21.32C17.3425 20.9174 17.9156 20.6122 18.5301 20.42C19.1565 20.221 19.8137 20.1364 20.4701 20.17C21.1152 20.2026 21.7537 20.3168 22.3701 20.51C22.4968 20.5462 22.6152 20.6069 22.7184 20.6887C22.8217 20.7706 22.9078 20.872 22.9719 20.9871C23.036 21.1023 23.0767 21.2289 23.0919 21.3598C23.107 21.4907 23.0962 21.6233 23.0601 21.75C23.024 21.8768 22.9632 21.9951 22.8814 22.0984C22.7995 22.2017 22.6981 22.2878 22.583 22.3519C22.4678 22.4159 22.3412 22.4567 22.2103 22.4718C22.0794 22.487 21.9468 22.4762 21.8201 22.44H21.6901C21.2607 22.2319 20.8073 22.0774 20.3401 21.98C19.8806 21.8959 19.4096 21.8959 18.9501 21.98C18.4736 22.0528 18.0155 22.2157 17.6001 22.46C17.1747 22.7015 16.7927 23.0124 16.4701 23.38C16.3866 23.4706 16.2726 23.5272 16.15 23.5389C16.0274 23.5506 15.9048 23.5167 15.8057 23.4435C15.7066 23.3704 15.6379 23.2633 15.6129 23.1427C15.5879 23.0221 15.6082 22.8966 15.6701 22.79L15.5801 22.73Z" fill="#27272D"/>
  </g>
  <g opacity="0.24">
  <path opacity="0.24" d="M41.5799 23.27C41.2573 22.9024 40.8753 22.5914 40.4499 22.35C40.0345 22.1056 39.5763 21.9427 39.0999 21.87C38.6404 21.7859 38.1694 21.7859 37.7099 21.87C37.2427 21.9673 36.7893 22.1218 36.3599 22.33C36.1173 22.4388 35.8413 22.4466 35.5928 22.3519C35.3443 22.2572 35.1437 22.0677 35.0349 21.825C34.9262 21.5824 34.9183 21.3064 35.013 21.0579C35.1077 20.8095 35.2973 20.6088 35.5399 20.5H35.6699C36.2863 20.3068 36.9248 20.1926 37.5699 20.16C38.2263 20.1263 38.8835 20.211 39.5099 20.41C40.1244 20.6022 40.6975 20.9074 41.1999 21.31C41.7 21.7018 42.1266 22.1792 42.4599 22.72C42.5218 22.8265 42.5421 22.9521 42.5171 23.0727C42.4921 23.1933 42.4234 23.3004 42.3243 23.3735C42.2252 23.4466 42.1026 23.4806 41.98 23.4689C41.8574 23.4571 41.7434 23.4006 41.6599 23.31L41.5799 23.27Z" fill="#27272D"/>
  </g>
  <path d="M38 31C39.6569 31 41 29.6569 41 28C41 26.3431 39.6569 25 38 25C36.3431 25 35 26.3431 35 28C35 29.6569 36.3431 31 38 31Z" fill="#27272D"/>
  <path d="M20 31C21.6569 31 23 29.6569 23 28C23 26.3431 21.6569 25 20 25C18.3431 25 17 26.3431 17 28C17 29.6569 18.3431 31 20 31Z" fill="#27272D"/>
  <path d="M36.5 38.5C36.5 38.5 33.3 45.87 24.5 42.71" stroke="#27272D" stroke-width="2" stroke-linecap="round" stroke-linejoin="round"/>
</svg>
