<svg width="58" height="66" viewBox="0 0 58 66" fill="none" xmlns="http://www.w3.org/2000/svg">
  <path d="M50.6933 32.9999C51.4812 33.0465 52.2522 33.2479 52.9623 33.5925C53.6725 33.9371 54.3077 34.4181 54.8319 35.0083C55.3561 35.5984 55.7589 36.286 56.0174 37.0318C56.2759 37.7775 56.3849 38.5669 56.3383 39.3549C56.2916 40.1428 56.0903 40.9138 55.7457 41.624C55.4011 42.3341 54.92 42.9694 54.3299 43.4935C53.7398 44.0177 53.0522 44.4206 52.3064 44.679C51.5606 44.9375 50.7712 45.0465 49.9833 44.9999C49.0733 50.2299 47.2133 54.8499 43.9833 58.2299C42.2171 60.1015 40.0542 61.5537 37.6533 62.4799C36.68 62.8702 35.6767 63.1813 34.6533 63.4099L33.6533 63.6099C30.3446 64.1833 26.9619 64.1833 23.6533 63.6099L22.6533 63.4099C21.6298 63.1813 20.6266 62.8702 19.6533 62.4799C17.2524 61.5537 15.0894 60.1015 13.3233 58.2299C10.1333 54.8499 8.32327 50.2299 7.32327 44.9999C6.53533 45.0412 5.74697 44.927 5.00319 44.6637C4.25941 44.4004 3.57477 43.9932 2.98837 43.4653C1.80407 42.3991 1.09181 40.9062 1.00827 39.3149C0.924728 37.7236 1.47674 36.1643 2.54289 34.98C3.60903 33.7957 5.10197 33.0834 6.69327 32.9999H6.75327C7.97663 33.0508 9.18604 33.2798 10.3433 33.6799C10.3388 32.1132 10.4559 30.5485 10.6933 28.9999H46.6933C46.9441 30.5474 47.0745 32.1121 47.0833 33.6799C48.2405 33.2798 49.4499 33.0508 50.6733 32.9999H50.6933Z" fill="#BA9B85"/>
  <path d="M49.9133 45.4199C49.8533 45.7599 49.7933 46.0999 49.7233 46.4199C48.9487 50.8218 46.9766 54.9252 44.0233 58.2799C40.6033 61.9099 35.6933 64.0999 28.6933 64.0999C27.8133 64.0999 26.9733 64.0999 26.1533 63.9999C24.0009 63.8401 21.8826 63.372 19.8633 62.6099C23.7466 61.3597 27.6959 60.3248 31.6933 59.5099C39.4333 57.9399 44.5033 54.8599 47.5733 47.3399C47.7625 46.8439 48.0779 46.4059 48.4883 46.0692C48.8987 45.7324 49.3899 45.5086 49.9133 45.4199Z" fill="#A58067"/>
  <path d="M51.6934 20.9999H5.69336C4.58879 20.9999 3.69336 21.8953 3.69336 22.9999V26.9999C3.69336 28.1044 4.58879 28.9999 5.69336 28.9999H51.6934C52.7979 28.9999 53.6934 28.1044 53.6934 26.9999V22.9999C53.6934 21.8953 52.7979 20.9999 51.6934 20.9999Z" fill="#425589"/>
  <path d="M51.6934 20.9999H5.69336C5.69336 11.8199 13.6934 3.5599 22.9434 1.6099C26.7336 0.796701 30.6532 0.796701 34.4434 1.6099C35.7928 1.89372 37.1121 2.30558 38.3834 2.8399C45.8834 5.9999 51.6934 13.1499 51.6934 20.9999Z" fill="#425589"/>
  <path d="M50.3534 28.9999C50.5034 30.2999 50.5934 31.6399 50.6334 32.9999C49.41 33.0508 48.2006 33.2798 47.0434 33.6799C47.0478 32.1132 46.9308 30.5485 46.6934 28.9999H50.3534Z" fill="#E89C42"/>
  <path d="M7.03342 28.9999H10.6934C10.4426 30.5474 10.3122 32.1121 10.3034 33.6799C9.15895 33.2836 7.9633 33.0546 6.75342 32.9999C6.79342 31.6399 6.88342 30.2999 7.03342 28.9999Z" fill="#E89C42"/>
  <g opacity="0.24">
  <path opacity="0.24" d="M5.36329 41.3699C5.00745 41.0884 4.70006 40.7506 4.45329 40.3699C4.18141 39.9588 4.01013 39.4895 3.95329 38.9999C3.89387 38.4734 3.98035 37.9406 4.20329 37.4599C4.41126 37.0105 4.69166 36.5984 5.03328 36.2399C5.20965 36.0397 5.45834 35.9177 5.72464 35.9008C5.99095 35.8839 6.25305 35.9735 6.45329 36.1499C6.65353 36.3263 6.7755 36.575 6.79238 36.8413C6.80926 37.1076 6.71966 37.3697 6.54329 37.5699L6.39329 37.7099C6.16332 37.8653 5.95774 38.054 5.78328 38.2699C5.62538 38.4576 5.52473 38.6867 5.49329 38.9299C5.46145 39.2114 5.49922 39.4964 5.60329 39.7599C5.71678 40.0589 5.87527 40.3388 6.07329 40.5899C6.1455 40.6862 6.18056 40.8053 6.17203 40.9254C6.1635 41.0454 6.11195 41.1584 6.02685 41.2435C5.94174 41.3286 5.82878 41.3801 5.70873 41.3887C5.58868 41.3972 5.46957 41.3621 5.37329 41.2899L5.36329 41.3699Z" fill="#27272D"/>
  </g>
  <g opacity="0.24">
  <path opacity="0.24" d="M52.3533 36.2499C52.6897 36.6176 52.9603 37.0404 53.1533 37.4999C53.3571 37.9658 53.4528 38.4718 53.4333 38.9799C53.4124 39.4879 53.2496 39.9798 52.9633 40.3999C52.711 40.7858 52.3928 41.1243 52.0233 41.3999C51.927 41.4721 51.8079 41.5072 51.6878 41.4986C51.5678 41.4901 51.4548 41.4386 51.3697 41.3535C51.2846 41.2684 51.2331 41.1554 51.2245 41.0354C51.216 40.9153 51.251 40.7962 51.3233 40.6999C51.5354 40.4608 51.7046 40.1867 51.8233 39.8899C51.9244 39.6428 51.9487 39.371 51.8933 39.1099C51.8367 38.8519 51.724 38.6095 51.5633 38.3999C51.4026 38.1793 51.2066 37.9867 50.9833 37.8299C50.7777 37.6602 50.648 37.4157 50.6227 37.1504C50.5974 36.885 50.6785 36.6205 50.8483 36.4149C51.018 36.2094 51.2624 36.0797 51.5278 36.0544C51.7932 36.029 52.0577 36.1102 52.2633 36.2799L52.3533 36.2499Z" fill="#27272D"/>
  </g>
  <path d="M37.6934 36.9999C39.3502 36.9999 40.6934 36.1044 40.6934 34.9999C40.6934 33.8953 39.3502 32.9999 37.6934 32.9999C36.0365 32.9999 34.6934 33.8953 34.6934 34.9999C34.6934 36.1044 36.0365 36.9999 37.6934 36.9999Z" fill="#27272D"/>
  <path d="M19.6934 36.9999C21.3502 36.9999 22.6934 36.1044 22.6934 34.9999C22.6934 33.8953 21.3502 32.9999 19.6934 32.9999C18.0365 32.9999 16.6934 33.8953 16.6934 34.9999C16.6934 36.1044 18.0365 36.9999 19.6934 36.9999Z" fill="#27272D"/>
  <path d="M21.6934 49.3599C21.6934 49.3599 29.4434 53.2999 35.6934 46.9999C36.4234 54.0899 27.1234 59.6099 21.6934 49.3599Z" fill="white"/>
  <path d="M21.6934 49.3599C21.6934 49.3599 29.4434 53.2999 35.6934 46.9999C36.4234 54.0899 27.1234 59.6099 21.6934 49.3599Z" stroke="#27272D" stroke-width="2" stroke-linecap="round" stroke-linejoin="round"/>
  <path d="M10.3433 33.6799C9.1861 33.2798 7.9767 33.0508 6.75333 32.9999H6.69333C5.9054 33.0465 5.13436 33.2479 4.42425 33.5925C3.71414 33.9371 3.07885 34.4181 2.55467 35.0083C2.03048 35.5984 1.62766 36.286 1.3692 37.0318C1.11075 37.7775 1.00172 38.567 1.04834 39.3549C1.09495 40.1428 1.29631 40.9138 1.64091 41.624C1.98551 42.3341 2.4666 42.9694 3.05671 43.4935C3.64683 44.0177 4.33442 44.4206 5.08021 44.679C5.826 44.9375 6.6154 45.0465 7.40333 44.9999" stroke="#27272D" stroke-width="2" stroke-linecap="round" stroke-linejoin="round"/>
  <path d="M47.0435 33.6799C48.2007 33.2798 49.4101 33.0508 50.6335 32.9999H50.6935C51.4814 33.0465 52.2524 33.2479 52.9625 33.5925C53.6727 33.9371 54.3079 34.4181 54.8321 35.0083C55.3563 35.5984 55.7591 36.286 56.0176 37.0318C56.276 37.7775 56.3851 38.567 56.3385 39.3549C56.2918 40.1428 56.0905 40.9138 55.7459 41.624C55.4013 42.3341 54.9202 42.9694 54.3301 43.4935C53.74 44.0177 53.0524 44.4206 52.3066 44.679C51.5608 44.9375 50.7714 45.0465 49.9835 44.9999" stroke="#27272D" stroke-width="2" stroke-linecap="round" stroke-linejoin="round"/>
  <path d="M50.6333 32.9999C50.6333 31.6399 50.5033 30.2999 50.3533 28.9999" stroke="#27272D" stroke-width="2" stroke-linecap="round" stroke-linejoin="round"/>
  <path d="M7.03342 28.9999C6.88342 30.2999 6.79342 31.6399 6.75342 32.9999" stroke="#27272D" stroke-width="2" stroke-linecap="round" stroke-linejoin="round"/>
  <path d="M49.9832 44.9999C49.0732 50.2299 47.2132 54.8499 43.9832 58.2299C42.2171 60.1015 40.0541 61.5537 37.6532 62.4799C36.6799 62.8702 35.6767 63.1813 34.6532 63.4099L33.6532 63.6099C30.3446 64.1833 26.9619 64.1833 23.6532 63.6099L22.6532 63.4099C21.6298 63.1813 20.6265 62.8702 19.6532 62.4799C17.2523 61.5537 15.0894 60.1015 13.3232 58.2299C10.1332 54.8499 8.32324 50.2299 7.32324 44.9999" stroke="#27272D" stroke-width="2" stroke-linecap="round" stroke-linejoin="round"/>
  <path d="M10.6935 28.9999C10.4427 30.5474 10.3123 32.1121 10.3035 33.6799" stroke="#27272D" stroke-width="2" stroke-linecap="round" stroke-linejoin="round"/>
  <path d="M47.0434 33.6799C47.0478 32.1132 46.9308 30.5485 46.6934 28.9999" stroke="#27272D" stroke-width="2" stroke-linecap="round" stroke-linejoin="round"/>
  <path d="M51.6934 20.9999C52.2238 20.9999 52.7325 21.2106 53.1076 21.5857C53.4826 21.9607 53.6934 22.4694 53.6934 22.9999V26.9999C53.6934 27.5303 53.4826 28.039 53.1076 28.4141C52.7325 28.7892 52.2238 28.9999 51.6934 28.9999H5.69336C5.16293 28.9999 4.65422 28.7892 4.27914 28.4141C3.90407 28.039 3.69336 27.5303 3.69336 26.9999V22.9999C3.69336 22.4694 3.90407 21.9607 4.27914 21.5857C4.65422 21.2106 5.16293 20.9999 5.69336 20.9999" stroke="#27272D" stroke-width="2" stroke-linecap="round" stroke-linejoin="round"/>
  <path d="M51.6934 20.9999H5.69336C5.69336 11.8199 13.6934 3.5599 22.9434 1.6099C26.7336 0.796701 30.6532 0.796701 34.4434 1.6099C43.7434 3.5599 51.6934 11.8199 51.6934 20.9999Z" stroke="#27272D" stroke-width="2" stroke-linecap="round" stroke-linejoin="round"/>
</svg>
