<svg width="64" height="83" viewBox="0 0 64 83" fill="none" xmlns="http://www.w3.org/2000/svg">
  <path d="M59.0307 16.9983C59.0322 19.0616 58.3247 21.0628 57.0267 22.6666C55.7287 24.2705 53.919 25.3796 51.9007 25.8083C53.1107 32.1683 56.7507 35.2583 56.0307 45.9983C56.0307 45.9983 55.0307 45.3283 50.0307 44.7583C44.0491 44.1771 38.0401 43.9234 32.0307 43.9983C26.0214 43.9234 20.0124 44.1771 14.0307 44.7583C9.03073 45.3283 8.03073 45.9983 8.03073 45.9983C7.31073 35.2583 10.9507 32.1683 12.1607 25.8083C9.97825 25.3527 8.04259 24.1032 6.72874 22.3019C5.4149 20.5006 4.81641 18.2758 5.04922 16.0585C5.28204 13.8411 6.32958 11.7891 7.98891 10.3C9.64823 8.81093 11.8012 7.99072 14.0307 7.99833C15.1001 7.99614 16.1608 8.18931 17.1607 8.56833C17.4417 7.02772 18.1687 5.60346 19.2515 4.47213C20.3344 3.34081 21.7255 2.55217 23.2523 2.204C24.7791 1.85583 26.3746 1.96344 27.8408 2.51349C29.3071 3.06354 30.5796 4.03184 31.5007 5.29833C32.1369 3.52518 33.3784 2.03341 35.0066 1.08581C36.6347 0.138213 38.545 -0.204429 40.401 0.118248C42.257 0.440924 43.9396 1.40822 45.1524 2.84973C46.3652 4.29125 47.0303 6.11451 47.0307 7.99833C47.0307 8.17833 47.0307 8.35833 47.0307 8.52833C47.9914 8.17537 49.0072 7.99591 50.0307 7.99833C52.4177 7.99833 54.7069 8.94655 56.3947 10.6344C58.0825 12.3222 59.0307 14.6114 59.0307 16.9983Z" fill="white"/>
  <path d="M57 51.8183C58.2137 52.5011 59.1522 53.5848 59.6544 54.8837C60.1567 56.1825 60.1915 57.6157 59.7529 58.9374C59.3143 60.2592 58.4296 61.3872 57.2504 62.1281C56.0713 62.869 54.6711 63.1766 53.29 62.9983C52.37 68.2383 50.52 72.8583 47.29 76.2283C45.7797 77.8068 43.9849 79.0859 42 79.9983C40.7186 80.5897 39.3776 81.0423 38 81.3483C36.0296 81.781 34.0172 81.9924 31.9999 81.9783C24.9999 81.9783 20.0899 79.7883 16.6699 76.1683C13.4799 72.7983 11.6699 68.1683 10.6699 62.9383C9.84814 63.0532 9.01142 62.9965 8.21267 62.7716C7.41392 62.5467 6.67051 62.1585 6.02941 61.6317C5.38831 61.1048 4.86347 60.4507 4.48805 59.7107C4.11262 58.9707 3.89478 58.1608 3.84829 57.3323C3.8018 56.5038 3.92767 55.6746 4.21794 54.8973C4.50822 54.1199 4.95659 53.4112 5.53472 52.8159C6.11286 52.2206 6.80818 51.7518 7.57675 51.4389C8.34533 51.1261 9.17044 50.976 9.99995 50.9983H10.0599C11.2375 51.0488 12.4022 51.2642 13.5199 51.6383C13.5382 49.6693 13.6986 47.7042 13.9999 45.7583C19.9816 45.177 25.9906 44.9233 31.9999 44.9983C38.0093 44.9233 44.0183 45.177 50 45.7583C50.2892 47.7049 50.4329 49.6703 50.43 51.6383C51.5477 51.2642 52.7124 51.0488 53.8899 50.9983H54C55.0546 51.0032 56.0894 51.286 57 51.8183Z" fill="#F1BF9C"/>
  <path d="M53.1899 63.3384C53.1299 63.6784 53.0699 64.0184 52.9999 64.3384C52.2253 68.7402 50.2532 72.8436 47.2999 76.1984C43.8799 79.8284 38.9299 81.9984 31.9999 81.9984C31.1199 81.9984 30.2799 81.9984 29.4599 81.8984C27.3075 81.7386 25.1892 81.2705 23.1699 80.5084C27.0536 79.2649 31.0029 78.2367 34.9999 77.4284C42.7399 75.8584 47.8099 72.7784 50.8799 65.2584C51.0666 64.7662 51.3774 64.3307 51.7822 63.9943C52.187 63.6579 52.6719 63.4319 53.1899 63.3384Z" fill="#DBA47F"/>
  <path d="M16.67 76.1884C15.4976 76.523 14.3645 76.9823 13.29 77.5584C10.707 77.3979 8.16397 76.8414 5.75 75.9084C3.97636 75.2901 2.3564 74.2977 1 72.9984C4.06748 69.963 5.8991 65.8971 6.14 61.5884C7.20174 62.4901 8.54704 62.9893 9.94 62.9984H10C10.2365 63.0124 10.4735 63.0124 10.71 62.9984C11.63 68.1984 13.48 72.8184 16.67 76.1884Z" fill="#D6532B"/>
  <path d="M14 45.7583C13.7154 47.7054 13.5717 49.6705 13.57 51.6383C12.7844 51.3823 11.978 51.1949 11.16 51.0783C10.8286 51.0311 10.4947 51.0044 10.16 50.9983H10C8.94531 51.0032 7.91055 51.286 7 51.8183C7.37 50.2683 8 49.2883 8 46.9983C9.05422 46.5261 10.1795 46.2321 11.33 46.1283C12 45.9983 12.91 45.8783 14 45.7583Z" fill="#D6532B"/>
  <path d="M56 46.9983C56 49.2883 56.66 50.2683 57 51.8183C56.0895 51.286 55.0547 51.0032 54 50.9983H53.94C52.7625 51.0487 51.5978 51.2642 50.48 51.6383C50.483 49.6703 50.3393 47.7049 50.05 45.7583C55 46.3283 56 46.9983 56 46.9983Z" fill="#D6532B"/>
  <path d="M63.0001 72.9984C63.0001 72.9984 59.5601 76.8684 50.7101 77.5584C49.6356 76.9823 48.5025 76.523 47.3301 76.1884C50.5201 72.8184 52.3301 68.1884 53.3301 62.9584C54.145 63.0547 54.9711 62.9828 55.7571 62.7471C56.5432 62.5115 57.2725 62.1171 57.9001 61.5884C58.1302 65.8916 59.9473 69.9568 63.0001 72.9984Z" fill="#D6532B"/>
  <path d="M6.14 61.5884C7.20174 62.4901 8.54704 62.9893 9.94 62.9984C9.24718 67.4992 7.83231 71.8586 5.75 75.9084C3.97636 75.2901 2.3564 74.2977 1 72.9984C4.06748 69.963 5.8991 65.8971 6.14 61.5884Z" fill="#E26042"/>
  <path d="M11.33 46.1283C11.26 47.7783 11.19 49.4283 11.11 51.0783C10.7786 51.0311 10.4447 51.0044 10.11 50.9983H10C8.94531 51.0032 7.91055 51.286 7 51.8183C7.37 50.2683 8 49.2883 8 46.9983C9.05422 46.5261 10.1795 46.2321 11.33 46.1283Z" fill="#E26042"/>
  <path d="M13.29 77.5584C4.44 76.8684 1 72.9984 1 72.9984C4.06748 69.963 5.8991 65.8971 6.14 61.5884" stroke="#27272D" stroke-width="2" stroke-linecap="round" stroke-linejoin="round"/>
  <path d="M57.86 61.5884C58.1009 65.8971 59.9325 69.963 63 72.9984C63 72.9984 59.56 76.8684 50.71 77.5584" stroke="#27272D" stroke-width="2" stroke-linecap="round" stroke-linejoin="round"/>
  <path d="M8 46.9983C8 49.2883 7.34 50.2683 7 51.8183" stroke="#27272D" stroke-width="2" stroke-linecap="round" stroke-linejoin="round"/>
  <path d="M57 51.8183C56.63 50.2683 56 49.2883 56 46.9983" stroke="#27272D" stroke-width="2" stroke-linecap="round" stroke-linejoin="round"/>
  <path d="M13.52 51.6383C12.4022 51.2642 11.2376 51.0487 10.06 50.9983H9.99997C9.21204 51.0449 8.441 51.2463 7.73089 51.5909C7.02078 51.9355 6.38549 52.4166 5.86131 53.0067C5.33712 53.5968 4.9343 54.2844 4.67585 55.0302C4.41739 55.776 4.30836 56.5654 4.35498 57.3533C4.40159 58.1412 4.60295 58.9123 4.94755 59.6224C5.29215 60.3325 5.77324 60.9678 6.36335 61.492C6.95347 62.0161 7.64106 62.419 8.38685 62.6774C9.13265 62.9359 9.92204 63.0449 10.71 62.9983" stroke="#27272D" stroke-width="2" stroke-linecap="round" stroke-linejoin="round"/>
  <path d="M50.48 51.6383C51.5977 51.2642 52.7624 51.0487 53.94 50.9983H54C54.7879 51.0449 55.5589 51.2463 56.2691 51.5909C56.9792 51.9355 57.6145 52.4166 58.1386 53.0067C58.6628 53.5968 59.0656 54.2844 59.3241 55.0302C59.5826 55.776 59.6916 56.5654 59.645 57.3533C59.5984 58.1412 59.397 58.9123 59.0524 59.6224C58.7078 60.3325 58.2267 60.9678 57.6366 61.492C57.0465 62.0161 56.3589 62.419 55.6131 62.6774C54.8673 62.9359 54.0779 63.0449 53.29 62.9983" stroke="#27272D" stroke-width="2" stroke-linecap="round" stroke-linejoin="round"/>
  <path d="M10.71 62.9984C11.63 68.2384 13.48 72.8584 16.71 76.2284C20.09 79.8084 25 81.9984 32 81.9984C34.0172 82.0124 36.0297 81.8011 38 81.3684C39.3776 81.0624 40.7186 80.6098 42 80.0184C44.0041 79.0924 45.8132 77.7925 47.33 76.1884C50.52 72.8184 52.33 68.1884 53.33 62.9584" stroke="#27272D" stroke-width="2" stroke-linecap="round" stroke-linejoin="round"/>
  <path d="M14.0001 45.7583C13.7155 47.7054 13.5718 49.6705 13.5701 51.6383" stroke="#27272D" stroke-width="2" stroke-linecap="round" stroke-linejoin="round"/>
  <path d="M50.48 51.6383C50.483 49.6703 50.3393 47.7049 50.05 45.7583" stroke="#27272D" stroke-width="2" stroke-linecap="round" stroke-linejoin="round"/>
  <path d="M12.1299 26.8083C10.9199 33.1683 7.27992 36.2583 7.99992 46.9983C7.99992 46.9983 8.99992 46.3284 13.9999 45.7584C19.9816 45.1771 25.9905 44.9234 31.9999 44.9983" stroke="#27272D" stroke-width="2" stroke-linecap="round" stroke-linejoin="round"/>
  <path d="M51.87 26.8083C53.08 33.1683 56.72 36.2583 56 46.9983C56 46.9983 55 46.3284 50 45.7584C44.0183 45.1771 38.0094 44.9234 32 44.9983" stroke="#27272D" stroke-width="2" stroke-linecap="round" stroke-linejoin="round"/>
  <path d="M12.13 26.8083C9.94749 26.3527 8.01183 25.1032 6.69798 23.3019C5.38414 21.5006 4.78565 19.2758 5.01846 17.0585C5.25128 14.8411 6.29882 12.7891 7.95814 11.3C9.61747 9.81094 11.7705 8.99074 14 8.99834C15.0693 8.99615 16.13 9.18932 17.13 9.56834" stroke="#27272D" stroke-width="2" stroke-linecap="round" stroke-linejoin="round"/>
  <path d="M47 9.52834C47.9607 9.17538 48.9765 8.99592 50 8.99834C52.2295 8.99074 54.3825 9.81094 56.0418 11.3C57.7012 12.7891 58.7487 14.8411 58.9815 17.0585C59.2143 19.2758 58.6158 21.5006 57.302 23.3019C55.9881 25.1032 54.0525 26.3527 51.87 26.8083" stroke="#27272D" stroke-width="2" stroke-linecap="round" stroke-linejoin="round"/>
  <g opacity="0.24">
  <path opacity="0.24" d="M8.66993 59.3683C8.31409 59.0868 8.0067 58.7491 7.75993 58.3683C7.48805 57.9572 7.31677 57.4879 7.25993 56.9983C7.20051 56.4718 7.28699 55.939 7.50993 55.4583C7.7179 55.0089 7.9983 54.5968 8.33993 54.2383C8.51629 54.0381 8.76498 53.9161 9.03129 53.8992C9.29759 53.8824 9.55969 53.972 9.75993 54.1483C9.96017 54.3247 10.0821 54.5734 10.099 54.8397C10.1159 55.106 10.0263 55.3681 9.84993 55.5683L9.69993 55.7083C9.46996 55.8637 9.26438 56.0525 9.08993 56.2683C8.93202 56.456 8.83137 56.6851 8.79993 56.9283C8.76809 57.2098 8.80586 57.4948 8.90993 57.7583C9.02342 58.0573 9.18191 58.3372 9.37993 58.5883C9.45214 58.6846 9.48721 58.8037 9.47867 58.9238C9.47014 59.0438 9.41859 59.1568 9.33349 59.2419C9.24838 59.327 9.13543 59.3785 9.01537 59.3871C8.89532 59.3956 8.77622 59.3605 8.67993 59.2883L8.66993 59.3683Z" fill="#27272D"/>
  </g>
  <g opacity="0.24">
  <path opacity="0.24" d="M55.6599 54.2483C55.9964 54.616 56.267 55.0388 56.4599 55.4983C56.6637 55.9642 56.7594 56.4702 56.7399 56.9783C56.7185 57.4862 56.5557 57.978 56.2699 58.3983C56.0177 58.7842 55.6995 59.1227 55.3299 59.3983C55.2336 59.4705 55.1145 59.5056 54.9945 59.4971C54.8744 59.4885 54.7615 59.437 54.6764 59.3519C54.5912 59.2668 54.5397 59.1538 54.5312 59.0338C54.5226 58.9137 54.5577 58.7946 54.6299 58.6983C54.8422 58.4593 55.0114 58.1852 55.1299 57.8883C55.231 57.6412 55.2554 57.3695 55.1999 57.1083C55.1433 56.8503 55.0307 56.6079 54.8699 56.3983C54.7093 56.1777 54.5133 55.9851 54.2899 55.8283C54.0844 55.6586 53.9547 55.4141 53.9294 55.1488C53.904 54.8834 53.9852 54.6189 54.1549 54.4133C54.3246 54.2078 54.5691 54.0781 54.8344 54.0528C55.0998 54.0274 55.3644 54.1086 55.5699 54.2783L55.6599 54.2483Z" fill="#27272D"/>
  </g>
  <path d="M41 55.9983C42.6569 55.9983 44 54.6551 44 52.9983C44 51.3414 42.6569 49.9983 41 49.9983C39.3431 49.9983 38 51.3414 38 52.9983C38 54.6551 39.3431 55.9983 41 55.9983Z" fill="#27272D"/>
  <path d="M23 55.9983C24.6569 55.9983 26 54.6551 26 52.9983C26 51.3414 24.6569 49.9983 23 49.9983C21.3431 49.9983 20 51.3414 20 52.9983C20 54.6551 21.3431 55.9983 23 55.9983Z" fill="#27272D"/>
  <path d="M32 69.9984C29.4954 69.9727 26.997 69.7419 24.53 69.3083C25.208 70.7121 26.268 71.8963 27.5884 72.7249C28.9088 73.5535 30.4361 73.9931 31.995 73.9931C33.5539 73.9931 35.0812 73.5535 36.4016 72.7249C37.7221 71.8963 38.7821 70.7121 39.46 69.3083C36.9963 69.7414 34.5014 69.9721 32 69.9984Z" fill="#27272D"/>
  <path d="M39.47 69.3084C39.61 69.0384 39.75 68.7784 39.87 68.4984C39.9974 68.1992 40.0404 67.8709 39.9943 67.5491C39.9483 67.2273 39.815 66.9242 39.6089 66.6727C39.4028 66.4213 39.1318 66.2311 38.8252 66.1228C38.5187 66.0145 38.1883 65.9922 37.87 66.0584C34.0066 66.9719 29.9834 66.9719 26.12 66.0584C25.8017 65.9922 25.4714 66.0145 25.1648 66.1228C24.8583 66.2311 24.5872 66.4213 24.3811 66.6727C24.175 66.9242 24.0417 67.2273 23.9957 67.5491C23.9497 67.8709 23.9927 68.1992 24.12 68.4984C24.23 68.7784 24.38 69.0484 24.52 69.3084C26.9903 69.7425 29.492 69.9733 32 69.9984C34.5047 69.9727 37.003 69.7419 39.47 69.3084Z" fill="white"/>
  <path d="M32 66.7283C30.0213 66.7191 28.0507 66.474 26.13 65.9983C25.8117 65.9321 25.4814 65.9544 25.1748 66.0627C24.8683 66.171 24.5973 66.3612 24.3912 66.6127C24.1851 66.8641 24.0518 67.1672 24.0057 67.489C23.9597 67.8109 24.0027 68.1392 24.13 68.4383C24.7176 70.0523 25.7875 71.4464 27.1945 72.4315C28.6015 73.4166 30.2775 73.945 31.995 73.945C33.7126 73.945 35.3886 73.4166 36.7956 72.4315C38.2026 71.4464 39.2725 70.0523 39.86 68.4383C39.9874 68.1392 40.0304 67.8109 39.9844 67.489C39.9383 67.1672 39.805 66.8641 39.5989 66.6127C39.3928 66.3612 39.1218 66.171 38.8153 66.0627C38.5087 65.9544 38.1784 65.9321 37.86 65.9983C35.9426 66.4732 33.9754 66.7183 32 66.7283Z" stroke="#27272D" stroke-width="2" stroke-linecap="round" stroke-linejoin="round"/>
</svg>
