<svg width="58" height="66" viewBox="0 0 58 66" fill="none" xmlns="http://www.w3.org/2000/svg">
  <path d="M50.6933 33.0007C51.4812 33.0474 52.2522 33.2487 52.9623 33.5933C53.6725 33.9379 54.3077 34.419 54.8319 35.0091C55.3561 35.5992 55.7589 36.2868 56.0174 37.0326C56.2758 37.7784 56.3849 38.5678 56.3383 39.3557C56.2916 40.1437 56.0903 40.9147 55.7457 41.6248C55.4011 42.3349 54.92 42.9702 54.3299 43.4944C53.7398 44.0186 53.0522 44.4214 52.3064 44.6799C51.5606 44.9383 50.7712 45.0474 49.9833 45.0007C49.0733 50.2307 47.2133 54.8507 43.9833 58.2307C41.4711 60.8643 38.2169 62.671 34.6533 63.4107C30.6973 64.2506 26.6092 64.2506 22.6533 63.4107C19.0896 62.671 15.8354 60.8643 13.3233 58.2307C10.1333 54.8507 8.32326 50.2307 7.32326 45.0007C6.53533 45.0421 5.74697 44.9279 5.00318 44.6646C4.2594 44.4012 3.57476 43.994 2.98836 43.4661C2.40196 42.9382 1.92527 42.3 1.58553 41.5879C1.24578 40.8757 1.04963 40.1037 1.00826 39.3157C0.966897 38.5278 1.08113 37.7394 1.34444 36.9957C1.60775 36.2519 2.01498 35.5672 2.54288 34.9808C3.07078 34.3944 3.70901 33.9177 4.42114 33.578C5.13326 33.2383 5.90533 33.0421 6.69326 33.0007H6.75326C7.97662 33.0516 9.18603 33.2807 10.3433 33.6807C10.3388 32.114 10.4559 30.5493 10.6933 29.0007H46.6933C46.9441 30.5483 47.0745 32.113 47.0833 33.6807C48.2405 33.2807 49.4499 33.0516 50.6733 33.0007H50.6933Z" fill="#F9E7D4"/>
  <path d="M49.9133 45.4207C49.8533 45.7607 49.7933 46.1007 49.7233 46.4207C48.9487 50.8225 46.9766 54.9259 44.0233 58.2807C40.6033 61.9107 35.6933 64.1007 28.6933 64.1007C27.8133 64.1007 26.9733 64.1007 26.1533 64.0007C24.0009 63.8409 21.8826 63.3728 19.8633 62.6107C23.7466 61.3605 27.6959 60.3256 31.6933 59.5107C39.4333 57.9407 44.5033 54.8607 47.5733 47.3407C47.7625 46.8447 48.0779 46.4066 48.4883 46.0699C48.8987 45.7332 49.3899 45.5094 49.9133 45.4207Z" fill="#EACDB2"/>
  <path d="M7.03342 29.0007H10.6934C10.4426 30.5483 10.3122 32.113 10.3034 33.6807C9.15895 33.2845 7.9633 33.0555 6.75342 33.0007C6.79342 31.6407 6.88342 30.3007 7.03342 29.0007Z" fill="#403E4C"/>
  <path d="M50.3534 29.0007C50.5034 30.3007 50.5934 31.6407 50.6334 33.0007C49.41 33.0516 48.2006 33.2807 47.0434 33.6807C47.0478 32.114 46.9308 30.5493 46.6934 29.0007H50.3534Z" fill="#403E4C"/>
  <path d="M1.69336 25.0007H55.6934V29.0007H1.69336V25.0007Z" fill="#E89C42"/>
  <path d="M34.6934 1.73068V25.0007H22.6934V1.73068C26.634 0.756441 30.7527 0.756441 34.6934 1.73068Z" fill="#E89C42"/>
  <path d="M22.6934 1.73071V25.0007H4.69336C4.69336 14.0007 12.9934 4.07071 22.6934 1.73071Z" fill="#EDD64A"/>
  <path d="M52.6934 25.0007H34.6934V1.73071C44.3934 4.07071 52.6934 14.0007 52.6934 25.0007Z" fill="#EDD64A"/>
  <path d="M22.6934 1.73071V6.28071C21.4934 7.00071 20.2534 7.69071 19.0234 8.38071C12.1934 12.2607 9.87336 18.1807 9.51336 25.0007H4.69336C4.69336 14.0007 12.9934 4.07071 22.6934 1.73071Z" fill="#F7E174"/>
  <path d="M6.09336 27.9107C6.09336 28.2807 6.00336 28.6407 5.94336 29.0007H1.69336V25.0007H6.22336C6.27018 25.9727 6.22666 26.9469 6.09336 27.9107Z" fill="#F2B066"/>
  <path d="M10.3433 33.6807C9.1861 33.2807 7.9767 33.0516 6.75333 33.0007H6.69333C5.9054 33.0474 5.13436 33.2487 4.42425 33.5933C3.71414 33.9379 3.07885 34.419 2.55467 35.0091C2.03048 35.5992 1.62766 36.2868 1.3692 37.0326C1.11075 37.7784 1.00172 38.5678 1.04834 39.3557C1.09495 40.1437 1.29631 40.9147 1.64091 41.6248C1.98551 42.3349 2.4666 42.9702 3.05671 43.4944C3.64683 44.0186 4.33442 44.4214 5.08021 44.6799C5.826 44.9383 6.6154 45.0474 7.40333 45.0007" stroke="#27272D" stroke-width="2" stroke-linecap="round" stroke-linejoin="round"/>
  <path d="M47.0432 33.6807C48.2004 33.2807 49.4099 33.0516 50.6332 33.0007H50.6932C51.4811 33.0474 52.2522 33.2487 52.9623 33.5933C53.6724 33.9379 54.3077 34.419 54.8319 35.0091C55.3561 35.5992 55.7589 36.2868 56.0173 37.0326C56.2758 37.7784 56.3848 38.5678 56.3382 39.3557C56.2916 40.1437 56.0902 40.9147 55.7456 41.6248C55.401 42.3349 54.92 42.9702 54.3298 43.4944C53.7397 44.0186 53.0521 44.4214 52.3063 44.6799C51.5605 44.9383 50.7711 45.0474 49.9832 45.0007" stroke="#27272D" stroke-width="2" stroke-linecap="round" stroke-linejoin="round"/>
  <path d="M50.6333 33.0007C50.6333 31.6407 50.5033 30.3007 50.3533 29.0007" stroke="#27272D" stroke-width="2" stroke-linecap="round" stroke-linejoin="round"/>
  <path d="M7.03342 29.0007C6.88342 30.3007 6.79342 31.6407 6.75342 33.0007" stroke="#27272D" stroke-width="2" stroke-linecap="round" stroke-linejoin="round"/>
  <path d="M49.9832 45.0007C49.0732 50.2307 47.2132 54.8507 43.9832 58.2307C41.4711 60.8643 38.2169 62.671 34.6532 63.4107C30.6973 64.2506 26.6092 64.2506 22.6532 63.4107C19.0896 62.671 15.8354 60.8643 13.3232 58.2307C10.1332 54.8507 8.32324 50.2307 7.32324 45.0007" stroke="#27272D" stroke-width="2" stroke-linecap="round" stroke-linejoin="round"/>
  <path d="M10.6932 29.0007C10.4424 30.5483 10.312 32.113 10.3032 33.6807" stroke="#27272D" stroke-width="2" stroke-linecap="round" stroke-linejoin="round"/>
  <path d="M47.0434 33.6807C47.0478 32.114 46.9308 30.5493 46.6934 29.0007" stroke="#27272D" stroke-width="2" stroke-linecap="round" stroke-linejoin="round"/>
  <path d="M52.6934 25.0007H55.6934V29.0007H50.3534H46.6534H10.7334H7.03336H1.69336V25.0007H4.69336" stroke="#27272D" stroke-width="2" stroke-linecap="round" stroke-linejoin="round"/>
  <path d="M52.6934 25.0007H4.69336C4.69336 14.0007 12.9934 4.07068 22.6934 1.73068C26.634 0.756441 30.7527 0.756441 34.6934 1.73068C44.3934 4.07068 52.6934 14.0007 52.6934 25.0007Z" stroke="#27272D" stroke-width="2" stroke-linecap="round" stroke-linejoin="round"/>
  <path d="M22.6934 25.0007V1.73071" stroke="#27272D" stroke-width="2" stroke-linecap="round" stroke-linejoin="round"/>
  <path d="M34.6934 1.73071V25.0007" stroke="#27272D" stroke-width="2" stroke-linecap="round" stroke-linejoin="round"/>
  <path opacity="0.24" d="M5.36329 41.3708C5.00745 41.0893 4.70006 40.7515 4.45329 40.3708C4.18141 39.9597 4.01013 39.4903 3.95329 39.0008C3.89387 38.4742 3.98035 37.9415 4.20329 37.4608C4.41126 37.0114 4.69166 36.5992 5.03328 36.2408C5.20965 36.0405 5.45834 35.9186 5.72464 35.9017C5.99095 35.8848 6.25305 35.9744 6.45329 36.1508C6.65353 36.3271 6.7755 36.5758 6.79238 36.8421C6.80926 37.1084 6.71966 37.3705 6.54329 37.5708L6.39329 37.7108C6.16332 37.8662 5.95774 38.0549 5.78328 38.2708C5.62538 38.4584 5.52473 38.6875 5.49329 38.9308C5.46145 39.2123 5.49922 39.4973 5.60329 39.7608C5.71678 40.0598 5.87527 40.3396 6.07329 40.5908C6.1455 40.687 6.18056 40.8062 6.17203 40.9262C6.1635 41.0463 6.11195 41.1592 6.02685 41.2443C5.94174 41.3294 5.82878 41.381 5.70873 41.3895C5.58868 41.398 5.46957 41.363 5.37329 41.2908L5.36329 41.3708Z" fill="#27272D"/>
  <path opacity="0.24" d="M52.3533 36.2506C52.6897 36.6183 52.9603 37.0411 53.1533 37.5006C53.3571 37.9665 53.4528 38.4725 53.4333 38.9806C53.4119 39.4885 53.2491 39.9803 52.9633 40.4006C52.711 40.7865 52.3928 41.125 52.0233 41.4006C51.927 41.4729 51.8079 41.5079 51.6878 41.4994C51.5678 41.4908 51.4548 41.4393 51.3697 41.3542C51.2846 41.2691 51.2331 41.1561 51.2245 41.0361C51.216 40.916 51.251 40.7969 51.3233 40.7006C51.5356 40.4616 51.7048 40.1876 51.8233 39.8906C51.9244 39.6436 51.9487 39.3718 51.8933 39.1106C51.8367 38.8526 51.724 38.6102 51.5633 38.4006C51.4026 38.18 51.2066 37.9874 50.9833 37.8306C50.7777 37.6609 50.648 37.4165 50.6227 37.1511C50.5974 36.8857 50.6785 36.6212 50.8483 36.4156C51.018 36.2101 51.2624 36.0804 51.5278 36.0551C51.7932 36.0298 52.0577 36.1109 52.2633 36.2806L52.3533 36.2506Z" fill="#27272D"/>
  <path d="M37.6934 38.0007C39.3502 38.0007 40.6934 36.6576 40.6934 35.0007C40.6934 33.3439 39.3502 32.0007 37.6934 32.0007C36.0365 32.0007 34.6934 33.3439 34.6934 35.0007C34.6934 36.6576 36.0365 38.0007 37.6934 38.0007Z" fill="#27272D"/>
  <path d="M19.6934 38.0007C21.3502 38.0007 22.6934 36.6576 22.6934 35.0007C22.6934 33.3439 21.3502 32.0007 19.6934 32.0007C18.0365 32.0007 16.6934 33.3439 16.6934 35.0007C16.6934 36.6576 18.0365 38.0007 19.6934 38.0007Z" fill="#27272D"/>
  <path d="M21.6934 50.0007C21.6934 50.0007 23.6934 53.0007 28.6934 53.0007C33.6934 53.0007 35.6934 50.0007 35.6934 50.0007" stroke="#27272D" stroke-width="2" stroke-linecap="round" stroke-linejoin="round"/>
</svg>
