<svg width="58" height="74" viewBox="0 0 58 74" fill="none" xmlns="http://www.w3.org/2000/svg">
  <path d="M55.0533 42.9201C56.1107 44.0266 56.6984 45.4996 56.6933 47.0301C56.6992 47.8815 56.524 48.7244 56.179 49.5028C55.8341 50.2812 55.3275 50.9774 54.6928 51.5449C54.0581 52.1124 53.3099 52.5384 52.4979 52.7944C51.6859 53.0505 50.8287 53.1308 49.9833 53.0301C49.0733 58.2601 47.2133 62.8801 43.9833 66.2601C41.7538 68.6137 38.9152 70.3029 35.7833 71.1401C31.1108 72.3799 26.1957 72.3799 21.5233 71.1401C18.3913 70.3029 15.5528 68.6137 13.3233 66.2601C10.1333 62.8801 8.32326 58.2601 7.32326 53.0301C6.53533 53.0714 5.74697 52.9572 5.00318 52.6939C4.2594 52.4306 3.57476 52.0233 2.98836 51.4954C2.40196 50.9675 1.92527 50.3293 1.58553 49.6172C1.24578 48.905 1.04963 48.133 1.00826 47.3451C0.966897 46.5571 1.08113 45.7688 1.34444 45.025C1.60775 44.2812 2.01498 43.5965 2.54288 43.0101C3.07078 42.4237 3.70901 41.9471 4.42114 41.6073C5.13326 41.2676 5.90533 41.0714 6.69326 41.0301H6.75326C7.93085 41.0805 9.09554 41.2959 10.2133 41.6701C10.1517 36.8574 11.1094 32.0862 13.0233 27.6701C18.2664 28.8241 23.7439 28.2124 28.6033 25.9301C30.6033 27.6601 36.0933 31.2801 45.3933 30.2301C46.6031 33.9319 47.2043 37.8056 47.1733 41.7001C48.291 41.3259 49.4557 41.1105 50.6333 41.0601H50.6933C51.5082 41.0577 52.3151 41.2215 53.0647 41.5412C53.8143 41.861 54.4909 42.3302 55.0533 42.9201Z" fill="#BA9B85"/>
  <path d="M49.9133 53.4501C49.8533 53.7901 49.7933 54.1301 49.7233 54.4501C48.9487 58.8519 46.9766 62.9553 44.0233 66.3101C40.6033 69.9401 35.6933 72.1301 28.6933 72.1301C27.8133 72.1301 26.9733 72.1301 26.1533 72.0301C24.0009 71.8703 21.8826 71.4022 19.8633 70.6401C23.7466 69.3899 27.6959 68.355 31.6933 67.5401C39.4333 65.9701 44.5033 62.8901 47.5733 55.3701C47.7625 54.8741 48.0779 54.436 48.4883 54.0993C48.8987 53.7626 49.3899 53.5388 49.9133 53.4501Z" fill="#A58067"/>
  <path d="M52.6134 20.5901C56.013 27.519 56.8764 35.4204 55.0534 42.9201C54.4937 42.3247 53.8182 41.85 53.0685 41.525C52.3188 41.2 51.5106 41.0316 50.6934 41.0301H50.6334C49.4558 41.0805 48.2911 41.296 47.1734 41.6701C47.2044 37.7756 46.6033 33.9019 45.3934 30.2001C36.0934 31.2001 30.6334 27.6301 28.6034 25.9001C23.7441 28.1824 18.2665 28.7942 13.0234 27.6401C11.1095 32.0562 10.1519 36.8274 10.2134 41.6401C9.09424 41.2761 7.92958 41.0708 6.75342 41.0301H6.53342C5.74408 41.0516 4.96677 41.2288 4.24604 41.5514C3.52531 41.874 2.87535 42.3357 2.33343 42.9101C-1.21657 28.5001 5.07343 7.03007 28.6934 7.03007C31.004 7.01985 33.3095 7.24772 35.5734 7.71007C36.2264 6.16842 37.2226 4.79615 38.4862 3.69783C39.7498 2.59951 41.2474 1.80411 42.865 1.37225C44.4826 0.940391 46.1774 0.883461 47.8202 1.2058C49.4631 1.52814 51.0108 2.22124 52.3452 3.23229C53.6797 4.24334 54.7658 5.54566 55.5207 7.04002C56.2756 8.53437 56.6795 10.1813 56.7015 11.8554C56.7235 13.5295 56.3631 15.1865 55.6477 16.7002C54.9323 18.2139 53.8808 19.5443 52.5734 20.5901H52.6134Z" fill="#403E4C"/>
  <path d="M54.7733 5.82007C50.8833 5.07007 47.0333 4.58007 43.4633 6.68007C41.1433 8.04007 39.2033 9.68007 36.7233 10.8201C31.7233 13.0101 26.3733 13.3101 21.1233 14.3701C18.1233 14.9701 14.8533 15.7101 12.6633 17.9801C10.4733 20.2501 9.4033 23.8801 8.5233 26.8301C7.15014 31.4401 6.47598 36.2301 6.5233 41.0401C5.73396 41.0616 4.95664 41.2388 4.23591 41.5614C3.51518 41.884 2.86522 42.3457 2.3233 42.9201C-1.2167 28.5001 5.0733 7.03007 28.6933 7.03007C31.0039 7.01985 33.3094 7.24772 35.5733 7.71007C36.3472 5.89579 37.5948 4.32298 39.1852 3.15637C40.7757 1.98976 42.6506 1.27227 44.6136 1.07904C46.5766 0.885808 48.5554 1.22395 50.3428 2.05805C52.1302 2.89215 53.6605 4.19151 54.7733 5.82007Z" fill="#565466"/>
  <path d="M10.2133 41.67C9.09561 41.2959 7.93092 41.0805 6.75333 41.03H6.69333C5.9054 41.0766 5.13436 41.278 4.42425 41.6226C3.71414 41.9672 3.07885 42.4483 2.55467 43.0384C2.03048 43.6285 1.62766 44.3161 1.3692 45.0619C1.11075 45.8077 1.00172 46.5971 1.04834 47.385C1.09495 48.173 1.29631 48.944 1.64091 49.6541C1.98551 50.3642 2.4666 50.9995 3.05671 51.5237C3.64683 52.0479 4.33442 52.4507 5.08021 52.7092C5.826 52.9676 6.6154 53.0766 7.40333 53.03" stroke="#27272D" stroke-width="2" stroke-linecap="round" stroke-linejoin="round"/>
  <path d="M47.1733 41.67C48.2911 41.2959 49.4557 41.0805 50.6333 41.03H50.6933C51.4813 41.0766 52.2523 41.278 52.9624 41.6226C53.6725 41.9672 54.3078 42.4483 54.832 43.0384C55.3562 43.6285 55.759 44.3161 56.0175 45.0619C56.2759 45.8077 56.385 46.5971 56.3383 47.385C56.2917 48.173 56.0904 48.944 55.7458 49.6541C55.4012 50.3642 54.9201 50.9995 54.33 51.5237C53.7398 52.0479 53.0523 52.4507 52.3065 52.7092C51.5607 52.9676 50.7713 53.0766 49.9833 53.03" stroke="#27272D" stroke-width="2" stroke-linecap="round" stroke-linejoin="round"/>
  <path d="M7.40332 53.03C8.31332 58.26 10.1733 62.88 13.4033 66.26C15.6328 68.6136 18.4713 70.3029 21.6033 71.14C26.2758 72.3799 31.1908 72.3799 35.8633 71.14C38.9953 70.3029 41.8338 68.6136 44.0633 66.26C47.2533 62.88 49.0633 58.26 50.0633 53.03" stroke="#27272D" stroke-width="2" stroke-linecap="round" stroke-linejoin="round"/>
  <path d="M10.2132 41.6701C10.1517 36.8574 11.1093 32.0862 13.0232 27.6701C18.2664 28.8241 23.7439 28.2124 28.6032 25.9301C30.6032 27.6601 36.0932 31.2801 45.3932 30.2301C46.6031 33.9319 47.2042 37.8056 47.1732 41.7001" stroke="#27272D" stroke-width="2" stroke-linecap="round" stroke-linejoin="round"/>
  <path d="M2.33343 42.9201C-1.21657 28.5001 5.07343 7.03007 28.6934 7.03007C31.004 7.01985 33.3095 7.24772 35.5734 7.71007C36.2264 6.16842 37.2226 4.79615 38.4862 3.69783C39.7498 2.59951 41.2474 1.80411 42.865 1.37225C44.4826 0.940391 46.1774 0.883461 47.8202 1.2058C49.4631 1.52814 51.0108 2.22124 52.3452 3.23229C53.6797 4.24334 54.7658 5.54566 55.5207 7.04002C56.2756 8.53437 56.6795 10.1813 56.7015 11.8554C56.7235 13.5295 56.3631 15.1865 55.6477 16.7002C54.9323 18.2139 53.8808 19.5443 52.5734 20.5901C55.973 27.519 56.8364 35.4204 55.0134 42.9201" stroke="#27272D" stroke-width="2" stroke-linecap="round" stroke-linejoin="round"/>
  <g opacity="0.24">
  <path opacity="0.24" d="M15.5333 36.56C16.5191 36.1712 17.5407 35.8798 18.5833 35.69C19.6539 35.4868 20.7455 35.4162 21.8333 35.48C21.9646 35.4879 22.0931 35.5216 22.2114 35.5791C22.3297 35.6366 22.4355 35.7169 22.5228 35.8153C22.6101 35.9138 22.6772 36.0284 22.7201 36.1528C22.7631 36.2771 22.7812 36.4087 22.7733 36.54C22.7654 36.6714 22.7318 36.7998 22.6742 36.9181C22.6167 37.0365 22.5364 37.1423 22.438 37.2296C22.3396 37.3168 22.2249 37.3839 22.1005 37.4269C21.9762 37.4698 21.8446 37.4879 21.7133 37.48H21.5533C20.6163 37.2609 19.6554 37.1601 18.6933 37.18C17.7219 37.1935 16.7541 37.3006 15.8033 37.5C15.6707 37.5385 15.5282 37.5227 15.4073 37.4561C15.2863 37.3895 15.1968 37.2776 15.1583 37.145C15.1198 37.0124 15.1356 36.87 15.2022 36.749C15.2688 36.628 15.3807 36.5385 15.5133 36.5L15.5333 36.56Z" fill="#27272D"/>
  </g>
  <g opacity="0.24">
  <path opacity="0.24" d="M41.2733 38.3001C40.9506 37.9324 40.5687 37.6215 40.1433 37.3801C39.7279 37.1357 39.2697 36.9728 38.7933 36.9001C38.3338 36.816 37.8628 36.816 37.4033 36.9001C36.9361 36.9974 36.4827 37.1519 36.0533 37.3601C35.8106 37.4688 35.5347 37.4767 35.2862 37.382C35.0377 37.2873 34.837 37.0977 34.7283 36.8551C34.6195 36.6124 34.6117 36.3365 34.7064 36.088C34.8011 35.8395 34.9906 35.6388 35.2333 35.5301H35.3633C35.9797 35.3369 36.6181 35.2226 37.2633 35.1901C37.9197 35.1564 38.5768 35.2411 39.2033 35.4401C39.8177 35.6322 40.3909 35.9374 40.8933 36.3401C41.3934 36.7318 41.82 37.2092 42.1533 37.7501C42.2151 37.8566 42.2355 37.9822 42.2105 38.1028C42.1855 38.2233 42.1168 38.3305 42.0177 38.4036C41.9186 38.4767 41.7959 38.5106 41.6733 38.4989C41.5507 38.4872 41.4368 38.4306 41.3533 38.3401L41.2733 38.3001Z" fill="#27272D"/>
  </g>
  <g opacity="0.24">
  <path opacity="0.24" d="M5.36329 49.4001C5.00745 49.1186 4.70006 48.7808 4.45329 48.4001C4.18141 47.989 4.01013 47.5196 3.95329 47.0301C3.89387 46.5035 3.98035 45.9708 4.20329 45.4901C4.41126 45.0407 4.69166 44.6285 5.03328 44.2701C5.20965 44.0698 5.45834 43.9478 5.72464 43.931C5.99095 43.9141 6.25305 44.0037 6.45329 44.1801C6.65353 44.3564 6.7755 44.6051 6.79238 44.8714C6.80926 45.1377 6.71966 45.3998 6.54329 45.6001L6.39329 45.7401C6.16332 45.8955 5.95774 46.0842 5.78328 46.3001C5.62538 46.4877 5.52473 46.7168 5.49329 46.9601C5.46145 47.2416 5.49922 47.5266 5.60329 47.7901C5.71678 48.0891 5.87527 48.3689 6.07329 48.6201C6.1455 48.7163 6.18056 48.8355 6.17203 48.9555C6.1635 49.0756 6.11195 49.1885 6.02685 49.2736C5.94174 49.3587 5.82878 49.4103 5.70873 49.4188C5.58868 49.4273 5.46957 49.3923 5.37329 49.3201L5.36329 49.4001Z" fill="#27272D"/>
  </g>
  <g opacity="0.24">
  <path opacity="0.24" d="M52.3533 44.2801C52.6897 44.6477 52.9603 45.0706 53.1533 45.5301C53.3571 45.9959 53.4528 46.5019 53.4333 47.0101C53.4119 47.5179 53.2491 48.0097 52.9633 48.4301C52.711 48.8159 52.3928 49.1544 52.0233 49.4301C51.927 49.5023 51.8079 49.5373 51.6878 49.5288C51.5678 49.5203 51.4548 49.4687 51.3697 49.3836C51.2846 49.2985 51.2331 49.1856 51.2245 49.0655C51.216 48.9455 51.251 48.8263 51.3233 48.7301C51.5354 48.4909 51.7046 48.2169 51.8233 47.9201C51.9244 47.673 51.9487 47.4012 51.8933 47.1401C51.8367 46.882 51.724 46.6396 51.5633 46.4301C51.4026 46.2094 51.2066 46.0169 50.9833 45.8601C50.7777 45.6903 50.648 45.4459 50.6227 45.1805C50.5974 44.9152 50.6785 44.6506 50.8483 44.4451C51.018 44.2395 51.2624 44.1098 51.5278 44.0845C51.7932 44.0592 52.0577 44.1403 52.2633 44.3101L52.3533 44.2801Z" fill="#27272D"/>
  </g>
  <path d="M37.6934 46.03C38.7979 46.03 39.6934 44.6869 39.6934 43.03C39.6934 41.3732 38.7979 40.03 37.6934 40.03C36.5888 40.03 35.6934 41.3732 35.6934 43.03C35.6934 44.6869 36.5888 46.03 37.6934 46.03Z" fill="#27272D"/>
  <path d="M19.6934 46.03C20.7979 46.03 21.6934 44.6869 21.6934 43.03C21.6934 41.3732 20.7979 40.03 19.6934 40.03C18.5888 40.03 17.6934 41.3732 17.6934 43.03C17.6934 44.6869 18.5888 46.03 19.6934 46.03Z" fill="#27272D"/>
  <path d="M22.6934 59.03C24.4243 60.3283 26.5297 61.03 28.6934 61.03C30.8571 61.03 32.9624 60.3283 34.6934 59.03" stroke="#27272D" stroke-width="2" stroke-linecap="round" stroke-linejoin="round"/>
</svg>
