<svg width="78" height="76" viewBox="0 0 78 76" fill="none" xmlns="http://www.w3.org/2000/svg">
  <path d="M77.0001 70.6247C77.0001 70.6247 72.0001 71.6247 67.0001 65.6247C67.2344 68.8279 68.2657 71.9216 70.0001 74.6247C68.3616 74.5521 66.7494 74.1863 65.2401 73.5447C63.3701 66.9547 59.9001 63.4347 54.3301 61.8147C57.5201 58.4347 59.3301 53.8147 60.3301 48.5847C61.1426 48.679 61.9658 48.6061 62.7492 48.3705C63.5325 48.135 64.2594 47.7417 64.8852 47.215C65.511 46.6882 66.0225 46.0391 66.3883 45.3074C66.754 44.5757 66.9663 43.777 67.012 42.9603C67.0578 42.1436 66.936 41.3261 66.6543 40.5582C66.3726 39.7902 65.9368 39.088 65.3738 38.4947C64.8107 37.9013 64.1323 37.4293 63.3801 37.1078C62.628 36.7862 61.8181 36.6218 61.0001 36.6247H60.9401C60.6256 36.6296 60.3118 36.6529 60.0001 36.6947V8.34473C65.3101 14.0747 69.8301 22.8547 73.0001 33.6247C78.0001 50.6247 69.0001 50.6247 77.0001 70.6247Z" fill="#F2E9A2"/>
  <path d="M61.0001 36.6247C61.788 36.6713 62.5591 36.8726 63.2692 37.2172C63.9793 37.5618 64.6146 38.0429 65.1388 38.6331C65.6629 39.2232 66.0658 39.9108 66.3242 40.6565C66.5827 41.4023 66.6917 42.1917 66.6451 42.9797C66.5985 43.7676 66.3971 44.5386 66.0525 45.2487C65.7079 45.9589 65.2268 46.5941 64.6367 47.1183C64.0466 47.6425 63.359 48.0453 62.6132 48.3038C61.8674 48.5623 61.078 48.6713 60.2901 48.6247C59.3801 53.8547 57.5201 58.4747 54.2901 61.8547C50.9101 65.4347 46.0001 67.6247 39.0001 67.6247C32.0001 67.6247 27.0901 65.4347 23.6701 61.8147C20.4801 58.4347 18.6701 53.8147 17.6701 48.5847C16.8576 48.6789 16.0343 48.606 15.251 48.3705C14.4676 48.1349 13.7407 47.7417 13.1149 47.2149C12.4891 46.6882 11.9776 46.039 11.6119 45.3073C11.2462 44.5757 11.0339 43.7769 10.9882 42.9602C10.9424 42.1435 11.0641 41.3261 11.3459 40.5581C11.6276 39.7902 12.0634 39.088 12.6264 38.4946C13.1895 37.9012 13.8679 37.4293 14.62 37.1077C15.3722 36.7861 16.1821 36.6218 17.0001 36.6247C17.9954 36.6554 18.983 36.81 19.9401 37.0847C20.6432 37.2788 21.3316 37.5228 22.0001 37.8147V42.6247C22.0001 43.6855 22.4215 44.703 23.1717 45.4531C23.9218 46.2032 24.9392 46.6247 26.0001 46.6247H29.0001C30.4733 46.6239 31.9176 46.2165 33.174 45.4471C34.4303 44.6778 35.4498 43.5765 36.1201 42.2647C36.3622 41.7735 36.7368 41.3597 37.2014 41.07C37.6661 40.7802 38.2025 40.626 38.7501 40.6247H39.2501C39.7977 40.626 40.3341 40.7802 40.7988 41.07C41.2634 41.3597 41.638 41.7735 41.8801 42.2647C42.5504 43.5765 43.5699 44.6778 44.8262 45.4471C46.0826 46.2165 47.5269 46.6239 49.0001 46.6247H52.0001C52.7864 46.6232 53.5548 46.39 54.2093 45.9543C54.8638 45.5185 55.3754 44.8995 55.6801 44.1747C54.6801 50.9447 51.4101 53.2547 43.2901 53.5847C42.7759 52.9478 42.1206 52.4392 41.3761 52.099C40.6316 51.7589 39.8182 51.5965 39.0001 51.6247C36.2401 51.6247 34.0001 53.4147 34.0001 55.6247C34.0001 57.8347 36.2401 59.6247 39.0001 59.6247C39.8329 59.6576 40.6618 59.4937 41.4193 59.1462C42.1769 58.7987 42.8418 58.2774 43.3601 57.6247C55.5901 57.0147 60.0001 51.8347 60.0001 38.6247V36.6947C60.3118 36.6529 60.6257 36.6295 60.9401 36.6247H61.0001Z" fill="#846A61"/>
  <path d="M60.2199 49.0447C60.1599 49.3847 60.0999 49.7247 60.0299 50.0447C59.2553 54.4465 57.2832 58.5499 54.3299 61.9047C50.9099 65.5347 45.9999 67.7247 38.9999 67.7247C38.1199 67.7247 37.2799 67.7247 36.4599 67.6247C34.3075 67.4649 32.1892 66.9968 30.1699 66.2347C34.0532 64.9845 38.0026 63.9496 41.9999 63.1347C49.7399 61.5647 54.8099 58.4847 57.8799 50.9647C58.0691 50.4687 58.3845 50.0307 58.7949 49.6939C59.2053 49.3572 59.6965 49.1334 60.2199 49.0447Z" fill="#725650"/>
  <path d="M60 36.6948V38.6248C60 51.8348 55.59 57.0148 43.36 57.6248C43.7822 57.0439 44.0066 56.3428 44 55.6248C43.9835 54.8993 43.7347 54.1982 43.29 53.6248C51.41 53.2948 54.71 50.9848 55.68 44.2148C55.8999 43.714 56.009 43.1716 56 42.6248V7.28476C55.9995 6.53925 56.2073 5.80843 56.6 5.17476C56.7612 4.91325 56.9525 4.6716 57.17 4.45476L59.17 2.45476L60 1.62476V36.6948Z" fill="#E8345F"/>
  <path d="M56.6 5.17471C56.2073 5.80839 55.9995 6.53921 56 7.28471V28.0747C52.47 15.6947 42 20.6247 42 20.6247C36 13.6247 31 21.6247 31 21.6247C25 16.5247 20.55 26.6247 19.94 37.0847C18.9829 36.81 17.9953 36.6555 17 36.6247C16.2121 36.6713 15.441 36.8727 14.7309 37.2173C14.0208 37.5619 13.3855 38.043 12.8613 38.6331C12.3371 39.2232 11.9343 39.9108 11.6759 40.6566C11.4174 41.4024 11.3084 42.1918 11.355 42.9797C11.4016 43.7676 11.603 44.5387 11.9476 45.2488C12.2922 45.9589 12.7733 46.5942 13.3634 47.1184C13.9535 47.6426 14.6411 48.0454 15.3869 48.3038C16.1327 48.5623 16.9221 48.6713 17.71 48.6247C18.62 53.8547 20.48 58.4747 23.71 61.8547C18.14 63.4747 14.71 66.9947 12.8 73.5847C11.2756 74.2173 9.64953 74.5696 8 74.6247C9.73438 71.9216 10.7656 68.8278 11 65.6247C9.74018 67.1995 8.17996 68.5081 6.41 69.4747C4.77635 70.4275 2.87995 70.8306 1 70.6247C9 50.6247 0 50.6247 5 33.6247C11.78 10.6247 22.66 2.98471 37.2 3.49471C40.0324 1.70259 43.3534 0.839112 46.7 1.02471C50.3453 1.36893 53.7989 2.81666 56.6 5.17471Z" fill="#F2E9A2"/>
  <path d="M56 37.8148V42.6248C56.0033 43.1582 55.8943 43.6863 55.68 44.1748C55.3753 44.8996 54.8637 45.5186 54.2092 45.9544C53.5547 46.3901 52.7863 46.6233 52 46.6248H49C47.5268 46.624 46.0825 46.2165 44.8261 45.4472C43.5698 44.6779 42.5503 43.5766 41.88 42.2648C41.6379 41.7736 41.2633 41.3598 40.7987 41.07C40.334 40.7803 39.7976 40.6261 39.25 40.6248H38.75C38.2024 40.6261 37.666 40.7803 37.2013 41.07C36.7367 41.3598 36.3621 41.7736 36.12 42.2648C35.4497 43.5766 34.4302 44.6779 33.1739 45.4472C31.9175 46.2165 30.4732 46.624 29 46.6248H26C24.9391 46.6248 23.9217 46.2033 23.1716 45.4532C22.4214 44.703 22 43.6856 22 42.6248V36.6248C22 35.2987 22.5268 34.0269 23.4645 33.0892C24.4021 32.1515 25.6739 31.6248 27 31.6248H51C52.3261 31.6248 53.5979 32.1515 54.5355 33.0892C55.4732 34.0269 56 35.2987 56 36.6248V37.8148Z" fill="#846A61"/>
  <path d="M55.9999 28.0748V36.6248C55.9999 35.2987 55.4732 34.0269 54.5355 33.0892C53.5978 32.1515 52.326 31.6248 50.9999 31.6248H26.9999C25.6739 31.6248 24.4021 32.1515 23.4644 33.0892C22.5267 34.0269 21.9999 35.2987 21.9999 36.6248V37.8148C21.3315 37.5228 20.6431 37.2789 19.9399 37.0848C20.5499 26.6248 25.0499 16.5248 30.9999 21.6248C30.9999 21.6248 35.9999 13.6248 41.9999 20.6248C41.9999 20.6248 52.4699 15.6948 55.9999 28.0748Z" fill="#846A61"/>
  <path d="M44 55.6247C44.0065 56.3427 43.7822 57.0439 43.36 57.6247C42.8417 58.2774 42.1768 58.7987 41.4192 59.1462C40.6617 59.4937 39.8328 59.6576 39 59.6247C36.24 59.6247 34 57.8347 34 55.6247C34 53.4147 36.24 51.6247 39 51.6247C39.8214 51.6013 40.6369 51.7698 41.3817 52.1171C42.1264 52.4643 42.7799 52.9805 43.29 53.6247C43.7346 54.1982 43.9835 54.8992 44 55.6247Z" fill="#EDD64A"/>
  <path d="M56 36.6248C56 35.2987 55.4732 34.0269 54.5355 33.0892C53.5979 32.1515 52.3261 31.6248 51 31.6248H27C25.6739 31.6248 24.4021 32.1515 23.4645 33.0892C22.5268 34.0269 22 35.2987 22 36.6248V42.6248C22 43.6856 22.4214 44.703 23.1716 45.4532C23.9217 46.2033 24.9391 46.6248 26 46.6248H29C30.4732 46.624 31.9175 46.2165 33.1739 45.4472C34.4302 44.6779 35.4497 43.5766 36.12 42.2648C36.3621 41.7736 36.7367 41.3598 37.2013 41.07C37.666 40.7803 38.2024 40.6261 38.75 40.6248H39.25C39.7976 40.6261 40.334 40.7803 40.7987 41.07C41.2633 41.3598 41.6379 41.7736 41.88 42.2648C42.5503 43.5766 43.5698 44.6779 44.8261 45.4472C46.0825 46.2165 47.5268 46.624 49 46.6248H52C52.7863 46.6233 53.5547 46.3901 54.2092 45.9544C54.8637 45.5186 55.3753 44.8996 55.68 44.1748C55.8943 43.6863 56.0033 43.1582 56 42.6248V37.8148" fill="#8BE8EF"/>
  <path d="M46.7 1.02471C44 2.62471 41.11 4.17471 38.42 5.84471C33.87 8.68471 29.73 8.84471 24.69 10.1647C19.65 11.4847 18.43 16.5547 16.31 20.7947C13.68 26.0647 9.94 30.5247 9.06 36.5247C8.22 42.2047 9.79 47.4047 10.67 52.9547C11.67 59.4947 9.77 64.7447 6.41 69.4747C4.77635 70.4275 2.87995 70.8306 1 70.6247C9 50.6247 0 50.6247 5 33.6247C11.78 10.6247 22.66 2.98471 37.2 3.49471C40.0324 1.70259 43.3534 0.839112 46.7 1.02471Z" fill="#F7F1CD"/>
  <path d="M60.0001 36.6947C60.3118 36.6529 60.6257 36.6295 60.9401 36.6247H61.0001C61.788 36.6713 62.5591 36.8726 63.2692 37.2172C63.9793 37.5618 64.6146 38.0429 65.1388 38.6331C65.663 39.2232 66.0658 39.9108 66.3242 40.6565C66.5827 41.4023 66.6917 42.1917 66.6451 42.9797C66.5985 43.7676 66.3971 44.5386 66.0525 45.2487C65.7079 45.9589 65.2268 46.5941 64.6367 47.1183C64.0466 47.6425 63.359 48.0453 62.6132 48.3038C61.8674 48.5623 61.078 48.6713 60.2901 48.6247C59.3801 53.8547 57.5201 58.4747 54.2901 61.8547C50.9101 65.4347 46.0001 67.6247 39.0001 67.6247C32.0001 67.6247 27.0901 65.4347 23.6701 61.8147C20.4801 58.4347 18.6701 53.8147 17.6701 48.5847C16.8576 48.6789 16.0343 48.606 15.251 48.3705C14.4676 48.1349 13.7407 47.7417 13.1149 47.2149C12.4891 46.6882 11.9776 46.039 11.6119 45.3073C11.2462 44.5757 11.0339 43.7769 10.9882 42.9602C10.9424 42.1435 11.0641 41.3261 11.3459 40.5581C11.6276 39.7902 12.0634 39.088 12.6264 38.4946C13.1895 37.9012 13.8679 37.4293 14.62 37.1077C15.3722 36.7861 16.1821 36.6218 17.0001 36.6247C17.9954 36.6554 18.983 36.81 19.9401 37.0847C20.6432 37.2788 21.3316 37.5228 22.0001 37.8147" stroke="#27272D" stroke-width="2" stroke-linecap="round" stroke-linejoin="round"/>
  <path d="M19.9399 37.0848C20.5499 26.6248 25.0499 16.5248 30.9999 21.6248C30.9999 21.6248 35.9999 13.6248 41.9999 20.6248C41.9999 20.6248 52.4699 15.6948 55.9999 28.0748" stroke="#27272D" stroke-width="2" stroke-linecap="round" stroke-linejoin="round"/>
  <path d="M12.76 73.5447C11.2506 74.1863 9.63846 74.5521 8 74.6247C9.73438 71.9215 10.7656 68.8278 11 65.6247C6 71.6247 1 70.6247 1 70.6247C9 50.6247 0 50.6247 5 33.6247C11.78 10.6247 22.66 2.98467 37.2 3.49467" stroke="#27272D" stroke-width="2" stroke-linecap="round" stroke-linejoin="round"/>
  <path d="M37.2 3.49466C43.93 -0.505336 50.63 0.494664 56.6 5.17466" stroke="#27272D" stroke-width="2" stroke-linecap="round" stroke-linejoin="round"/>
  <path d="M60 8.34473C65.31 14.0747 69.83 22.8547 73 33.6247C78 50.6247 69 50.6247 77 70.6247C77 70.6247 72 71.6247 67 65.6247C67.2344 68.8279 68.2656 71.9216 70 74.6247C68.3615 74.5521 66.7494 74.1863 65.24 73.5447" stroke="#27272D" stroke-width="2" stroke-linecap="round" stroke-linejoin="round"/>
  <path d="M56 36.6248C56 35.2987 55.4732 34.0269 54.5355 33.0892C53.5979 32.1515 52.3261 31.6248 51 31.6248H27C25.6739 31.6248 24.4021 32.1515 23.4645 33.0892C22.5268 34.0269 22 35.2987 22 36.6248V42.6248C22 43.6856 22.4214 44.703 23.1716 45.4532C23.9217 46.2033 24.9391 46.6248 26 46.6248H29C30.4732 46.624 31.9175 46.2165 33.1739 45.4472C34.4302 44.6779 35.4497 43.5766 36.12 42.2648C36.3621 41.7736 36.7367 41.3598 37.2013 41.07C37.666 40.7803 38.2024 40.6261 38.75 40.6248H39.25C39.7976 40.6261 40.334 40.7803 40.7987 41.07C41.2633 41.3598 41.6379 41.7736 41.88 42.2648C42.5503 43.5766 43.5698 44.6779 44.8261 45.4472C46.0825 46.2165 47.5268 46.624 49 46.6248H52C52.7863 46.6233 53.5547 46.3901 54.2092 45.9544C54.8637 45.5186 55.3753 44.8996 55.68 44.1748C55.8943 43.6863 56.0033 43.1582 56 42.6248V37.8148" stroke="#27272D" stroke-width="2" stroke-linecap="round" stroke-linejoin="round"/>
  <path d="M43.3601 57.6248C55.5901 57.0148 60.0001 51.8348 60.0001 38.6248V1.62476L59.1601 2.46476L57.1601 4.46476C56.9426 4.6816 56.7512 4.92325 56.5901 5.18476C56.1974 5.81844 55.9896 6.54925 55.9901 7.29475V37.8148" stroke="#27272D" stroke-width="2" stroke-linecap="round" stroke-linejoin="round"/>
  <path d="M55.68 44.1747C54.68 50.9447 51.41 53.2547 43.29 53.5847" stroke="#27272D" stroke-width="2" stroke-linecap="round" stroke-linejoin="round"/>
  <path d="M43.29 53.6247C43.7346 54.1982 43.9835 54.8992 44 55.6247C44.0065 56.3427 43.7822 57.0439 43.36 57.6247C42.8417 58.2774 42.1768 58.7987 41.4192 59.1462C40.6617 59.4937 39.8328 59.6576 39 59.6247C36.24 59.6247 34 57.8347 34 55.6247C34 53.4147 36.24 51.6247 39 51.6247C39.8214 51.6013 40.6369 51.7698 41.3817 52.1171C42.1264 52.4643 42.7799 52.9805 43.29 53.6247V53.6247Z" stroke="#27272D" stroke-width="2" stroke-linecap="round" stroke-linejoin="round"/>
  <g opacity="0.24">
  <path opacity="0.24" d="M15.6699 44.9947C15.3141 44.7132 15.0067 44.3754 14.7599 43.9947C14.4881 43.5836 14.3168 43.1142 14.2599 42.6247C14.2005 42.0981 14.287 41.5654 14.5099 41.0847C14.7179 40.6353 14.9983 40.2231 15.3399 39.8647C15.5163 39.6644 15.765 39.5425 16.0313 39.5256C16.2976 39.5087 16.5597 39.5983 16.7599 39.7747C16.9602 39.951 17.0821 40.1997 17.099 40.466C17.1159 40.7323 17.0263 40.9944 16.8499 41.1947L16.6999 41.3347C16.47 41.4901 16.2644 41.6788 16.0899 41.8947C15.932 42.0823 15.8314 42.3114 15.7999 42.5547C15.7681 42.8362 15.8059 43.1212 15.9099 43.3847C16.0234 43.6837 16.1819 43.9635 16.3799 44.2147C16.4521 44.3109 16.4872 44.4301 16.4787 44.5501C16.4701 44.6702 16.4186 44.7831 16.3335 44.8682C16.2484 44.9533 16.1354 45.0049 16.0154 45.0134C15.8953 45.0219 15.7762 44.9869 15.6799 44.9147L15.6699 44.9947Z" fill="#27272D"/>
  </g>
  <g opacity="0.24">
  <path opacity="0.24" d="M62.6599 39.8747C62.9964 40.2423 63.267 40.6652 63.4599 41.1247C63.6637 41.5906 63.7594 42.0965 63.7399 42.6047C63.719 43.1126 63.5562 43.6046 63.2699 44.0247C63.0177 44.4106 62.6995 44.749 62.3299 45.0247C62.2336 45.0969 62.1145 45.1319 61.9945 45.1234C61.8744 45.1149 61.7615 45.0633 61.6764 44.9782C61.5912 44.8931 61.5397 44.7802 61.5312 44.6601C61.5226 44.5401 61.5577 44.4209 61.6299 44.3247C61.8421 44.0855 62.0112 43.8115 62.1299 43.5147C62.231 43.2676 62.2554 42.9958 62.1999 42.7347C62.1433 42.4767 62.0307 42.2343 61.8699 42.0247C61.7093 41.804 61.5133 41.6115 61.2899 41.4547C61.0844 41.2849 60.9547 41.0405 60.9294 40.7751C60.904 40.5098 60.9852 40.2452 61.1549 40.0397C61.3246 39.8341 61.5691 39.7044 61.8344 39.6791C62.0998 39.6538 62.3644 39.7349 62.5699 39.9047L62.6599 39.8747Z" fill="#27272D"/>
  </g>
  <path d="M47 40.6248C48.1046 40.6248 49 39.7293 49 38.6248C49 37.5202 48.1046 36.6248 47 36.6248C45.8954 36.6248 45 37.5202 45 38.6248C45 39.7293 45.8954 40.6248 47 40.6248Z" fill="#27272D"/>
  <path d="M31 40.6248C32.1046 40.6248 33 39.7293 33 38.6248C33 37.5202 32.1046 36.6248 31 36.6248C29.8954 36.6248 29 37.5202 29 38.6248C29 39.7293 29.8954 40.6248 31 40.6248Z" fill="#27272D"/>
</svg>
