<svg width="58" height="71" viewBox="0 0 58 71" fill="none" xmlns="http://www.w3.org/2000/svg">
  <path d="M55.5054 30.5C55.5042 33.7771 55.2299 37.0484 54.6854 40.28C53.6272 39.4495 52.3206 38.9987 50.9754 39H50.9154C49.441 39.0733 47.9884 39.3875 46.6154 39.93C46.0568 35.0546 45.212 30.2162 44.0854 25.44C39.1016 26.384 34.047 26.9059 28.9754 27C23.9039 26.9059 18.8493 26.384 13.8654 25.44C12.7389 30.2162 11.8941 35.0546 11.3354 39.93C10.0039 39.3998 8.59612 39.0858 7.16545 39H6.97545C5.63829 39.0003 4.33957 39.4473 3.28544 40.27C-1.02456 13.68 12.1354 5.35 27.9754 5C35.4965 5.0785 42.9634 3.72088 49.9754 1C49.9482 2.63139 49.5803 4.23909 48.8954 5.72C48.6538 6.18983 48.3437 6.62119 47.9754 7C49.0459 7.59544 50.2505 7.90794 51.4754 7.90794C52.7003 7.90794 53.905 7.59544 54.9754 7C50.9754 15 55.5054 19 55.5054 30.5Z" fill="#59392E"/>
  <path d="M49.9754 1C49.9482 2.63139 49.5803 4.23909 48.8954 5.72C47.2269 7.04417 45.4657 8.24724 43.6254 9.32C38.4654 12.32 32.8554 11.76 27.1254 12.13C20.0654 12.59 12.8054 14.67 9.65545 21.63C7.35749 27.1128 6.50032 33.0924 7.16545 39H6.97545C5.63829 39.0003 4.33957 39.4473 3.28544 40.27C-1.02456 13.68 12.1354 5.35 27.9754 5C35.4965 5.0785 42.9634 3.72088 49.9754 1V1Z" fill="#6D5041"/>
  <path d="M54.6754 40.2799C53.6199 39.4516 52.3172 39.0009 50.9754 38.9999H50.9154C49.441 39.0733 47.9884 39.3874 46.6154 39.9299C46.0568 35.0545 45.212 30.2162 44.0854 25.4399C39.1016 26.384 34.047 26.9058 28.9754 26.9999C23.9039 26.9058 18.8493 26.384 13.8654 25.4399C12.7389 30.2162 11.8941 35.0545 11.3354 39.9299C9.96243 39.3874 8.5099 39.0733 7.03543 38.9999H6.97543C5.63828 39.0003 4.33955 39.4473 3.28543 40.2699C2.44416 40.9331 1.7958 41.8095 1.40767 42.8079C1.01954 43.8064 0.905804 44.8906 1.07827 45.9478C1.25074 47.0051 1.70313 47.9969 2.38845 48.8203C3.07376 49.6436 3.96701 50.2685 4.97543 50.6299V50.6299C5.61644 50.8653 6.29266 50.9904 6.97543 50.9999C7.21189 51.014 7.44897 51.014 7.68543 50.9999C8.60543 56.2399 10.4554 60.8599 13.6854 64.2299C16.6953 67.3195 20.6873 69.2642 24.9754 69.7299C27.6299 70.09 30.3209 70.09 32.9754 69.7299C37.283 69.2624 41.2912 67.3025 44.3054 64.1899C47.4954 60.8199 49.3054 56.1899 50.3054 50.9599C50.5419 50.974 50.779 50.974 51.0154 50.9599C51.6976 50.9536 52.3738 50.8318 53.0154 50.5999V50.5999C54.0188 50.233 54.9061 49.6048 55.5855 48.7802C56.2649 47.9556 56.7117 46.9646 56.8799 45.9095C57.0481 44.8544 56.9316 43.7736 56.5422 42.7786C56.1529 41.7836 55.505 40.9107 54.6654 40.2499L54.6754 40.2799Z" fill="#F1BF9C"/>
  <path d="M50.1653 51.34C50.1053 51.68 50.0453 52.02 49.9753 52.34C49.2007 56.7418 47.2286 60.8452 44.2753 64.2V64.2C40.8553 67.83 35.9053 70 28.9753 70C28.0953 70 27.2553 70 26.4353 69.9C24.2829 69.7402 22.1646 69.2721 20.1453 68.51C24.029 67.2665 27.9783 66.2383 31.9753 65.43C39.7153 63.86 44.7853 60.78 47.8553 53.26C48.0419 52.7678 48.3527 52.3323 48.7575 51.9959C49.1623 51.6594 49.6473 51.4335 50.1653 51.34V51.34Z" fill="#DBA47F"/>
  <path d="M3.2854 40.27C4.33952 39.4473 5.63825 39.0003 6.9754 39H7.0354C8.50987 39.0733 9.96241 39.3875 11.3354 39.93C11.8966 40.1315 12.4444 40.3686 12.9754 40.64" stroke="#27272D" stroke-width="2" stroke-linecap="round" stroke-linejoin="round"/>
  <path d="M7.68523 51C7.44877 51.0141 7.21169 51.0141 6.97523 51C6.29303 50.9937 5.61683 50.8719 4.97523 50.64V50.64C3.97251 50.272 3.08623 49.6429 2.40791 48.8178C1.72959 47.9927 1.28383 47.0015 1.11666 45.9465C0.949496 44.8915 1.06699 43.8111 1.457 42.8167C1.84702 41.8223 2.49541 40.9501 3.33523 40.29" stroke="#27272D" stroke-width="2" stroke-linecap="round" stroke-linejoin="round"/>
  <path d="M50.2653 51C50.5018 51.014 50.7389 51.014 50.9753 51C51.6575 50.9936 52.3337 50.8719 52.9753 50.64V50.64C54.2981 50.16 55.4101 49.2305 56.1169 48.0137C56.8237 46.797 57.0804 45.3706 56.8421 43.9838C56.6039 42.597 55.8857 41.338 54.8133 40.427C53.7409 39.516 52.3824 39.0109 50.9753 39H50.9153C49.4409 39.0733 47.9883 39.3875 46.6153 39.93C46.0541 40.1315 45.5063 40.3686 44.9753 40.64" stroke="#27272D" stroke-width="2" stroke-linecap="round" stroke-linejoin="round"/>
  <path d="M7.6853 51C8.6053 56.24 10.4553 60.86 13.6853 64.23C16.6952 67.3195 20.6872 69.2642 24.9753 69.73C27.6298 70.09 30.3208 70.09 32.9753 69.73C37.2829 69.2624 41.2911 67.3025 44.3053 64.19C47.4953 60.82 49.3053 56.19 50.3053 50.96" stroke="#27272D" stroke-width="2" stroke-linecap="round" stroke-linejoin="round"/>
  <path d="M23.5553 38H14.9753C14.7329 38.0016 14.4926 38.0456 14.2653 38.13C13.886 38.274 13.5595 38.5301 13.3291 38.8641C13.0987 39.1981 12.9753 39.5942 12.9753 40V42C12.9753 43.0609 13.3968 44.0783 14.1469 44.8284C14.8971 45.5786 15.9145 46 16.9753 46H19.9753C21.5666 46 23.0928 45.3679 24.218 44.2426C25.3432 43.1174 25.9753 41.5913 25.9753 40C25.9753 39.4696 25.7646 38.9609 25.3896 38.5858C25.0145 38.2107 24.5058 38 23.9753 38" stroke="#27272D" stroke-width="2" stroke-linecap="round" stroke-linejoin="round"/>
  <path d="M34.3953 38H42.9753C43.2178 38.0016 43.4581 38.0456 43.6853 38.13C44.0647 38.274 44.3912 38.5301 44.6216 38.8641C44.852 39.1981 44.9754 39.5942 44.9753 40V40.63V42C44.9753 43.0609 44.5539 44.0783 43.8038 44.8284C43.0536 45.5786 42.0362 46 40.9753 46H37.9753C36.384 46 34.8579 45.3679 33.7327 44.2426C32.6075 43.1174 31.9753 41.5913 31.9753 40C31.9753 39.4696 32.1861 38.9609 32.5611 38.5858C32.9362 38.2107 33.4449 38 33.9753 38" stroke="#27272D" stroke-width="2" stroke-linecap="round" stroke-linejoin="round"/>
  <path d="M23.5554 38H23.9754H33.9754H34.3954" stroke="#27272D" stroke-width="2" stroke-linecap="round" stroke-linejoin="round"/>
  <path d="M54.6754 40.28C55.2199 37.0484 55.4942 33.7771 55.4954 30.5V30.5C55.5054 19 50.9754 15 54.9754 7C53.905 7.59544 52.7003 7.90794 51.4754 7.90794C50.2505 7.90794 49.0459 7.59544 47.9754 7C49.9754 5 49.9754 1 49.9754 1C42.9634 3.72088 35.4965 5.0785 27.9754 5V5C12.1354 5.33 -1.02456 13.66 3.28544 40.25" stroke="#27272D" stroke-width="2" stroke-linecap="round" stroke-linejoin="round"/>
  <path d="M11.3354 39.9299C11.8941 35.0545 12.7389 30.2162 13.8654 25.4399C18.8493 26.384 23.9039 26.9058 28.9754 26.9999C34.047 26.9058 39.1016 26.384 44.0854 25.4399C45.212 30.2162 46.0568 35.0545 46.6154 39.9299" stroke="#27272D" stroke-width="2" stroke-linecap="round" stroke-linejoin="round"/>
  <g opacity="0.24">
  <path opacity="0.24" d="M16.8153 33.53C17.8011 33.1412 18.8227 32.8498 19.8653 32.66C20.9359 32.4567 22.0274 32.3862 23.1153 32.45C23.2466 32.4579 23.3751 32.4915 23.4934 32.5491C23.6117 32.6066 23.7175 32.6869 23.8048 32.7853C23.8921 32.8837 23.9591 32.9984 24.0021 33.1228C24.0451 33.2471 24.0632 33.3787 24.0553 33.51C24.0474 33.6413 24.0137 33.7698 23.9562 33.8881C23.8987 34.0064 23.8184 34.1122 23.72 34.1995C23.6215 34.2868 23.5069 34.3539 23.3825 34.3968C23.2582 34.4398 23.1266 34.4579 22.9953 34.45H22.8353C21.8982 34.2308 20.9374 34.13 19.9753 34.15C19.0039 34.1635 18.0361 34.2706 17.0853 34.47V34.47C16.9527 34.5085 16.8102 34.4927 16.6893 34.4261C16.5683 34.3595 16.4787 34.2476 16.4403 34.115C16.4018 33.9824 16.4176 33.8399 16.4842 33.719C16.5508 33.598 16.6627 33.5085 16.7953 33.47L16.8153 33.53Z" fill="#27272D"/>
  </g>
  <g opacity="0.24">
  <path opacity="0.24" d="M40.8152 34.47C39.8644 34.2706 38.8966 34.1634 37.9252 34.15C36.9806 34.1276 36.0369 34.2217 35.1152 34.43C34.9839 34.4595 34.8481 34.4629 34.7154 34.44C34.5828 34.417 34.456 34.3681 34.3422 34.2962C34.2285 34.2242 34.13 34.1306 34.0525 34.0205C33.9749 33.9105 33.9198 33.7863 33.8902 33.655C33.8607 33.5237 33.8573 33.3878 33.8802 33.2552C33.9032 33.1225 33.9521 32.9957 34.024 32.882C34.096 32.7682 34.1897 32.6698 34.2997 32.5922C34.4097 32.5147 34.5339 32.4595 34.6652 32.43H34.8252C35.9131 32.3662 37.0046 32.4367 38.0752 32.64C39.1179 32.8298 40.1394 33.1212 41.1252 33.51C41.2578 33.5484 41.3697 33.638 41.4363 33.759C41.5029 33.8799 41.5187 34.0224 41.4802 34.155C41.4418 34.2876 41.3522 34.3995 41.2313 34.4661C41.1103 34.5326 40.9678 34.5484 40.8352 34.51L40.8152 34.47Z" fill="#27272D"/>
  </g>
  <g opacity="0.24">
  <path opacity="0.24" d="M5.64527 47.37C5.28943 47.0886 4.98204 46.7508 4.73527 46.37C4.4634 45.9589 4.29211 45.4896 4.23527 45C4.17585 44.4735 4.26233 43.9407 4.48527 43.46C4.69324 43.0106 4.97364 42.5985 5.31527 42.24C5.49164 42.0398 5.74033 41.9178 6.00663 41.9009C6.27293 41.8841 6.53503 41.9737 6.73527 42.15C6.93551 42.3264 7.05748 42.5751 7.07436 42.8414C7.09124 43.1077 7.00164 43.3698 6.82527 43.57L6.67527 43.71C6.4453 43.8654 6.23972 44.0542 6.06527 44.27C5.90736 44.4577 5.80671 44.6868 5.77527 44.93C5.74343 45.2115 5.7812 45.4965 5.88527 45.76C5.99876 46.059 6.15725 46.3389 6.35527 46.59V46.59C6.42748 46.6863 6.46255 46.8054 6.45402 46.9255C6.44548 47.0455 6.39393 47.1585 6.30883 47.2436C6.22372 47.3287 6.11077 47.3802 5.99071 47.3888C5.87066 47.3973 5.75156 47.3622 5.65527 47.29L5.64527 47.37Z" fill="#27272D"/>
  </g>
  <g opacity="0.24">
  <path opacity="0.24" d="M52.6353 42.25C52.9717 42.6177 53.2423 43.0405 53.4352 43.5C53.639 43.9659 53.7348 44.4719 53.7152 44.98C53.6938 45.4879 53.5311 45.9797 53.2452 46.4C52.993 46.7859 52.6748 47.1244 52.3053 47.4C52.209 47.4722 52.0899 47.5073 51.9698 47.4988C51.8497 47.4902 51.7368 47.4387 51.6517 47.3536C51.5666 47.2685 51.515 47.1555 51.5065 47.0355C51.498 46.9154 51.533 46.7963 51.6052 46.7V46.7C51.8174 46.4609 51.9866 46.1869 52.1052 45.89C52.2063 45.6429 52.2307 45.3712 52.1752 45.11C52.1187 44.852 52.006 44.6096 51.8453 44.4C51.6846 44.1794 51.4886 43.9868 51.2653 43.83C51.0597 43.6603 50.93 43.4159 50.9047 43.1505C50.8794 42.8851 50.9605 42.6206 51.1302 42.415C51.3 42.2095 51.5444 42.0798 51.8098 42.0545C52.0752 42.0292 52.3397 42.1103 52.5452 42.28L52.6353 42.25Z" fill="#27272D"/>
  </g>
  <path d="M37.9753 43C39.0799 43 39.9753 42.1046 39.9753 41C39.9753 39.8954 39.0799 39 37.9753 39C36.8708 39 35.9753 39.8954 35.9753 41C35.9753 42.1046 36.8708 43 37.9753 43Z" fill="#27272D"/>
  <path d="M19.9753 43C21.0799 43 21.9753 42.1046 21.9753 41C21.9753 39.8954 21.0799 39 19.9753 39C18.8708 39 17.9753 39.8954 17.9753 41C17.9753 42.1046 18.8708 43 19.9753 43Z" fill="#27272D"/>
  <path d="M26.9753 59.28C26.9753 59.28 31.9753 60.67 34.9753 56.5" stroke="#27272D" stroke-width="2" stroke-linecap="round" stroke-linejoin="round"/>
</svg>
