<svg width="64" height="65" viewBox="0 0 64 65" fill="none" xmlns="http://www.w3.org/2000/svg">
  <path d="M53.66 29C53.81 30.3 53.9 31.64 53.94 33C52.7166 33.0509 51.5072 33.28 50.35 33.68C50.3544 32.1133 50.2374 30.5486 50 29H53.66Z" fill="#59392E"/>
  <path d="M10.3401 29H14.0001C13.7493 30.5476 13.6189 32.1123 13.6101 33.68C12.4656 33.2838 11.2699 33.0547 10.0601 33C10.1001 31.64 10.1901 30.3 10.3401 29Z" fill="#59392E"/>
  <path d="M10.0599 33C11.2833 33.0509 12.4927 33.28 13.65 33.68C13.6455 32.1133 13.7625 30.5486 13.9999 29H50C50.2508 30.5476 50.3811 32.1123 50.3899 33.68C51.5472 33.28 52.7566 33.0509 53.98 33H54C54.7879 33.0466 55.5589 33.248 56.269 33.5926C56.9791 33.9372 57.6144 34.4183 58.1386 35.0084C58.6628 35.5985 59.0656 36.2861 59.3241 37.0319C59.5825 37.7777 59.6916 38.5671 59.6449 39.355C59.5983 40.1429 59.397 40.914 59.0524 41.6241C58.7078 42.3342 58.2267 42.9695 57.6366 43.4937C57.0465 44.0178 56.3589 44.4207 55.6131 44.6791C54.8673 44.9376 54.0779 45.0466 53.29 45C52.38 50.23 50.52 54.85 47.29 58.23C45.7797 59.8085 43.9849 61.0876 42 62C40.7186 62.5914 39.3776 63.044 38 63.35C34.044 64.1899 29.9559 64.1899 25.9999 63.35C24.6223 63.044 23.2813 62.5914 21.9999 62C19.9958 61.0741 18.1868 59.7741 16.6699 58.17C13.4799 54.79 11.6699 50.17 10.6699 44.94C9.84814 45.0549 9.01142 44.9982 8.21267 44.7733C7.41392 44.5484 6.67051 44.1602 6.02941 43.6334C5.38831 43.1065 4.86347 42.4524 4.48805 41.7124C4.11262 40.9724 3.89478 40.1625 3.84829 39.334C3.8018 38.5055 3.92767 37.6763 4.21794 36.899C4.50822 36.1216 4.95659 35.4129 5.53472 34.8176C6.11286 34.2223 6.80818 33.7535 7.57675 33.4406C8.34533 33.1278 9.17044 32.9777 9.99995 33H10.0599Z" fill="#F9E7D4"/>
  <path d="M53.2199 45.42C53.1599 45.76 53.0999 46.1 53.0299 46.42C52.2553 50.8219 50.2832 54.9253 47.3299 58.28C43.9099 61.91 38.9999 64.1 31.9999 64.1C31.1199 64.1 30.2799 64.1 29.4599 64C27.3075 63.8403 25.1892 63.3721 23.1699 62.61C27.0532 61.3599 31.0026 60.3249 34.9999 59.51C42.7399 57.94 47.8099 54.86 50.8799 47.34C51.0691 46.844 51.3845 46.406 51.7949 46.0693C52.2053 45.7325 52.6965 45.5088 53.2199 45.42Z" fill="#EACDB2"/>
  <path d="M58.0001 25H6.11011C10.2701 25 11.9401 22.42 13.1101 19H50.8901C52.0701 22.45 53.7601 25 58.0001 25Z" fill="#403E4C"/>
  <path d="M16.6501 19C16.1768 21 15.6301 23 15.0101 25H6.11011C10.2701 25 11.9401 22.42 13.1101 19H16.6501Z" fill="#565466"/>
  <path d="M63 27C63 27.5304 62.7893 28.0391 62.4142 28.4142C62.0391 28.7893 61.5304 29 61 29H3C2.46957 29 1.96086 28.7893 1.58578 28.4142C1.21071 28.0391 1 27.5304 1 27C1 26.4696 1.21071 25.9609 1.58578 25.5858C1.96086 25.2107 2.46957 25 3 25H61C61.5304 25 62.0391 25.2107 62.4142 25.5858C62.7893 25.9609 63 26.4696 63 27Z" fill="#E89C42"/>
  <path d="M50.8901 19H13.1101C15.5501 11.9 15.8301 1 32.0001 1C32.5101 1 33.0001 1 33.4801 1C48.1901 1.68 48.5301 12.12 50.8901 19Z" fill="#EDD64A"/>
  <path d="M33.4801 1C25.0001 4 18.1101 10.31 16.7801 19H13.1101C15.5501 11.9 15.8301 1 32.0001 1C32.5101 1 33.0001 1 33.4801 1Z" fill="#F7E174"/>
  <path d="M6.79 25L5.92 29H3C2.46957 29 1.96086 28.7893 1.58578 28.4142C1.21071 28.0391 1 27.5304 1 27C1 26.4696 1.21071 25.9609 1.58578 25.5858C1.96086 25.2107 2.46957 25 3 25H6.79Z" fill="#F2B066"/>
  <path d="M13.65 33.68C12.4927 33.28 11.2833 33.0509 10.06 33H9.99997C9.21204 33.0466 8.441 33.248 7.73089 33.5926C7.02078 33.9372 6.38549 34.4183 5.86131 35.0084C5.33712 35.5985 4.9343 36.2861 4.67585 37.0319C4.41739 37.7777 4.30836 38.5671 4.35498 39.355C4.40159 40.1429 4.60295 40.914 4.94755 41.6241C5.29215 42.3342 5.77324 42.9695 6.36335 43.4937C6.95347 44.0178 7.64106 44.4207 8.38685 44.6791C9.13265 44.9376 9.92204 45.0466 10.71 45" stroke="#27272D" stroke-width="2" stroke-linecap="round" stroke-linejoin="round"/>
  <path d="M50.3501 33.68C51.5073 33.28 52.7167 33.0509 53.9401 33H54.0001C54.788 33.0466 55.5591 33.248 56.2692 33.5926C56.9793 33.9372 57.6146 34.4183 58.1388 35.0084C58.663 35.5985 59.0658 36.2861 59.3242 37.0319C59.5827 37.7777 59.6917 38.5671 59.6451 39.355C59.5985 40.1429 59.3971 40.914 59.0525 41.6241C58.7079 42.3342 58.2268 42.9695 57.6367 43.4937C57.0466 44.0178 56.359 44.4207 55.6132 44.6791C54.8674 44.9376 54.078 45.0466 53.2901 45" stroke="#27272D" stroke-width="2" stroke-linecap="round" stroke-linejoin="round"/>
  <path d="M53.9399 33C53.9399 31.64 53.8099 30.3 53.6599 29" stroke="#27272D" stroke-width="2" stroke-linecap="round" stroke-linejoin="round"/>
  <path d="M10.3401 29C10.1901 30.3 10.1001 31.64 10.0601 33" stroke="#27272D" stroke-width="2" stroke-linecap="round" stroke-linejoin="round"/>
  <path d="M53.2899 44.9999C52.3799 50.2299 50.5199 54.8499 47.2899 58.2299C45.7797 59.8084 43.9849 61.0875 41.9999 61.9999C40.7186 62.5913 39.3776 63.0439 37.9999 63.3499C34.044 64.1898 29.9558 64.1898 25.9999 63.3499C24.6222 63.0439 23.2813 62.5913 21.9999 61.9999C19.9958 61.074 18.1867 59.7741 16.6699 58.1699C13.4799 54.7899 11.6699 50.1699 10.6699 44.9399" stroke="#27272D" stroke-width="2" stroke-linecap="round" stroke-linejoin="round"/>
  <path d="M14.0001 29C13.7493 30.5476 13.6189 32.1123 13.6101 33.68" stroke="#27272D" stroke-width="2" stroke-linecap="round" stroke-linejoin="round"/>
  <path d="M50.35 33.68C50.3544 32.1133 50.2374 30.5486 50 29" stroke="#27272D" stroke-width="2" stroke-linecap="round" stroke-linejoin="round"/>
  <path d="M58 25H61C61.5304 25 62.0391 25.2107 62.4142 25.5858C62.7893 25.9609 63 26.4696 63 27C63 27.5304 62.7893 28.0391 62.4142 28.4142C62.0391 28.7893 61.5304 29 61 29H3C2.46957 29 1.96086 28.7893 1.58578 28.4142C1.21071 28.0391 1 27.5304 1 27C1 26.4696 1.21071 25.9609 1.58578 25.5858C1.96086 25.2107 2.46957 25 3 25H58Z" stroke="#27272D" stroke-width="2" stroke-linecap="round" stroke-linejoin="round"/>
  <path d="M58 25C53.76 25 52.07 22.45 50.89 19C48.45 11.9 48.17 1 32 1C15.83 1 15.55 11.9 13.11 19C11.93 22.45 10.24 25 6 25" stroke="#27272D" stroke-width="2" stroke-linecap="round" stroke-linejoin="round"/>
  <path d="M50.8901 19H13.1101" stroke="#27272D" stroke-width="2" stroke-linecap="round" stroke-linejoin="round"/>
  <g opacity="0.24">
  <path opacity="0.24" d="M8.66993 41.37C8.31409 41.0886 8.0067 40.7508 7.75993 40.37C7.48805 39.9589 7.31677 39.4896 7.25993 39C7.20051 38.4735 7.28699 37.9407 7.50993 37.46C7.7179 37.0106 7.9983 36.5985 8.33993 36.24C8.51629 36.0398 8.76498 35.9178 9.03129 35.9009C9.29759 35.8841 9.55969 35.9737 9.75993 36.15C9.96017 36.3264 10.0821 36.5751 10.099 36.8414C10.1159 37.1077 10.0263 37.3698 9.84993 37.57L9.69993 37.71C9.46996 37.8654 9.26438 38.0542 9.08993 38.27C8.93202 38.4577 8.83137 38.6868 8.79993 38.93C8.76809 39.2115 8.80586 39.4965 8.90993 39.76C9.02342 40.059 9.18191 40.3389 9.37993 40.59C9.45214 40.6863 9.48721 40.8054 9.47867 40.9255C9.47014 41.0455 9.41859 41.1585 9.33349 41.2436C9.24838 41.3287 9.13543 41.3802 9.01537 41.3888C8.89532 41.3973 8.77622 41.3622 8.67993 41.29L8.66993 41.37Z" fill="#27272D"/>
  </g>
  <g opacity="0.24">
  <path opacity="0.24" d="M55.6599 36.25C55.9964 36.6177 56.267 37.0405 56.4599 37.5C56.6637 37.9659 56.7594 38.4719 56.7399 38.98C56.7185 39.4879 56.5557 39.9797 56.2699 40.4C56.0177 40.7859 55.6995 41.1244 55.3299 41.4C55.2336 41.4722 55.1145 41.5073 54.9945 41.4988C54.8744 41.4902 54.7615 41.4387 54.6764 41.3536C54.5912 41.2685 54.5397 41.1555 54.5312 41.0355C54.5226 40.9154 54.5577 40.7963 54.6299 40.7C54.8421 40.4609 55.0112 40.1869 55.1299 39.89C55.231 39.6429 55.2554 39.3712 55.1999 39.11C55.1433 38.852 55.0307 38.6096 54.8699 38.4C54.7093 38.1794 54.5133 37.9868 54.2899 37.83C54.0844 37.6603 53.9547 37.4159 53.9294 37.1505C53.904 36.8851 53.9852 36.6206 54.1549 36.415C54.3246 36.2095 54.5691 36.0798 54.8344 36.0545C55.0998 36.0292 55.3644 36.1103 55.5699 36.28L55.6599 36.25Z" fill="#27272D"/>
  </g>
  <path d="M41 38C42.1046 38 43 36.6569 43 35C43 33.3431 42.1046 32 41 32C39.8954 32 39 33.3431 39 35C39 36.6569 39.8954 38 41 38Z" fill="#27272D"/>
  <path d="M23 38C24.1046 38 25 36.6569 25 35C25 33.3431 24.1046 32 23 32C21.8954 32 21 33.3431 21 35C21 36.6569 21.8954 38 23 38Z" fill="#27272D"/>
  <path d="M32.1699 55.1C30.3978 55.0104 28.7167 54.288 27.4321 53.064C26.1476 51.84 25.3449 50.1957 25.1699 48.43C25.1699 45.67 28.2999 45.1 32.1699 45.1C36.0399 45.1 39.1699 45.67 39.1699 48.43C38.995 50.1957 38.1923 51.84 36.9077 53.064C35.6231 54.288 33.942 55.0104 32.1699 55.1Z" fill="#F1BF9C"/>
  <path d="M39.1699 48.43C39.1699 45.67 36.0399 45.1 32.1699 45.1C28.2999 45.1 25.1699 45.67 25.1699 48.43C25.1726 48.6545 25.1927 48.8785 25.2299 49.1H39.1099C39.1472 48.8785 39.1672 48.6545 39.1699 48.43Z" fill="white"/>
  <path d="M32.17 55.1C35.86 55.1 38.69 51.78 39.11 49.1H25.23C25.65 51.78 28.48 55.1 32.17 55.1Z" fill="#27272D"/>
  <path d="M39.1699 48.43C39.1699 50.2865 38.4324 52.067 37.1197 53.3797C35.8069 54.6925 34.0264 55.43 32.1699 55.43C30.3134 55.43 28.5329 54.6925 27.2202 53.3797C25.9074 52.067 25.1699 50.2865 25.1699 48.43C25.1699 45.67 28.2999 45.1 32.1699 45.1C36.0399 45.1 39.1699 45.67 39.1699 48.43Z" stroke="#27272D" stroke-width="2" stroke-linecap="round" stroke-linejoin="round"/>
</svg>
