<svg width="58" height="65" viewBox="0 0 58 65" fill="none" xmlns="http://www.w3.org/2000/svg">
  <path d="M50.6268 29.0007C50.7768 30.3007 50.8668 31.6407 50.9068 33.0007C49.6834 33.0516 48.474 33.2807 47.3168 33.6807C47.3212 32.114 47.2042 30.5493 46.9668 29.0007H50.6268Z" fill="#403E4C"/>
  <path d="M51.8469 44.9307C52.5769 47.6507 53.8469 50.9307 55.9669 53.0007C55.9669 53.0007 53.9669 56.0007 50.9669 54.0007C50.9669 54.0007 51.9669 58.0007 54.9669 60.0007C54.0249 61.1219 52.8376 62.0115 51.4969 62.6007C49.5828 60.4546 47.0784 58.9206 44.2969 58.1907C47.4869 54.8107 49.2969 50.1907 50.2969 44.9607C50.5333 44.9747 50.7704 44.9747 51.0069 44.9607C51.2872 44.9736 51.5682 44.9636 51.8469 44.9307Z" fill="#403E4C"/>
  <path d="M13.6368 58.1907C12.1406 58.6107 10.7126 59.2439 9.3968 60.0707C8.27453 60.7573 7.26301 61.6104 6.3968 62.6007C5.07052 62.0063 3.89739 61.117 2.9668 60.0007C5.9668 58.0007 6.9668 54.0007 6.9668 54.0007C3.9668 56.0007 1.9668 53.0007 1.9668 53.0007C4.0768 50.8907 5.3568 47.6507 6.0868 44.9307C6.37758 44.9792 6.672 45.0026 6.9668 45.0007C7.20326 45.0147 7.44034 45.0147 7.6768 45.0007C7.7868 45.6607 7.91679 46.3007 8.05679 46.9307C8.88369 51.113 10.8097 54.9996 13.6368 58.1907Z" fill="#403E4C"/>
  <path d="M10.9669 29.0007C10.7161 30.5483 10.5857 32.113 10.5769 33.6807C10.1469 33.5407 9.71686 33.4207 9.29686 33.3207C8.55318 33.1364 7.7925 33.0292 7.02686 33.0007C7.02686 31.6407 7.15685 30.3007 7.30685 29.0007H10.9669Z" fill="#565466"/>
  <path d="M50.9668 33.0007C52.4759 33.0091 53.9265 33.5859 55.0293 34.616C56.1321 35.6462 56.8062 37.0542 56.9173 38.5593C57.0283 40.0643 56.5681 41.5559 55.6283 42.7368C54.6886 43.9177 53.3383 44.701 51.8468 44.9307C51.556 44.9793 51.2616 45.0027 50.9668 45.0007C50.7303 45.0147 50.4932 45.0147 50.2568 45.0007C49.3468 50.2307 47.4868 54.8507 44.2568 58.2307C42.7465 59.8092 40.9517 61.0883 38.9668 62.0007C37.6854 62.5921 36.3444 63.0447 34.9668 63.3507C31.0109 64.1906 26.9227 64.1906 22.9668 63.3507C21.5891 63.0447 20.2481 62.5921 18.9668 62.0007C16.9626 61.0748 15.1536 59.7749 13.6368 58.1707C10.4468 54.7907 8.63677 50.1707 7.63677 44.9407C7.41473 44.9732 7.19105 44.9933 6.96677 45.0007C6.67197 45.0027 6.37755 44.9793 6.08677 44.9307C4.5952 44.701 3.24497 43.9177 2.30522 42.7368C1.36548 41.5559 0.905248 40.0643 1.01627 38.5593C1.12729 37.0542 1.8014 35.6462 2.90424 34.616C4.00708 33.5859 5.45764 33.0091 6.96677 33.0007H7.02677C8.25013 33.0516 9.45953 33.2807 10.6168 33.6807C10.6123 32.114 10.7294 30.5493 10.9668 29.0007H46.9668C47.2176 30.5483 47.348 32.113 47.3568 33.6807C48.514 33.2807 49.7234 33.0516 50.9468 33.0007H50.9668Z" fill="#BA9B85"/>
  <path d="M50.1867 45.4207C50.1267 45.7607 50.0667 46.1007 49.9967 46.4207C49.2221 50.8225 47.25 54.9259 44.2967 58.2807C40.8767 61.9107 35.9667 64.1007 28.9667 64.1007C28.0867 64.1007 27.2467 64.1007 26.4267 64.0007C24.2743 63.8409 22.156 63.3728 20.1367 62.6107C24.02 61.3605 27.9694 60.3256 31.9667 59.5107C39.7067 57.9407 44.7767 54.8607 47.8467 47.3407C48.0359 46.8447 48.3513 46.4066 48.7617 46.0699C49.1721 45.7332 49.6633 45.5094 50.1867 45.4207Z" fill="#A58067"/>
  <path d="M55.9668 25.0007H1.9668V29.0007H55.9668V25.0007Z" fill="#E8345F"/>
  <path d="M34.9668 1.7307V25.0007H22.9668V1.7307C26.8533 0.784267 30.9103 0.784267 34.7968 1.7307H34.9668Z" fill="#EDD64A"/>
  <path d="M22.9668 1.73071V25.0007H4.9668C4.9668 14.0007 13.2668 4.07071 22.9668 1.73071Z" fill="#E8345F"/>
  <path d="M34.9668 1.73071C44.6668 4.07071 52.9668 14.0007 52.9668 25.0007H34.9668V1.73071Z" fill="#E8345F"/>
  <path d="M22.9668 1.73071V6.22071C20.2234 7.82233 17.7774 9.88603 15.7368 12.3207C12.5147 16.1018 9.93386 20.3852 8.09679 25.0007C7.59957 26.3038 7.19522 27.6405 6.8868 29.0007H1.9668V25.0007H4.9668C4.9668 14.0007 13.2668 4.07071 22.9668 1.73071Z" fill="#EF507E"/>
  <path d="M34.7968 1.69069L34.5468 1.76069C30.4829 2.65123 26.5782 4.15512 22.9668 6.2207V1.7307C26.8533 0.784267 30.9103 0.784267 34.7968 1.7307V1.69069Z" fill="#F7E174"/>
  <path d="M9.3968 60.0707C8.27453 60.7573 7.26301 61.6104 6.3968 62.6007C5.07052 62.0063 3.89739 61.117 2.9668 60.0007C5.9668 58.0007 6.9668 54.0007 6.9668 54.0007C3.9668 56.0007 1.9668 53.0007 1.9668 53.0007C4.0768 50.8907 5.3568 47.6507 6.0868 44.9307C6.37758 44.9792 6.672 45.0026 6.9668 45.0007C7.20326 45.0147 7.44034 45.0147 7.6768 45.0007C7.7868 45.6607 7.91679 46.3007 8.05679 46.9307C7.15483 48.5286 6.4529 50.2313 5.9668 52.0007C6.9668 52.6607 9.5268 52.6507 9.9668 54.0007C10.5968 55.9107 10.0468 58.1707 9.3968 60.0707Z" fill="#565466"/>
  <path d="M47.3169 33.6807C48.4741 33.2807 49.6835 33.0516 50.9069 33.0007H50.9669C52.476 33.0091 53.9266 33.5859 55.0294 34.616C56.1323 35.6462 56.8064 37.0542 56.9174 38.5593C57.0284 40.0643 56.5682 41.5559 55.6284 42.7368C54.6887 43.9177 53.3385 44.701 51.8469 44.9307C51.5561 44.9793 51.2617 45.0027 50.9669 45.0007C50.7304 45.0147 50.4934 45.0147 50.2569 45.0007" stroke="#27272D" stroke-width="2" stroke-linecap="round" stroke-linejoin="round"/>
  <path d="M50.9067 33.0007C50.9067 31.6407 50.7767 30.3007 50.6267 29.0007" stroke="#27272D" stroke-width="2" stroke-linecap="round" stroke-linejoin="round"/>
  <path d="M7.30685 29.0007C7.15685 30.3007 7.06686 31.6407 7.02686 33.0007" stroke="#27272D" stroke-width="2" stroke-linecap="round" stroke-linejoin="round"/>
  <path d="M50.2568 45.0007C49.3468 50.2307 47.4868 54.8507 44.2568 58.2307C42.7465 59.8092 40.9517 61.0883 38.9668 62.0007C37.6854 62.5921 36.3444 63.0447 34.9668 63.3507C31.0109 64.1906 26.9227 64.1906 22.9668 63.3507C21.5891 63.0447 20.2481 62.5921 18.9668 62.0007C16.9626 61.0748 15.1536 59.7749 13.6368 58.1707C10.4468 54.7907 8.63677 50.1707 7.63677 44.9407C7.41473 44.9732 7.19105 44.9933 6.96677 45.0007C6.67197 45.0027 6.37755 44.9793 6.08677 44.9307C4.5952 44.701 3.24497 43.9177 2.30522 42.7368C1.36548 41.5559 0.905248 40.0643 1.01627 38.5593C1.12729 37.0542 1.8014 35.6462 2.90424 34.616C4.00708 33.5859 5.45764 33.0091 6.96677 33.0007H7.02677C8.25013 33.0516 9.45954 33.2807 10.6168 33.6807" stroke="#27272D" stroke-width="2" stroke-linecap="round" stroke-linejoin="round"/>
  <path d="M10.9669 29.0007C10.7161 30.5483 10.5857 32.113 10.5769 33.6807" stroke="#27272D" stroke-width="2" stroke-linecap="round" stroke-linejoin="round"/>
  <path d="M47.3168 33.6807C47.3212 32.114 47.2042 30.5493 46.9668 29.0007" stroke="#27272D" stroke-width="2" stroke-linecap="round" stroke-linejoin="round"/>
  <path d="M52.9668 25.0007H55.9668V29.0007H50.6268H46.9268H11.0068H7.30679H1.9668V25.0007H4.9668" stroke="#27272D" stroke-width="2" stroke-linecap="round" stroke-linejoin="round"/>
  <path d="M52.9668 25.0007H4.9668C4.9668 14.0007 13.2668 4.07068 22.9668 1.73068C26.9075 0.756441 31.0261 0.756441 34.9668 1.73068C44.6668 4.07068 52.9668 14.0007 52.9668 25.0007Z" stroke="#27272D" stroke-width="2" stroke-linecap="round" stroke-linejoin="round"/>
  <path d="M22.9668 25.0007V1.73071" stroke="#27272D" stroke-width="2" stroke-linecap="round" stroke-linejoin="round"/>
  <path d="M34.9668 1.73071V25.0007" stroke="#27272D" stroke-width="2" stroke-linecap="round" stroke-linejoin="round"/>
  <path d="M6.4368 62.6007C5.09608 62.0115 3.90881 61.1219 2.9668 60.0007C5.9668 58.0007 6.9668 54.0007 6.9668 54.0007C3.9668 56.0007 1.9668 53.0007 1.9668 53.0007C4.0768 50.8907 5.3568 47.6507 6.0868 44.9307" stroke="#27272D" stroke-width="2" stroke-linecap="round" stroke-linejoin="round"/>
  <path d="M51.8468 44.9307C52.5768 47.6507 53.8468 50.9307 55.9668 53.0007C55.9668 53.0007 53.9668 56.0007 50.9668 54.0007C50.9668 54.0007 51.9668 58.0007 54.9668 60.0007C54.0248 61.1219 52.8375 62.0115 51.4968 62.6007" stroke="#27272D" stroke-width="2" stroke-linecap="round" stroke-linejoin="round"/>
  <g opacity="0.24">
  <path opacity="0.24" d="M5.63672 41.3706C5.28089 41.0892 4.9735 40.7514 4.72673 40.3706C4.45485 39.9595 4.28356 39.4902 4.22673 39.0006C4.1673 38.4741 4.25379 37.9413 4.47673 37.4606C4.6847 37.0113 4.9651 36.5991 5.30672 36.2406C5.48309 36.0404 5.73178 35.9184 5.99808 35.9016C6.26438 35.8847 6.52649 35.9743 6.72673 36.1506C6.92697 36.327 7.04894 36.5757 7.06582 36.842C7.08269 37.1083 6.99309 37.3704 6.81672 37.5706L6.66672 37.7106C6.43676 37.866 6.23118 38.0548 6.05672 38.2706C5.89882 38.4583 5.79817 38.6874 5.76673 38.9306C5.73488 39.2121 5.77266 39.4972 5.87673 39.7606C5.99022 40.0596 6.1487 40.3395 6.34672 40.5906C6.41894 40.6869 6.454 40.806 6.44547 40.9261C6.43694 41.0461 6.38539 41.1591 6.30028 41.2442C6.21518 41.3293 6.10222 41.3809 5.98217 41.3894C5.86211 41.3979 5.74301 41.3629 5.64673 41.2906L5.63672 41.3706Z" fill="#27272D"/>
  </g>
  <g opacity="0.24">
  <path opacity="0.24" d="M52.6267 36.2506C52.9633 36.6182 53.234 37.041 53.4267 37.5006C53.6305 37.9665 53.7262 38.4725 53.7067 38.9806C53.6853 39.4885 53.5225 39.9803 53.2367 40.4006C52.9844 40.7865 52.6663 41.125 52.2967 41.4006C52.2004 41.4729 52.0813 41.5079 51.9613 41.4994C51.8412 41.4908 51.7283 41.4393 51.6431 41.3542C51.558 41.2691 51.5065 41.1561 51.498 41.0361C51.4894 40.916 51.5245 40.7969 51.5967 40.7006C51.8089 40.4615 51.978 40.1875 52.0967 39.8906C52.1978 39.6436 52.2222 39.3718 52.1667 39.1106C52.1101 38.8526 51.9975 38.6102 51.8367 38.4006C51.6761 38.18 51.4801 37.9874 51.2567 37.8306C51.0512 37.6609 50.9215 37.4165 50.8961 37.1511C50.8708 36.8857 50.952 36.6212 51.1217 36.4156C51.2914 36.2101 51.5359 36.0804 51.8012 36.0551C52.0666 36.0298 52.3312 36.1109 52.5367 36.2806L52.6267 36.2506Z" fill="#27272D"/>
  </g>
  <path d="M37.9668 38.0007C39.6237 38.0007 40.9668 36.6576 40.9668 35.0007C40.9668 33.3439 39.6237 32.0007 37.9668 32.0007C36.3099 32.0007 34.9668 33.3439 34.9668 35.0007C34.9668 36.6576 36.3099 38.0007 37.9668 38.0007Z" fill="#27272D"/>
  <path d="M19.9668 38.0007C21.6237 38.0007 22.9668 36.6576 22.9668 35.0007C22.9668 33.3439 21.6237 32.0007 19.9668 32.0007C18.3099 32.0007 16.9668 33.3439 16.9668 35.0007C16.9668 36.6576 18.3099 38.0007 19.9668 38.0007Z" fill="#27272D"/>
  <path d="M35.9668 49.0007C35.9668 49.0007 27.9668 51.0007 21.9668 48.0007C21.9668 48.0007 22.9668 55.0007 29.9668 55.0007C35.9668 55.0007 35.9668 49.0007 35.9668 49.0007Z" fill="white"/>
  <path d="M35.9668 49.0007C35.9668 49.0007 27.9668 51.0007 21.9668 48.0007C21.9668 48.0007 22.9668 55.0007 29.9668 55.0007C35.9668 55.0007 35.9668 49.0007 35.9668 49.0007Z" stroke="#27272D" stroke-width="2" stroke-linecap="round" stroke-linejoin="round"/>
</svg>
