<svg width="46" height="63" viewBox="0 0 46 63" fill="none" xmlns="http://www.w3.org/2000/svg">
  <path d="M35 22H11V30H35V22Z" fill="#403E4C"/>
  <path d="M39 18V34H7V18H39ZM35 30V22H11V30H35Z" fill="#B5B3C9"/>
  <path d="M42.35 3.34C39.58 2.24 34 1 23 1C19.17 1 16 1.15 13.38 1.39C10.0622 1.58772 6.78777 2.24396 3.65 3.34C2.89085 3.61187 2.23159 4.10683 1.75869 4.75996C1.28579 5.4131 1.02133 6.19392 1 7V55C1.00222 55.542 1.12128 56.0772 1.34908 56.569C1.57687 57.0608 1.90803 57.4978 2.32 57.85C2.708 58.2043 3.15918 58.4825 3.65 58.67C5.5116 59.3612 7.44301 59.8474 9.41 60.12C10.47 60.3 11.66 60.45 13 60.58C14.34 60.71 15.54 60.8 17 60.87C18.8 60.96 20.79 61.01 23 61.01C25.21 61.01 27.2 61.01 29 60.87C30.46 60.8 31.79 60.7 33 60.58C36.1889 60.3707 39.3345 59.7282 42.35 58.67C42.8408 58.4825 43.292 58.2043 43.68 57.85C44.092 57.4978 44.4231 57.0608 44.6509 56.569C44.8787 56.0772 44.9978 55.542 45 55V7C44.9787 6.19392 44.7142 5.4131 44.2413 4.75996C43.7684 4.10683 43.1091 3.61187 42.35 3.34ZM39 34H7V18H39V34Z" fill="#686772"/>
  <path d="M7.4 12.31C7.17527 14.1978 7.0917 16.0998 7.15 18C7.15 19.86 7.25 21.73 7.23 23.53C7.23 27.04 7.11 30.53 7.13 34C7.10475 38.9079 7.43898 43.811 8.13 48.67C8.67 52.22 9.73 56.32 9.44 60.11C7.47301 59.8374 5.5416 59.3512 3.68 58.66C3.18917 58.4725 2.738 58.1943 2.35 57.84C1.93382 57.4917 1.59775 57.0576 1.36476 56.5675C1.13177 56.0773 1.00735 55.5427 1 55V7C1.01933 6.1922 1.28287 5.40919 1.75591 4.75408C2.22894 4.09897 2.88929 3.60249 3.65 3.33001C6.78777 2.23396 10.0622 1.57773 13.38 1.38C13.3493 1.44662 13.3125 1.51023 13.27 1.57C11.19 4.82 8 8.39001 7.4 12.31Z" fill="#7E7E89"/>
  <path d="M2.32 57.84C1.90931 57.4889 1.5789 57.0536 1.35115 56.5636C1.12341 56.0736 1.00365 55.5403 1 55V7C1.01933 6.19219 1.28287 5.40918 1.75591 4.75407C2.22894 4.09897 2.88929 3.60248 3.65 3.33C6.42 2.24 12 1 23 1C34 1 39.58 2.24 42.35 3.34C43.1092 3.61187 43.7684 4.10683 44.2413 4.75996C44.7142 5.4131 44.9787 6.19392 45 7V55C44.9978 55.542 44.8787 56.0772 44.6509 56.569C44.4231 57.0608 44.092 57.4978 43.68 57.85C43.292 58.2043 42.8408 58.4825 42.35 58.67C39.3345 59.7282 36.1889 60.3707 33 60.58C31.79 60.7 30.46 60.8 29 60.87C27.2 60.96 25.21 61.01 23 61.01C20.79 61.01 18.8 61.01 17 60.87C15.54 60.8 14.21 60.7 13 60.58C9.81108 60.3707 6.66551 59.7282 3.65 58.67C3.1584 58.4795 2.70716 58.1979 2.32 57.84V57.84Z" stroke="#27272D" stroke-width="2" stroke-linecap="round" stroke-linejoin="round"/>
</svg>
