<svg width="72" height="70" viewBox="0 0 72 70" fill="none" xmlns="http://www.w3.org/2000/svg">
  <path d="M62.0643 27.6202C62.0643 27.6202 65.0643 32.8502 62.6243 41.3802C62.1778 40.2707 61.4099 39.32 60.4192 38.65C59.4285 37.9801 58.2602 37.6214 57.0643 37.6202H57.0043C55.5827 37.6893 54.1815 37.9864 52.8543 38.5002C51.8843 25.9102 48.0643 23.6202 48.0643 23.6202C46.0643 27.6202 40.0643 27.6202 40.0643 27.6202C43.0643 23.6202 42.0643 20.6202 42.0643 20.6202C37.0643 25.6202 29.0643 23.6202 29.0643 23.6202C31.4324 22.4528 33.489 20.739 35.0643 18.6202C19.4643 18.6202 16.7443 30.6202 16.6143 38.2702C15.4879 37.8882 14.3126 37.6693 13.1243 37.6202H13.0643C12.383 37.618 11.7065 37.733 11.0643 37.9602C9.63396 38.4714 8.44628 39.4985 7.73427 40.8402C6.94427 35.1902 8.95427 28.9602 9.06427 28.6202C5.94507 29.9324 3.19737 31.9932 1.06427 34.6202C0.0642722 23.6202 11.0643 13.6202 11.0643 13.6202C9.27924 13.3449 7.45527 13.4713 5.72531 13.9903C3.99534 14.5093 2.40297 15.4078 1.06427 16.6202C7.06427 -2.14979 23.2043 -0.539788 31.5443 4.07021L32.1343 4.42021C39.6343 0.95021 55.8643 -3.80979 67.0643 12.6202C67.0643 12.6202 62.0643 10.6202 59.0643 13.6202C59.0643 13.6202 69.0643 19.6202 70.0643 30.6202C67.856 28.6726 65.0087 27.6049 62.0643 27.6202Z" fill="#59392E"/>
  <path d="M31.0643 68.3502C26.7567 67.8827 22.7485 65.9228 19.7343 62.8102C16.5443 59.4402 14.7343 54.8102 13.7343 49.5802C12.8953 49.6745 12.0459 49.5907 11.2415 49.3342C10.4372 49.0777 9.69598 48.6544 9.06644 48.0918C8.43689 47.5293 7.93315 46.8403 7.58813 46.0697C7.24312 45.2992 7.06461 44.4645 7.06426 43.6202C7.06016 42.6551 7.29369 41.7038 7.74426 40.8502C8.25087 39.8768 9.01472 39.061 9.95271 38.4915C10.8907 37.922 11.9669 37.6207 13.0643 37.6202H13.1243C14.3126 37.6694 15.4879 37.8882 16.6143 38.2702C16.7443 30.6202 19.4643 18.6202 35.0643 18.6202C33.489 20.7391 31.4324 22.4529 29.0643 23.6202C29.0643 23.6202 37.0643 25.6202 42.0643 20.6202C42.0643 20.6202 43.0643 23.6202 40.0643 27.6202C40.0643 27.6202 46.0643 27.6202 48.0643 23.6202C48.0643 23.6202 51.8843 25.9102 52.8543 38.5002C54.1815 37.9864 55.5827 37.6893 57.0043 37.6202H57.0643C58.2602 37.6215 59.4285 37.9801 60.4192 38.65C61.4099 39.32 62.1778 40.2708 62.6243 41.3802C62.9186 42.0902 63.0682 42.8517 63.0643 43.6202C63.0702 44.4716 62.895 45.3146 62.55 46.093C62.2051 46.8714 61.6985 47.5675 61.0638 48.1351C60.4291 48.7026 59.6809 49.1286 58.8689 49.3846C58.0569 49.6407 57.1997 49.721 56.3543 49.6202C55.4343 54.8602 53.5843 59.4802 50.3543 62.8502C47.3444 65.9398 43.3524 67.8845 39.0643 68.3502C36.4097 68.7103 33.7188 68.7103 31.0643 68.3502Z" fill="#F1BF9C"/>
  <path d="M31.5443 4.07021C31.442 4.10887 31.3336 4.12918 31.2243 4.13021C23.0643 3.62021 13.0643 6.62021 10.3643 9.37021C10.6543 9.37021 10.9443 9.37021 11.2443 9.37021C15.0043 9.29021 16.0643 13.6202 14.0643 16.1702C12.7635 17.8142 11.5518 19.5266 10.4343 21.3002C11.3787 21.7152 12.16 22.4299 12.6572 23.3339C13.1543 24.2378 13.3396 25.2804 13.1843 26.3002C12.3443 30.1602 11.6376 34.0469 11.0643 37.9602C9.63396 38.4714 8.44628 39.4985 7.73427 40.8402C6.94427 35.1902 8.95427 28.9602 9.06427 28.6202C5.94507 29.9324 3.19737 31.9932 1.06427 34.6202C0.0642722 23.6202 11.0643 13.6202 11.0643 13.6202C9.27924 13.3449 7.45527 13.4713 5.72531 13.9903C3.99534 14.5093 2.40297 15.4078 1.06427 16.6202C7.06427 -2.14979 23.2043 -0.539788 31.5443 4.07021Z" fill="#6D5041"/>
  <path d="M56.2544 49.9602C56.1944 50.3002 56.1344 50.6402 56.0644 50.9602C55.2898 55.362 53.3177 59.4655 50.3644 62.8202C46.9444 66.4502 41.9944 68.6202 35.0644 68.6202C34.1844 68.6202 33.3444 68.6202 32.5244 68.5202C30.372 68.3604 28.2537 67.8923 26.2344 67.1302C30.1181 65.8868 34.0674 64.8585 38.0644 64.0502C45.8044 62.4802 50.8744 59.4002 53.9444 51.8802C54.131 51.3881 54.4418 50.9526 54.8466 50.6161C55.2514 50.2797 55.7364 50.0537 56.2544 49.9602Z" fill="#DBA47F"/>
  <path d="M7.74436 40.8502C7.29379 41.7038 7.06025 42.6551 7.06436 43.6202C7.05837 44.4716 7.23366 45.3145 7.57857 46.093C7.92348 46.8714 8.43012 47.5675 9.06481 48.1351C9.6995 48.7026 10.4477 49.1285 11.2597 49.3846C12.0717 49.6407 12.9289 49.721 13.7744 49.6202" stroke="#27272D" stroke-width="2" stroke-linecap="round" stroke-linejoin="round"/>
  <path d="M16.6144 38.2702C15.488 37.8882 14.3128 37.6694 13.1244 37.6202H13.0644C11.9681 37.6197 10.8926 37.9196 9.95467 38.4872C9.01678 39.0549 8.25234 39.8687 7.74438 40.8402" stroke="#27272D" stroke-width="2" stroke-linecap="round" stroke-linejoin="round"/>
  <path d="M52.8542 38.5002C54.1815 37.9864 55.5827 37.6893 57.0042 37.6202H57.0642C58.2602 37.6215 59.4285 37.9801 60.4192 38.65C61.4099 39.32 62.1778 40.2708 62.6242 41.3802C62.9186 42.0902 63.0682 42.8517 63.0642 43.6202C63.0702 44.4716 62.8949 45.3146 62.55 46.093C62.2051 46.8714 61.6985 47.5675 61.0638 48.1351C60.4291 48.7026 59.6809 49.1286 58.8689 49.3846C58.0569 49.6407 57.1997 49.721 56.3542 49.6202" stroke="#27272D" stroke-width="2" stroke-linecap="round" stroke-linejoin="round"/>
  <path d="M13.7742 49.6202C14.6942 54.8602 16.5442 59.4802 19.7742 62.8502C22.7841 65.9397 26.7761 67.8845 31.0642 68.3502C33.7187 68.7103 36.4097 68.7103 39.0642 68.3502C43.3717 67.8826 47.3799 65.9228 50.3942 62.8102C53.5842 59.4402 55.3942 54.8102 56.3942 49.5802" stroke="#27272D" stroke-width="2" stroke-linecap="round" stroke-linejoin="round"/>
  <path d="M16.6143 38.2702C16.7443 30.6202 19.4643 18.6202 35.0643 18.6202C33.489 20.7391 31.4324 22.4529 29.0643 23.6202C29.0643 23.6202 37.0643 25.6202 42.0643 20.6202C42.0643 20.6202 43.0643 23.6202 40.0643 27.6202C40.0643 27.6202 46.0643 27.6202 48.0643 23.6202C48.0643 23.6202 51.8843 25.9102 52.8543 38.5002" stroke="#27272D" stroke-width="2" stroke-linecap="round" stroke-linejoin="round"/>
  <path d="M7.74429 40.8502C6.94429 35.1902 8.95429 28.9602 9.06429 28.6202" stroke="#27272D" stroke-width="2" stroke-linecap="round" stroke-linejoin="round"/>
  <path d="M9.06427 28.6202C5.94507 29.9324 3.19737 31.9932 1.06427 34.6202C0.0642722 23.6202 11.0643 13.6202 11.0643 13.6202C9.27924 13.3449 7.45527 13.4713 5.72531 13.9903C3.99534 14.5093 2.40297 15.4078 1.06427 16.6202C7.18427 -2.6098 24.0043 -0.449802 32.1443 4.4202" stroke="#27272D" stroke-width="2" stroke-linecap="round" stroke-linejoin="round"/>
  <path d="M62.6242 41.3802C65.0642 32.8502 62.0642 27.6202 62.0642 27.6202C65.0086 27.6049 67.8559 28.6726 70.0642 30.6202C69.0642 19.6202 59.0642 13.6202 59.0642 13.6202C62.0642 10.6202 67.0642 12.6202 67.0642 12.6202C55.8642 -3.80979 39.6342 0.95021 32.1442 4.42021C30.7336 5.0555 29.3701 5.7907 28.0642 6.62021" stroke="#27272D" stroke-width="2" stroke-linecap="round" stroke-linejoin="round"/>
  <path d="M29.9641 56.7703C30.5027 57.6363 31.2532 58.3508 32.1447 58.8462C33.0362 59.3415 34.0392 59.6015 35.0591 59.6015C36.079 59.6015 37.082 59.3415 37.9735 58.8462C38.865 58.3508 39.6155 57.6363 40.1541 56.7703C36.851 57.8979 33.2672 57.8979 29.9641 56.7703Z" fill="#27272D"/>
  <path d="M35.0642 54.8202C33.0083 54.7842 30.9758 54.3777 29.0642 53.6202C29.0662 54.7334 29.3778 55.8241 29.9642 56.7702C33.2673 57.8979 36.8511 57.8979 40.1542 56.7702C40.7441 55.8251 41.0592 54.7344 41.0642 53.6202C39.1526 54.3777 37.1201 54.7842 35.0642 54.8202Z" fill="white"/>
  <path d="M41.0642 53.6202C41.0642 55.2115 40.4321 56.7377 39.3068 57.8629C38.1816 58.9881 36.6555 59.6202 35.0642 59.6202C33.4729 59.6202 31.9468 58.9881 30.8216 57.8629C29.6964 56.7377 29.0642 55.2115 29.0642 53.6202C30.9654 54.4124 33.0046 54.8202 35.0642 54.8202C37.1238 54.8202 39.163 54.4124 41.0642 53.6202V53.6202Z" stroke="#27272D" stroke-width="2" stroke-linecap="round" stroke-linejoin="round"/>
  <g opacity="0.24">
  <path opacity="0.24" d="M21.8443 34.1702C22.3414 33.9151 22.8644 33.7139 23.4043 33.5702C23.9238 33.4281 24.4514 33.3179 24.9843 33.2402C26.0439 33.089 27.1147 33.0321 28.1843 33.0702C28.3156 33.0741 28.4449 33.1039 28.5647 33.1578C28.6845 33.2117 28.7926 33.2886 28.8826 33.3843C28.9727 33.4799 29.0431 33.5924 29.0897 33.7152C29.1363 33.838 29.1583 33.9688 29.1543 34.1002C29.1504 34.2315 29.1206 34.3607 29.0667 34.4806C29.0128 34.6004 28.9359 34.7084 28.8402 34.7985C28.7446 34.8886 28.6321 34.9589 28.5093 35.0055C28.3865 35.0521 28.2556 35.0741 28.1243 35.0702H27.9643C27.0097 34.8707 26.0392 34.7569 25.0643 34.7302C24.5835 34.721 24.1027 34.741 23.6243 34.7902C23.1667 34.8366 22.7146 34.9271 22.2743 35.0602H22.2143C22.0981 35.0916 21.9744 35.0799 21.866 35.0274C21.7576 34.9749 21.6718 34.8851 21.6244 34.7744C21.577 34.6637 21.5711 34.5396 21.6078 34.425C21.6445 34.3103 21.7214 34.2127 21.8243 34.1502L21.8443 34.1702Z" fill="#27272D"/>
  </g>
  <g opacity="0.24">
  <path opacity="0.24" d="M47.8443 35.0703C47.404 34.9372 46.9519 34.8468 46.4943 34.8003C46.0159 34.7511 45.5351 34.7311 45.0543 34.7403C44.0867 34.7616 43.1229 34.8687 42.1743 35.0603C41.9091 35.112 41.6342 35.0562 41.4101 34.9053C41.186 34.7543 41.031 34.5205 40.9793 34.2553C40.9276 33.9901 40.9833 33.7152 41.1343 33.4911C41.2853 33.2669 41.5191 33.112 41.7843 33.0603H41.9443C43.0139 33.0222 44.0847 33.0791 45.1443 33.2303C45.6772 33.308 46.2048 33.4182 46.7243 33.5603C47.2642 33.704 47.7872 33.9052 48.2843 34.1603C48.3872 34.2228 48.4641 34.3204 48.5008 34.4351C48.5375 34.5497 48.5316 34.6738 48.4842 34.7845C48.4368 34.8952 48.351 34.985 48.2426 35.0375C48.1342 35.09 48.0105 35.1017 47.8943 35.0703H47.8443Z" fill="#27272D"/>
  </g>
  <g opacity="0.24">
  <path opacity="0.24" d="M11.7341 45.9903C11.3783 45.7088 11.0709 45.371 10.8241 44.9903C10.5523 44.5792 10.381 44.1099 10.3241 43.6203C10.2647 43.0937 10.3512 42.561 10.5741 42.0803C10.7821 41.6309 11.0625 41.2187 11.4041 40.8603C11.5805 40.66 11.8292 40.5381 12.0955 40.5212C12.3618 40.5043 12.6239 40.5939 12.8241 40.7703C13.0244 40.9466 13.1463 41.1953 13.1632 41.4616C13.1801 41.7279 13.0905 41.99 12.9141 42.1903L12.7641 42.3303C12.5342 42.4857 12.3286 42.6744 12.1541 42.8903C11.9962 43.0779 11.8956 43.307 11.8641 43.5503C11.8323 43.8318 11.8701 44.1168 11.9741 44.3803C12.0876 44.6793 12.2461 44.9592 12.4441 45.2103C12.5163 45.3066 12.5514 45.4257 12.5429 45.5457C12.5344 45.6658 12.4828 45.7787 12.3977 45.8638C12.3126 45.9489 12.1996 46.0005 12.0796 46.009C11.9595 46.0175 11.8404 45.9825 11.7441 45.9103L11.7341 45.9903Z" fill="#27272D"/>
  </g>
  <g opacity="0.24">
  <path opacity="0.24" d="M58.7241 40.8703C59.0606 41.2379 59.3312 41.6608 59.5241 42.1203C59.7279 42.5862 59.8236 43.0921 59.8041 43.6003C59.7827 44.1081 59.6199 44.5999 59.3341 45.0203C59.0819 45.4062 58.7637 45.7447 58.3941 46.0203C58.2978 46.0925 58.1787 46.1275 58.0587 46.119C57.9386 46.1105 57.8257 46.0589 57.7406 45.9738C57.6555 45.8887 57.6039 45.7758 57.5954 45.6557C57.5868 45.5357 57.6219 45.4166 57.6941 45.3203C57.9063 45.0811 58.0754 44.8071 58.1941 44.5103C58.2952 44.2632 58.3196 43.9914 58.2641 43.7303C58.2075 43.4723 58.0949 43.2299 57.9341 43.0203C57.7735 42.7997 57.5775 42.6071 57.3541 42.4503C57.1486 42.2805 57.0189 42.0361 56.9936 41.7707C56.9682 41.5054 57.0494 41.2408 57.2191 41.0353C57.3889 40.8297 57.6333 40.7 57.8987 40.6747C58.164 40.6494 58.4286 40.7305 58.6341 40.9003L58.7241 40.8703Z" fill="#27272D"/>
  </g>
  <path d="M44.0642 42.6202C45.1688 42.6202 46.0642 41.2771 46.0642 39.6202C46.0642 37.9634 45.1688 36.6202 44.0642 36.6202C42.9596 36.6202 42.0642 37.9634 42.0642 39.6202C42.0642 41.2771 42.9596 42.6202 44.0642 42.6202Z" fill="#27272D"/>
  <path d="M26.0642 42.6202C27.1688 42.6202 28.0642 41.2771 28.0642 39.6202C28.0642 37.9634 27.1688 36.6202 26.0642 36.6202C24.9596 36.6202 24.0642 37.9634 24.0642 39.6202C24.0642 41.2771 24.9596 42.6202 26.0642 42.6202Z" fill="#27272D"/>
</svg>
