<svg width="58" height="61" viewBox="0 0 58 61" fill="none" xmlns="http://www.w3.org/2000/svg">
  <path d="M6.97258 28.0081C7.01925 26.4614 7.12925 24.9514 7.30259 23.4781C9.91259 22.6181 16.4726 21.0081 28.9126 21.0081C41.3526 21.0081 47.9126 22.6181 50.5226 23.4781C50.6959 24.9447 50.8059 26.4547 50.8526 28.0081H50.9126C52.4017 28.0298 53.8295 28.6045 54.9184 29.6204C56.0072 30.6364 56.6794 32.021 56.8041 33.505C56.9288 34.989 56.4972 36.4664 55.5931 37.6498C54.689 38.8332 53.3772 39.6382 51.9126 39.9081C51.5833 39.9737 51.2484 40.0072 50.9126 40.0081C50.6761 40.0221 50.439 40.0221 50.2026 40.0081C49.6976 43.2535 48.6496 46.3907 47.1026 49.2881C46.3249 50.7386 45.3637 52.083 44.2426 53.2881C40.8226 56.8181 35.9126 59.0081 28.9126 59.0081C21.9126 59.0081 17.0026 56.8181 13.5826 53.1981C12.4615 51.993 11.5002 50.6486 10.7226 49.1981C9.18504 46.3286 8.13731 43.2226 7.62259 40.0081C7.38613 40.0221 7.14905 40.0221 6.91259 40.0081C6.5768 40.0072 6.2419 39.9737 5.91259 39.9081C4.44801 39.6382 3.13615 38.8332 2.23208 37.6498C1.32802 36.4664 0.896378 34.989 1.02108 33.505C1.14579 32.021 1.81793 30.6364 2.90682 29.6204C3.9957 28.6045 5.4235 28.0298 6.91259 28.0081H6.97258Z" fill="#BA9B85"/>
  <path d="M51.9625 39.9081C52.4716 43.5372 53.8244 46.9965 55.9125 50.0081C52.9718 50.7257 49.8769 50.4587 47.1025 49.2481C48.6496 46.3507 49.6976 43.2135 50.2025 39.9681C50.439 39.9821 50.6761 39.9821 50.9125 39.9681C51.2637 39.9837 51.6155 39.9636 51.9625 39.9081Z" fill="#403E4C"/>
  <path d="M10.7226 49.248C9.633 49.7438 8.47788 50.0805 7.29259 50.248C5.50063 50.517 3.6735 50.4355 1.9126 50.008C3.59001 47.5916 4.78833 44.8759 5.4426 42.008C5.6026 41.318 5.74259 40.608 5.86259 39.868C6.19191 39.9336 6.52681 39.9671 6.86259 39.968C7.09905 39.9821 7.33614 39.9821 7.5726 39.968C8.09324 43.2165 9.15818 46.3539 10.7226 49.248Z" fill="#403E4C"/>
  <path d="M50.1325 40.4281C50.0725 40.7681 50.0125 41.1081 49.9425 41.4281C49.1679 45.8299 47.1958 49.9334 44.2425 53.2881C40.8225 56.9181 35.9125 59.1081 28.9125 59.1081C28.0325 59.1081 27.1925 59.1081 26.3725 59.0081C24.2201 58.8483 22.1018 58.3802 20.0825 57.6181C23.9658 56.3679 27.9152 55.333 31.9125 54.5181C39.6525 52.9481 44.7225 49.8681 47.7925 42.3481C47.9817 41.8521 48.2971 41.4141 48.7075 41.0773C49.1179 40.7406 49.6091 40.5168 50.1325 40.4281Z" fill="#A58067"/>
  <path d="M7.29259 50.2581C5.49998 50.5237 3.67285 50.4388 1.9126 50.0081C3.59001 47.5917 4.78833 44.8759 5.4426 42.0081C6.45502 44.6541 7.07817 47.4331 7.29259 50.2581Z" fill="#565466"/>
  <path d="M5.9126 39.9081C5.38856 43.5415 4.01844 47.0011 1.9126 50.0081C4.8533 50.7257 7.94823 50.4587 10.7226 49.2481" stroke="#27272D" stroke-width="2" stroke-linecap="round" stroke-linejoin="round"/>
  <path d="M51.9625 39.9081C52.4716 43.5372 53.8244 46.9965 55.9125 50.0081C52.9718 50.7257 49.8769 50.4587 47.1025 49.2481" stroke="#27272D" stroke-width="2" stroke-linecap="round" stroke-linejoin="round"/>
  <path d="M7.62259 40.0081C7.38613 40.0221 7.14905 40.0221 6.91259 40.0081C6.5768 40.0072 6.2419 39.9737 5.91259 39.9081C4.44801 39.6382 3.13615 38.8332 2.23208 37.6498C1.32802 36.4664 0.896378 34.989 1.02108 33.505C1.14579 32.021 1.81793 30.6364 2.90682 29.6204C3.9957 28.6045 5.4235 28.0298 6.91259 28.0081H6.97258C8.31924 28.0706 9.6482 28.3404 10.9126 28.8081" stroke="#27272D" stroke-width="2" stroke-linecap="round" stroke-linejoin="round"/>
  <path d="M50.2026 40.0081C50.4391 40.0221 50.6761 40.0221 50.9126 40.0081C51.2484 40.0072 51.5833 39.9737 51.9126 39.9081C53.3772 39.6382 54.689 38.8332 55.5931 37.6498C56.4972 36.4664 56.9288 34.989 56.8041 33.505C56.6794 32.021 56.0073 30.6364 54.9184 29.6204C53.8295 28.6045 52.4017 28.0298 50.9126 28.0081H50.8526C49.5059 28.0706 48.177 28.3404 46.9126 28.8081" stroke="#27272D" stroke-width="2" stroke-linecap="round" stroke-linejoin="round"/>
  <path d="M50.8527 28.008C50.806 26.4614 50.696 24.9514 50.5227 23.478" stroke="#27272D" stroke-width="2" stroke-linecap="round" stroke-linejoin="round"/>
  <path d="M7.30266 23.478C7.12932 24.9447 7.01932 26.4547 6.97266 28.008" stroke="#27272D" stroke-width="2" stroke-linecap="round" stroke-linejoin="round"/>
  <path d="M50.2026 40.0081C49.6976 43.2535 48.6496 46.3907 47.1026 49.2881C46.3249 50.7386 45.3637 52.083 44.2426 53.2881C40.8226 56.8181 35.9126 59.0081 28.9126 59.0081C21.9126 59.0081 17.0026 56.8181 13.5826 53.1981C12.4615 51.993 11.5002 50.6486 10.7226 49.1981C9.18501 46.3286 8.13728 43.2226 7.62256 40.0081" stroke="#27272D" stroke-width="2" stroke-linecap="round" stroke-linejoin="round"/>
  <path d="M7.30267 23.4781C6.82736 23.6216 6.36285 23.7987 5.91267 24.0081C5.85772 17.502 6.9198 11.0348 9.05267 4.88809C9.28607 4.23482 9.68536 3.65348 10.2113 3.20116C10.7373 2.74883 11.3718 2.44107 12.0527 2.30808C17.6222 1.3691 23.265 0.934009 28.9127 1.00808C34.557 0.93461 40.1964 1.3697 45.7627 2.30808C46.4435 2.44107 47.0781 2.74883 47.604 3.20116C48.13 3.65348 48.5293 4.23482 48.7627 4.88809C50.8989 11.0342 51.9644 17.5015 51.9127 24.0081C51.4625 23.7987 50.998 23.6216 50.5227 23.4781C47.9127 22.6181 41.3527 21.0081 28.9127 21.0081C16.4727 21.0081 9.91267 22.6181 7.30267 23.4781Z" fill="white" stroke="#27272D" stroke-width="2" stroke-linecap="round" stroke-linejoin="round"/>
  <path d="M31.9126 48.0081C32.5126 46.2081 34.5426 45.8581 36.5126 46.4981C37.0649 44.7065 37.0439 42.7871 36.4526 41.0081C31.2426 46.2181 22.9126 44.1381 22.9126 44.1381C23.3909 46.2024 24.507 48.0637 26.1026 49.4581C27.5126 47.5581 29.9126 46.6881 31.9126 48.0081Z" fill="#27272D"/>
  <g opacity="0.24">
  <path opacity="0.24" d="M15.4927 26.7381C15.826 26.1973 16.2526 25.7199 16.7527 25.3281C17.2551 24.9255 17.8282 24.6203 18.4427 24.4281C19.0691 24.2291 19.7262 24.1444 20.3827 24.1781C21.0278 24.2107 21.6663 24.3249 22.2827 24.5181C22.4094 24.5542 22.5278 24.6149 22.631 24.6968C22.7343 24.7787 22.8204 24.8801 22.8845 24.9952C22.9486 25.1103 22.9893 25.237 23.0045 25.3679C23.0196 25.4988 23.0088 25.6314 22.9727 25.7581C22.9366 25.8848 22.8758 26.0032 22.794 26.1065C22.7121 26.2097 22.6107 26.2958 22.4956 26.3599C22.3804 26.424 22.2538 26.4647 22.1229 26.4799C21.992 26.495 21.8594 26.4842 21.7327 26.4481H21.6027C21.1733 26.2399 20.7199 26.0854 20.2527 25.9881C19.7932 25.904 19.3222 25.904 18.8627 25.9881C18.3862 26.0606 17.928 26.2235 17.5127 26.4681C17.0873 26.7095 16.7053 27.0205 16.3827 27.3881C16.2992 27.4787 16.1852 27.5352 16.0626 27.5469C15.94 27.5587 15.8174 27.5247 15.7183 27.4516C15.6192 27.3785 15.5505 27.2714 15.5255 27.1508C15.5005 27.0302 15.5208 26.9046 15.5827 26.7981L15.4927 26.7381Z" fill="#27272D"/>
  </g>
  <g opacity="0.24">
  <path opacity="0.24" d="M41.4925 27.2781C41.1699 26.9105 40.7879 26.5995 40.3625 26.3581C39.9472 26.1135 39.489 25.9506 39.0125 25.8781C38.553 25.794 38.082 25.794 37.6225 25.8781C37.1553 25.9754 36.7019 26.1299 36.2725 26.3381C36.0298 26.4468 35.7539 26.4547 35.5054 26.36C35.2569 26.2653 35.0563 26.0758 34.9475 25.8331C34.8388 25.5904 34.8309 25.3145 34.9256 25.066C35.0203 24.8175 35.2098 24.6168 35.4525 24.5081H35.5825C36.1989 24.3149 36.8374 24.2006 37.4825 24.1681C38.1389 24.1344 38.7961 24.2191 39.4225 24.4181C40.037 24.6102 40.6101 24.9155 41.1125 25.3181C41.6126 25.7099 42.0392 26.1873 42.3725 26.7281C42.4344 26.8346 42.4547 26.9602 42.4297 27.0808C42.4047 27.2014 42.336 27.3085 42.2369 27.3816C42.1378 27.4547 42.0152 27.4886 41.8926 27.4769C41.77 27.4652 41.656 27.4086 41.5725 27.3181L41.4925 27.2781Z" fill="#27272D"/>
  </g>
  <g opacity="0.24">
  <path opacity="0.24" d="M5.58252 36.3781C5.22669 36.0966 4.9193 35.7588 4.67253 35.3781C4.40065 34.967 4.22936 34.4977 4.17253 34.0081C4.1131 33.4815 4.19959 32.9488 4.42253 32.4681C4.6305 32.0187 4.9109 31.6065 5.25252 31.2481C5.42889 31.0478 5.67758 30.9259 5.94388 30.909C6.21018 30.8921 6.47229 30.9817 6.67253 31.1581C6.87277 31.3345 6.99474 31.5831 7.01162 31.8495C7.0285 32.1158 6.93889 32.3779 6.76252 32.5781L6.61252 32.7181C6.38256 32.8735 6.17698 33.0622 6.00252 33.2781C5.84462 33.4658 5.74397 33.6948 5.71253 33.9381C5.68068 34.2196 5.71846 34.5046 5.82253 34.7681C5.93602 35.0671 6.0945 35.347 6.29252 35.5981C6.36474 35.6944 6.3998 35.8135 6.39127 35.9335C6.38274 36.0536 6.33119 36.1665 6.24608 36.2516C6.16098 36.3367 6.04802 36.3883 5.92797 36.3968C5.80791 36.4054 5.68881 36.3703 5.59253 36.2981L5.58252 36.3781Z" fill="#27272D"/>
  </g>
  <g opacity="0.24">
  <path opacity="0.24" d="M52.5725 31.2581C52.909 31.6257 53.1796 32.0486 53.3725 32.5081C53.5763 32.974 53.672 33.4799 53.6525 33.9881C53.6311 34.4959 53.4683 34.9877 53.1825 35.4081C52.9302 35.794 52.6121 36.1325 52.2425 36.4081C52.1462 36.4803 52.0271 36.5154 51.9071 36.5068C51.787 36.4983 51.6741 36.4467 51.589 36.3616C51.5038 36.2765 51.4523 36.1636 51.4438 36.0435C51.4352 35.9235 51.4703 35.8044 51.5425 35.7081C51.7547 35.469 51.9238 35.1949 52.0425 34.8981C52.1436 34.651 52.168 34.3792 52.1125 34.1181C52.0559 33.8601 51.9433 33.6177 51.7825 33.4081C51.6219 33.1875 51.4259 32.9949 51.2025 32.8381C50.997 32.6683 50.8673 32.4239 50.8419 32.1585C50.8166 31.8932 50.8978 31.6286 51.0675 31.4231C51.2372 31.2175 51.4817 31.0878 51.747 31.0625C52.0124 31.0372 52.277 31.1183 52.4825 31.2881L52.5725 31.2581Z" fill="#27272D"/>
  </g>
  <path d="M37.9126 33.0081C39.5695 33.0081 40.9126 32.1126 40.9126 31.0081C40.9126 29.9035 39.5695 29.0081 37.9126 29.0081C36.2557 29.0081 34.9126 29.9035 34.9126 31.0081C34.9126 32.1126 36.2557 33.0081 37.9126 33.0081Z" fill="#27272D"/>
  <path d="M19.9126 33.0081C21.5695 33.0081 22.9126 32.1126 22.9126 31.0081C22.9126 29.9035 21.5695 29.0081 19.9126 29.0081C18.2557 29.0081 16.9126 29.9035 16.9126 31.0081C16.9126 32.1126 18.2557 33.0081 19.9126 33.0081Z" fill="#27272D"/>
  <path d="M36.5125 46.4981C34.5125 45.8581 32.5125 46.2081 31.9125 48.0081C29.9125 46.6881 27.5125 47.5581 26.1025 49.4481C26.9174 50.1411 27.8904 50.6227 28.9356 50.8502C29.9808 51.0777 31.066 51.0442 32.0952 50.7525C33.1243 50.4609 34.0658 49.9201 34.8362 49.1781C35.6067 48.436 36.1824 47.5156 36.5125 46.4981Z" fill="#E8345F"/>
  <path d="M22.9126 44.1381C22.9126 44.1381 31.2426 46.2281 36.4526 41.0081C39.5726 51.4381 26.0326 55.6081 22.9126 44.1381Z" stroke="#27272D" stroke-width="2" stroke-linecap="round" stroke-linejoin="round"/>
  <path d="M30.9126 5.00806H26.9126V17.0081H30.9126V5.00806Z" fill="#E8345F"/>
  <path d="M34.9126 13.0081V9.00806H22.9126V13.0081H34.9126Z" fill="#E8345F"/>
</svg>
