<svg width="61" height="72" viewBox="0 0 61 72" fill="none" xmlns="http://www.w3.org/2000/svg">
  <path d="M34.1127 15.9399C35.1127 17.9399 30.1127 18.9399 30.1127 18.9399C30.1127 18.9399 25.1127 17.9399 26.1127 15.9399C27.5227 13.1099 27.1127 11.9399 26.1127 9.93994C27.3438 10.5965 28.7175 10.9399 30.1127 10.9399C31.5079 10.9399 32.8816 10.5965 34.1127 9.93994C33.1127 11.9399 32.7027 13.1099 34.1127 15.9399Z" fill="#EDD64A"/>
  <path d="M12.8426 32.94C12.1245 35.4538 11.761 38.0556 11.7626 40.67C10.608 40.2529 9.39848 40.007 8.17262 39.94H7.99262C6.98391 39.9611 5.99682 40.2363 5.12263 40.74C5.04004 37.4827 5.4205 34.2303 6.25263 31.08L6.32263 30.94C6.67856 31.085 7.06875 31.1244 7.4465 31.0535C7.82425 30.9826 8.17356 30.8043 8.45262 30.54C8.75262 30.26 9.10263 29.95 9.51263 29.62L9.68263 29.83L11.3026 31.77C11.7052 32.2876 12.2361 32.6909 12.8426 32.94Z" fill="#CECCC8"/>
  <path d="M9.68263 29.83C9.6092 31.7122 9.3104 33.5789 8.79263 35.39C8.40682 36.8833 8.13933 38.4047 7.99262 39.94C6.98391 39.9611 5.99682 40.2363 5.12263 40.74C5.04004 37.4827 5.4205 34.2303 6.25263 31.08L6.32263 30.94C6.67856 31.085 7.06875 31.1244 7.4465 31.0535C7.82425 30.9826 8.17356 30.8043 8.45262 30.54C8.75262 30.26 9.10263 29.95 9.51263 29.62L9.68263 29.83Z" fill="#E0DCD7"/>
  <path d="M53.9726 31.0799C54.8081 34.2297 55.1919 37.4822 55.1126 40.7399C54.2012 40.212 53.1658 39.9359 52.1126 39.9399H52.0526C50.8292 39.9908 49.6198 40.2199 48.4626 40.6199C48.4595 38.0223 48.0961 35.4376 47.3826 32.9399C47.9835 32.7049 48.5138 32.3192 48.9226 31.8199L50.7126 29.6699C51.1226 29.9999 51.4726 30.3099 51.7726 30.5899C52.0516 30.8542 52.4009 31.0325 52.7787 31.1034C53.1564 31.1744 53.5466 31.135 53.9026 30.9899L53.9726 31.0799Z" fill="#CECCC8"/>
  <path d="M58.5827 23.59L55.7527 21C55.2347 20.3801 54.8473 19.662 54.6136 18.8887C54.3799 18.1155 54.3048 17.303 54.3927 16.5L54.8627 12.28C54.8937 11.9995 54.8651 11.7156 54.7785 11.4469C54.692 11.1783 54.5496 10.931 54.3607 10.7213C54.1718 10.5116 53.9407 10.3443 53.6825 10.2303C53.4243 10.1163 53.1449 10.0583 52.8627 10.06C48.5027 9.96 38.6227 9.06 32.1327 3.21C31.3959 2.53388 30.72 1.79438 30.1127 1C23.8727 8.8 12.1727 9.91 7.31267 10C7.03045 9.99829 6.75106 10.0563 6.49287 10.1703C6.23467 10.2843 6.00352 10.4516 5.81461 10.6613C5.62571 10.871 5.48332 11.1183 5.39681 11.3869C5.3103 11.6556 5.28162 11.9395 5.31267 12.22L5.78268 16.44C5.88577 17.2492 5.82278 18.0709 5.59754 18.855C5.3723 19.639 4.98955 20.3689 4.47268 21L1.64268 23.63C1.44517 23.8125 1.2865 24.033 1.17615 24.2782C1.0658 24.5234 1.00604 24.7884 1.00043 25.0572C0.994833 25.3261 1.04351 25.5933 1.14355 25.8429C1.2436 26.0926 1.39295 26.3194 1.58268 26.51L5.67268 30.6C6.04561 30.9605 6.544 31.162 7.06267 31.162C7.58135 31.162 8.07974 30.9605 8.45267 30.6C8.75267 30.32 9.10268 30.01 9.51268 29.68L9.97268 29.31C12.2571 27.5464 14.8005 26.1465 17.5127 25.16C25.6613 22.2935 34.5441 22.2935 42.6927 25.16C45.5914 26.213 48.2949 27.7405 50.6927 29.68C51.1027 30.01 51.4527 30.32 51.7527 30.6C52.1256 30.9605 52.624 31.162 53.1427 31.162C53.6614 31.162 54.1597 30.9605 54.5327 30.6L58.6227 26.51C58.82 26.3202 58.9762 26.0919 59.0817 25.8393C59.1871 25.5867 59.2396 25.3151 59.2359 25.0413C59.2321 24.7676 59.1722 24.4975 59.0599 24.2479C58.9475 23.9982 58.7851 23.7743 58.5827 23.59ZM30.1127 19C30.1127 19 25.1127 18 26.1127 16C27.5227 13.17 27.1127 12 26.1127 10C27.3437 10.6566 28.7175 11 30.1127 11C31.5079 11 32.8816 10.6566 34.1127 10C33.1127 12 32.7027 13.17 34.1127 16C35.1127 18 30.1127 19 30.1127 19Z" fill="#50A0EA"/>
  <path d="M55.1126 40.7399C56.3402 41.4159 57.2923 42.5003 57.804 43.8049C58.3156 45.1095 58.3545 46.552 57.9139 47.8823C57.4732 49.2125 56.5808 50.3466 55.3915 51.0878C54.2022 51.8289 52.791 52.1304 51.4026 51.9399C50.4827 57.1799 48.6326 61.7999 45.4026 65.1699C42.0226 68.7499 37.1126 70.9399 30.1126 70.9399C23.1126 70.9399 18.2026 68.7499 14.7826 65.1299C11.5926 61.7599 9.78265 57.1299 8.78265 51.8999C7.97011 51.9942 7.14688 51.9213 6.36353 51.6857C5.58019 51.4502 4.85329 51.0569 4.22749 50.5302C3.60168 50.0034 3.0902 49.3542 2.72446 48.6226C2.35872 47.8909 2.14645 47.0922 2.1007 46.2755C2.05495 45.4588 2.17668 44.6413 2.45841 43.8734C2.74013 43.1054 3.17592 42.4032 3.73897 41.8098C4.30202 41.2165 4.98046 40.7445 5.73259 40.4229C6.48472 40.1014 7.29466 39.937 8.11265 39.9399H8.17265C9.39601 39.9908 10.6054 40.2199 11.7627 40.6199C11.7657 38.0223 12.1292 35.4376 12.8427 32.9399C13.7186 33.2974 14.693 33.3329 15.5927 33.0399C20.2949 31.5933 25.1932 30.8848 30.1126 30.9399C35.0269 30.8524 39.925 31.5271 44.6326 32.9399C45.5323 33.2329 46.5067 33.1974 47.3826 32.8399C48.1007 35.3537 48.4643 37.9555 48.4626 40.5699C49.6199 40.1699 50.8293 39.9408 52.0527 39.8899H52.1126C53.1705 39.901 54.2062 40.1945 55.1126 40.7399Z" fill="#846A61"/>
  <path d="M51.3327 52.36C51.2727 52.7 51.2127 53.04 51.1427 53.36C50.3681 57.7618 48.396 61.8652 45.4427 65.22C42.0227 68.85 37.1127 71.04 30.1127 71.04C29.2327 71.04 28.3927 71.04 27.5727 70.94C25.4203 70.7802 23.302 70.3121 21.2827 69.55C25.166 68.2998 29.1154 67.2649 33.1127 66.45C40.8527 64.88 45.9227 61.8 48.9927 54.28C49.1819 53.784 49.4973 53.346 49.9077 53.0092C50.3181 52.6725 50.8093 52.4487 51.3327 52.36Z" fill="#725650"/>
  <path d="M50.7127 29.6199L48.9227 31.7699C48.5202 32.2875 47.9893 32.6909 47.3827 32.9399C46.5067 33.2974 45.5323 33.3329 44.6327 33.0399C39.9304 31.5933 35.0322 30.8849 30.1127 30.9399C25.1984 30.8525 20.3003 31.5271 15.5927 32.9399C14.6931 33.2329 13.7187 33.1974 12.8427 32.8399C12.2418 32.6049 11.7114 32.2192 11.3027 31.7199L9.5127 29.6199C11.9105 27.6804 14.614 26.1529 17.5127 25.0999C25.6613 22.2335 34.5441 22.2335 42.6927 25.0999C45.5984 26.1509 48.3088 27.6785 50.7127 29.6199Z" fill="#595863"/>
  <path d="M32.1827 3.11C28.8727 8.03 21.9927 11.33 16.7327 12.39C15.2627 12.69 11.9227 12.24 10.7327 13.03C8.98273 14.15 9.66272 17.53 9.36272 19.22C9.18476 20.6816 8.60689 22.0658 7.69273 23.22C7.55929 23.3768 7.4083 23.5177 7.24272 23.64C6.91002 23.8862 6.68493 24.2511 6.61417 24.6589C6.54341 25.0667 6.63242 25.4861 6.86272 25.83C7.79691 27.0837 8.85564 28.2396 10.0227 29.28L9.56272 29.65C9.15272 29.98 8.80272 30.29 8.50272 30.57C8.12979 30.9305 7.6314 31.132 7.11272 31.132C6.59405 31.132 6.09566 30.9305 5.72272 30.57L1.63272 26.48C1.44299 26.2894 1.29364 26.0626 1.19359 25.8129C1.09355 25.5633 1.04488 25.2961 1.05048 25.0272C1.05608 24.7584 1.11584 24.4934 1.2262 24.2482C1.33655 24.003 1.49522 23.7825 1.69273 23.6L4.47272 20.94C4.99066 20.3201 5.3781 19.602 5.61179 18.8287C5.84549 18.0555 5.92063 17.243 5.83272 16.44L5.36272 12.22C5.33167 11.9395 5.36034 11.6556 5.44685 11.3869C5.53336 11.1183 5.67575 10.871 5.86466 10.6613C6.05357 10.4516 6.28471 10.2843 6.54291 10.1703C6.8011 10.0563 7.0805 9.99829 7.36272 10C12.2227 9.89 23.9227 8.78 30.1627 1C30.7746 1.75973 31.4504 2.46564 32.1827 3.11Z" fill="#6AB6EF"/>
  <path d="M11.7626 40.62C10.6054 40.22 9.39601 39.9909 8.17264 39.94H8.11265C7.05941 39.936 6.02404 40.2121 5.11265 40.74C3.88514 41.416 2.93298 42.5004 2.42132 43.805C1.90966 45.1096 1.87078 46.5521 2.31143 47.8824C2.75208 49.2126 3.64446 50.3467 4.83377 51.0878C6.02308 51.829 7.43431 52.1305 8.82265 51.94" stroke="#27272D" stroke-width="2" stroke-linecap="round" stroke-linejoin="round"/>
  <path d="M48.4626 40.62C49.6199 40.22 50.8293 39.9909 52.0527 39.94H52.1126C53.1659 39.936 54.2013 40.2121 55.1126 40.74C56.3402 41.416 57.2923 42.5004 57.804 43.805C58.3156 45.1096 58.3545 46.5521 57.9139 47.8824C57.4732 49.2126 56.5808 50.3467 55.3915 51.0878C54.2022 51.829 52.791 52.1305 51.4026 51.94" stroke="#27272D" stroke-width="2" stroke-linecap="round" stroke-linejoin="round"/>
  <path d="M8.82275 51.9399C9.74275 57.1799 11.5928 61.7999 14.8228 65.1699C18.2028 68.7499 23.1128 70.9399 30.1128 70.9399C37.1128 70.9399 42.0228 68.7499 45.4428 65.1299C48.6328 61.7599 50.4428 57.1299 51.4428 51.8999" stroke="#27272D" stroke-width="2" stroke-linecap="round" stroke-linejoin="round"/>
  <path d="M12.8427 32.9399C12.1246 35.4538 11.7611 38.0556 11.7627 40.6699" stroke="#27272D" stroke-width="2" stroke-linecap="round" stroke-linejoin="round"/>
  <path d="M48.4626 40.6199C48.4595 38.0223 48.0961 35.4377 47.3826 32.9399" stroke="#27272D" stroke-width="2" stroke-linecap="round" stroke-linejoin="round"/>
  <path d="M5.11262 40.74C5.03003 37.4827 5.41049 34.2302 6.24262 31.08" stroke="#27272D" stroke-width="2" stroke-linecap="round" stroke-linejoin="round"/>
  <path d="M53.9727 31.08C54.8082 34.2297 55.192 37.4822 55.1127 40.74" stroke="#27272D" stroke-width="2" stroke-linecap="round" stroke-linejoin="round"/>
  <path d="M53.9027 31.0001C54.1463 30.8978 54.3672 30.7482 54.5527 30.5601L58.6427 26.4701C58.8324 26.2795 58.9818 26.0526 59.0818 25.803C59.1818 25.5534 59.2305 25.2862 59.2249 25.0173C59.2193 24.7484 59.1596 24.4835 59.0492 24.2382C58.9389 23.993 58.7802 23.7726 58.5827 23.5901L55.7527 21.0001C55.2347 20.3802 54.8473 19.6621 54.6136 18.8888C54.3799 18.1155 54.3048 17.3031 54.3927 16.5001L54.8627 12.2801C54.8937 11.9995 54.8651 11.7156 54.7785 11.447C54.692 11.1783 54.5496 10.931 54.3607 10.7214C54.1718 10.5117 53.9407 10.3443 53.6825 10.2304C53.4243 10.1164 53.1449 10.0583 52.8627 10.0601C48.0027 9.95006 36.3027 8.84006 30.0627 1.06006C23.8227 8.86006 12.1227 9.97006 7.26268 10.0601C6.98045 10.0583 6.70106 10.1164 6.44286 10.2304C6.18467 10.3443 5.95352 10.5117 5.76462 10.7214C5.57571 10.931 5.43332 11.1783 5.34681 11.447C5.2603 11.7156 5.23163 11.9995 5.26268 12.2801L5.73268 16.5001C5.83434 17.2963 5.77521 18.1048 5.55878 18.8778C5.34236 19.6507 4.97303 20.3724 4.47268 21.0001L1.64268 23.6301C1.44517 23.8126 1.2865 24.033 1.17615 24.2782C1.0658 24.5235 1.00604 24.7884 1.00043 25.0573C0.994833 25.3262 1.04351 25.5934 1.14355 25.843C1.2436 26.0926 1.39295 26.3195 1.58268 26.5101L5.67268 30.6001C6.04561 30.9605 6.544 31.162 7.06267 31.162C7.58135 31.162 8.07974 30.9605 8.45267 30.6001C8.75267 30.3201 9.10268 30.0101 9.51268 29.6801C11.9105 27.7405 14.614 26.2131 17.5127 25.1601V25.1601C25.6613 22.2936 34.5441 22.2936 42.6927 25.1601V25.1601C45.5914 26.2131 48.2949 27.7405 50.6927 29.6801C51.1027 30.0101 51.4527 30.3201 51.7527 30.6001C52.0335 30.8683 52.3864 31.0489 52.7682 31.1199C53.15 31.191 53.5442 31.1493 53.9027 31.0001V31.0001Z" stroke="#27272D" stroke-width="2" stroke-linecap="round" stroke-linejoin="round"/>
  <path d="M50.7127 29.62L48.9227 31.77C48.5202 32.2876 47.9893 32.6909 47.3827 32.94C46.5067 33.2975 45.5323 33.3329 44.6327 33.04C39.9304 31.5934 35.0322 30.8849 30.1127 30.94C25.1984 30.8525 20.3003 31.5272 15.5927 32.94C14.6931 33.2329 13.7187 33.1975 12.8427 32.84C12.2418 32.605 11.7114 32.2193 11.3027 31.72L9.5127 29.62" stroke="#27272D" stroke-width="2" stroke-linecap="round" stroke-linejoin="round"/>
  <path d="M34.1127 15.9399C32.7027 13.1099 33.1127 11.9399 34.1127 9.93994C32.8816 10.5965 31.5079 10.9399 30.1127 10.9399C28.7175 10.9399 27.3438 10.5965 26.1127 9.93994C27.1127 11.9399 27.5227 13.1099 26.1127 15.9399C25.1127 17.9399 30.1127 18.9399 30.1127 18.9399C30.1127 18.9399 35.1127 17.9399 34.1127 15.9399Z" stroke="#27272D" stroke-width="2" stroke-linecap="round" stroke-linejoin="round"/>
  <g opacity="0.24">
  <path opacity="0.24" d="M16.8929 37.4899C17.39 37.2348 17.913 37.0336 18.4529 36.8899C18.9723 36.7478 19.5 36.6376 20.0329 36.5599C21.0924 36.4087 22.1633 36.3518 23.2329 36.3899C23.4981 36.3978 23.7493 36.5108 23.9312 36.704C24.1131 36.8971 24.2109 37.1547 24.2029 37.4199C24.1949 37.6851 24.082 37.9363 23.8888 38.1182C23.6956 38.3001 23.4381 38.3978 23.1729 38.3899H23.0129C22.0583 38.1904 21.0878 38.0766 20.1129 38.0499C19.6321 38.0407 19.1512 38.0607 18.6729 38.1099C18.2153 38.1564 17.7632 38.2468 17.3229 38.3799H17.2629C17.1466 38.4113 17.023 38.3996 16.9146 38.3471C16.8062 38.2946 16.7204 38.2048 16.673 38.0941C16.6256 37.9834 16.6197 37.8593 16.6564 37.7447C16.6931 37.63 16.77 37.5324 16.8729 37.4699L16.8929 37.4899Z" fill="#27272D"/>
  </g>
  <g opacity="0.24">
  <path opacity="0.24" d="M42.6927 37.21C42.3701 36.8424 41.9881 36.5314 41.5627 36.29C41.1474 36.0454 40.6892 35.8824 40.2127 35.81C39.7532 35.7259 39.2822 35.7259 38.8227 35.81C38.3555 35.9073 37.9021 36.0618 37.4727 36.27C37.23 36.3787 36.9541 36.3866 36.7056 36.2919C36.4571 36.1972 36.2565 36.0076 36.1477 35.765C36.039 35.5223 36.0311 35.2464 36.1258 34.9979C36.2205 34.7494 36.41 34.5487 36.6527 34.44H36.7827C37.3991 34.2468 38.0376 34.1325 38.6827 34.1C39.3391 34.0663 39.9963 34.151 40.6227 34.35C41.2372 34.5421 41.8103 34.8474 42.3127 35.25C42.8127 35.6419 43.2393 36.1193 43.5727 36.66C43.6346 36.7665 43.6549 36.8921 43.6299 37.0127C43.6049 37.1333 43.5362 37.2404 43.4371 37.3135C43.338 37.3866 43.2154 37.4205 43.0928 37.4088C42.9702 37.3971 42.8562 37.3405 42.7727 37.25L42.6927 37.21Z" fill="#27272D"/>
  </g>
  <g opacity="0.24">
  <path opacity="0.24" d="M6.78272 48.31C6.42688 48.0285 6.1195 47.6907 5.87272 47.31C5.60085 46.8989 5.42956 46.4296 5.37272 45.94C5.3133 45.4134 5.39979 44.8807 5.62272 44.4C5.8307 43.9506 6.11109 43.5384 6.45272 43.18C6.62909 42.9797 6.87778 42.8578 7.14408 42.8409C7.41038 42.824 7.67249 42.9136 7.87272 43.09C8.07296 43.2663 8.19493 43.515 8.21181 43.7813C8.22869 44.0476 8.13909 44.3097 7.96272 44.51L7.81272 44.65C7.58275 44.8054 7.37717 44.9941 7.20272 45.21C7.04482 45.3976 6.94416 45.6267 6.91272 45.87C6.88088 46.1515 6.91865 46.4365 7.02273 46.7C7.13621 46.999 7.2947 47.2789 7.49272 47.53C7.56493 47.6263 7.6 47.7454 7.59147 47.8654C7.58293 47.9855 7.53138 48.0984 7.44628 48.1835C7.36117 48.2686 7.24822 48.3202 7.12816 48.3287C7.00811 48.3372 6.88901 48.3022 6.79272 48.23L6.78272 48.31Z" fill="#27272D"/>
  </g>
  <g opacity="0.24">
  <path opacity="0.24" d="M53.7727 43.19C54.1092 43.5576 54.3798 43.9805 54.5727 44.44C54.7765 44.9059 54.8722 45.4118 54.8527 45.92C54.8313 46.4278 54.6685 46.9196 54.3827 47.34C54.1304 47.7259 53.8123 48.0644 53.4427 48.34C53.3464 48.4122 53.2273 48.4472 53.1073 48.4387C52.9872 48.4302 52.8743 48.3786 52.7891 48.2935C52.704 48.2084 52.6525 48.0955 52.644 47.9754C52.6354 47.8554 52.6705 47.7363 52.7427 47.64C52.9549 47.4008 53.124 47.1268 53.2427 46.83C53.3438 46.5829 53.3682 46.3111 53.3127 46.05C53.2561 45.792 53.1435 45.5496 52.9827 45.34C52.8221 45.1194 52.6261 44.9268 52.4027 44.77C52.1972 44.6002 52.0675 44.3558 52.0421 44.0904C52.0168 43.8251 52.098 43.5605 52.2677 43.355C52.4374 43.1494 52.6819 43.0197 52.9472 42.9944C53.2126 42.9691 53.4772 43.0502 53.6827 43.22L53.7727 43.19Z" fill="#27272D"/>
  </g>
  <path d="M39.1128 44.9399C40.7696 44.9399 42.1128 43.5968 42.1128 41.9399C42.1128 40.2831 40.7696 38.9399 39.1128 38.9399C37.4559 38.9399 36.1128 40.2831 36.1128 41.9399C36.1128 43.5968 37.4559 44.9399 39.1128 44.9399Z" fill="#27272D"/>
  <path d="M21.1128 42.9399C22.7696 42.9399 24.1128 42.4922 24.1128 41.9399C24.1128 41.3877 22.7696 40.9399 21.1128 40.9399C19.4559 40.9399 18.1128 41.3877 18.1128 41.9399C18.1128 42.4922 19.4559 42.9399 21.1128 42.9399Z" fill="#27272D"/>
  <path d="M30.1128 59.9399C30.1128 59.9399 36.1128 60.9399 38.1128 55.9399" stroke="#27272D" stroke-width="2" stroke-linecap="round" stroke-linejoin="round"/>
</svg>
