<svg width="64" height="68" viewBox="0 0 64 68" fill="none" xmlns="http://www.w3.org/2000/svg">
  <path d="M16.67 58.1907C13.9564 58.9045 11.5034 60.3791 9.6 62.4407C8.4353 63.7631 7.49915 65.2704 6.83 66.9007C5.77713 67.0725 4.69841 66.9897 3.68411 66.6591C2.66981 66.3286 1.74944 65.7599 1 65.0007C3.13951 62.7906 5.14318 60.453 7 58.0007C3 61.0007 1 58.0007 1 58.0007C3.14588 56.4651 4.96461 54.5177 6.35013 52.2721C7.73565 50.0264 8.66024 47.5273 9.07 44.9207C9.3766 44.9779 9.68812 45.0047 10 45.0007C10.2365 45.0147 10.4735 45.0147 10.71 45.0007C10.89 46.0007 11.1 47.0007 11.36 48.0007C12.2475 51.7888 14.0735 55.293 16.67 58.1907Z" fill="#59392E"/>
  <path d="M10.3401 29.0007H14.0001C13.7493 30.5483 13.6189 32.113 13.6101 33.6807C12.4656 33.2845 11.2699 33.0555 10.0601 33.0007C10.1001 31.6407 10.1901 30.3007 10.3401 29.0007Z" fill="#59392E"/>
  <path d="M53.66 29.0007C53.81 30.3007 53.9 31.6407 53.94 33.0007C52.7166 33.0516 51.5072 33.2807 50.35 33.6807C50.3544 32.114 50.2374 30.5493 50 29.0007H53.66Z" fill="#59392E"/>
  <path d="M57.0001 58.0006C58.8569 60.453 60.8606 62.7906 63.0001 65.0006C62.2526 65.7601 61.3344 66.3298 60.3219 66.662C59.3094 66.9943 58.2322 67.0795 57.1801 66.9106C56.3497 64.7788 55.0229 62.8757 53.3099 61.3591C51.5968 59.8426 49.5469 58.7564 47.3301 58.1906C50.5201 54.8106 52.3301 50.1906 53.3301 44.9606C53.5665 44.9746 53.8036 44.9746 54.0401 44.9606C54.352 44.9647 54.6635 44.9379 54.9701 44.8806C55.3699 47.4913 56.286 49.9961 57.6647 52.2487C59.0434 54.5014 60.8572 56.4568 63.0001 58.0006C63.0001 58.0006 61.0001 61.0006 57.0001 58.0006Z" fill="#59392E"/>
  <path d="M10.7099 45.0007C10.4735 45.0147 10.2364 45.0147 9.99994 45.0007C9.68806 45.0048 9.37654 44.978 9.06994 44.9207C7.58727 44.6764 6.25025 43.8847 5.32324 42.702C4.39622 41.5194 3.94672 40.032 4.0636 38.5339C4.18048 37.0358 4.85524 35.636 5.95446 34.6115C7.05368 33.5869 8.49732 33.0121 9.99994 33.0007H10.0599C11.2833 33.0516 12.4927 33.2807 13.6499 33.6807C13.6455 32.114 13.7625 30.5493 13.9999 29.0007H49.9999C50.2507 30.5483 50.3811 32.113 50.3899 33.6807C51.5472 33.2807 52.7566 33.0516 53.9799 33.0007H53.9999C55.5026 33.0121 56.9462 33.5869 58.0454 34.6115C59.1446 35.636 59.8194 37.0358 59.9363 38.5339C60.0532 40.032 59.6037 41.5194 58.6766 42.702C57.7496 43.8847 56.4126 44.6764 54.9299 44.9207C54.6233 44.978 54.3118 45.0048 53.9999 45.0007C53.7635 45.0147 53.5264 45.0147 53.2899 45.0007C52.3799 50.2307 50.5199 54.8507 47.2899 58.2307C44.7778 60.8643 41.5236 62.671 37.9599 63.4107C34.004 64.2506 29.9158 64.2506 25.9599 63.4107C22.3963 62.671 19.1421 60.8643 16.6299 58.2307C13.4799 54.8107 11.6199 50.1907 10.7099 45.0007Z" fill="#F1BF9C"/>
  <path d="M53.2199 45.4207C53.1599 45.7607 53.0999 46.1007 53.0299 46.4207C52.2553 50.8225 50.2832 54.9259 47.3299 58.2807C43.9099 61.9107 38.9999 64.1007 31.9999 64.1007C31.1199 64.1007 30.2799 64.1007 29.4599 64.0007C27.3075 63.8409 25.1892 63.3728 23.1699 62.6107C27.0532 61.3605 31.0026 60.3256 34.9999 59.5107C42.7399 57.9407 47.8099 54.8607 50.8799 47.3407C51.0691 46.8447 51.3845 46.4066 51.7949 46.0699C52.2053 45.7332 52.6965 45.5094 53.2199 45.4207Z" fill="#DBA47F"/>
  <path d="M10.09 57.2907C10.1744 59.0219 10.0094 60.7564 9.6 62.4407C8.4353 63.7631 7.49915 65.2704 6.83 66.9007C5.77713 67.0725 4.69841 66.9897 3.68411 66.6591C2.66981 66.3286 1.74944 65.7599 1 65.0007C3.13951 62.7906 5.14318 60.453 7 58.0007C3 61.0007 1 58.0007 1 58.0007C3.14588 56.4651 4.96461 54.5177 6.35013 52.2721C7.73565 50.0264 8.66024 47.5273 9.07 44.9207C9.3766 44.9779 9.68812 45.0047 10 45.0007C10.2365 45.0147 10.4735 45.0147 10.71 45.0007C10.89 46.0007 11.1 47.0007 11.36 48.0007C10.642 50.179 9.74216 52.2931 8.67 54.3207C9.48739 55.106 9.99197 56.1614 10.09 57.2907Z" fill="#6D5041"/>
  <path d="M59 25.0007H5V29.0007H59V25.0007Z" fill="#81AA87"/>
  <path d="M56 25.0007H8C8.01824 21.664 8.75137 18.3701 10.15 15.3407V15.2507C12.6142 9.86938 16.8995 5.53102 22.25 3.00068C23.4563 2.45798 24.7121 2.03269 26 1.73068C29.9407 0.756441 34.0593 0.756441 38 1.73068C41.2327 2.54377 44.2406 4.07505 46.8 6.21068C49.2881 8.24472 51.3682 10.732 52.93 13.5407C54.9158 17.0356 55.9728 20.9811 56 25.0007Z" fill="#81AA87"/>
  <path d="M46.8 6.21068C45.56 7.11068 44.34 8.05068 43.15 9.01068C42.7115 9.31953 42.3519 9.72717 42.1 10.2007C41.965 10.5823 41.9039 10.9862 41.92 11.3907C41.9694 12.3652 41.9022 13.3421 41.72 14.3007C41.6302 14.7758 41.4269 15.2221 41.1274 15.6017C40.8279 15.9812 40.4411 16.2828 40 16.4807C39.4068 16.6425 38.7851 16.6698 38.18 16.5607C37.0258 16.4197 35.8805 16.2127 34.75 15.9407C32.7238 15.5608 30.8296 14.6654 29.25 13.3407C28.3754 12.4683 27.6552 11.454 27.12 10.3407C26.4849 9.1601 26.0363 7.8884 25.79 6.57068C25.5248 4.96017 25.5963 3.31217 26 1.73068C29.9407 0.756441 34.0593 0.756441 38 1.73068C41.2327 2.54377 44.2406 4.07505 46.8 6.21068Z" fill="#7B8763"/>
  <path d="M21.7001 16.2707C21.2263 16.8341 20.6439 17.2962 19.9875 17.6295C19.3312 17.9628 18.6145 18.1605 17.8801 18.2107C17.3893 18.2723 16.8947 18.299 16.4001 18.2907C15.0592 18.3223 13.7318 18.0163 12.5401 17.4007C11.6471 16.8344 10.8419 16.1404 10.1501 15.3407L10.1001 15.2807H10.2001C12.6461 9.89662 16.9132 5.54807 22.2501 3.00073C22.4101 6.00073 22.5901 9.62073 22.6501 11.1607C22.7201 13.0007 22.7501 14.8607 21.7001 16.2707Z" fill="#B8C99B"/>
  <path d="M59 25.0007V29.0007H48.06C48.0117 28.8993 47.9781 28.7915 47.96 28.6807C47.82 27.7807 48.6 26.9407 48.49 26.0307C48.4122 25.6693 48.2589 25.3285 48.04 25.0307C47.95 24.9007 47.86 24.7707 47.78 24.6307C47.1692 23.5155 46.8839 22.2513 46.9564 20.9819C47.0288 19.7126 47.4563 18.4891 48.19 17.4507C48.94 16.3407 51.08 14.1307 52.93 13.5707C54.9109 17.0567 55.9676 20.9913 56 25.0007H59Z" fill="#B8C99B"/>
  <path d="M38.6699 29.0007H20.1599C20.0299 27.7707 21.3699 26.0807 22.2299 25.3207L22.6199 25.0007C22.9067 24.7663 23.2072 24.5492 23.5199 24.3507C24.464 23.7717 25.4425 23.2507 26.4499 22.7907C27.9219 21.9925 29.5067 21.4227 31.1499 21.1007C31.973 20.9446 32.8206 20.9769 33.6294 21.1952C34.4382 21.4134 35.1871 21.8118 35.8199 22.3607C36.5189 23.115 37.0385 24.0175 37.3399 25.0007L37.6099 25.7907L38.6099 28.7907C38.6199 28.8507 38.6499 28.9207 38.6699 29.0007Z" fill="#B8C99B"/>
  <path d="M24.34 29.0007H5V25.0007H8C8.01824 21.664 8.75137 18.3701 10.15 15.3407L10.1 15.2807H10.2C12.1289 14.6366 14.2191 14.6648 16.13 15.3607C16.4936 15.4771 16.8289 15.6679 17.1147 15.921C17.4005 16.174 17.6305 16.4839 17.79 16.8307C17.9304 17.2905 17.9612 17.7768 17.88 18.2507C17.7149 18.9071 17.7149 19.5942 17.88 20.2507C18.29 21.2507 19.49 21.6407 20.49 22.0707C21.6653 22.5719 22.6966 23.3591 23.49 24.3607C23.6462 24.5664 23.7866 24.7837 23.91 25.0107C24.0748 25.2866 24.2121 25.578 24.32 25.8807C24.6739 26.8894 24.681 27.9875 24.34 29.0007Z" fill="#7B8763"/>
  <path d="M7 58.0007C5.1432 60.4531 3.13953 62.7907 1 65.0007C1.74743 65.7602 2.66571 66.3299 3.67817 66.6621C4.69063 66.9944 5.76789 67.0796 6.82 66.9107" stroke="#27272D" stroke-width="2" stroke-linecap="round" stroke-linejoin="round"/>
  <path d="M7 58.0007C3 61.0007 1 58.0007 1 58.0007C3.14588 56.4651 4.96461 54.5177 6.35013 52.2721C7.73565 50.0264 8.66024 47.5273 9.07 44.9207" stroke="#27272D" stroke-width="2" stroke-linecap="round" stroke-linejoin="round"/>
  <path d="M57.18 66.9107C58.2321 67.0796 59.3094 66.9944 60.3218 66.6621C61.3343 66.3299 62.2526 65.7602 63 65.0007C60.8605 62.7907 58.8568 60.4531 57 58.0007" stroke="#27272D" stroke-width="2" stroke-linecap="round" stroke-linejoin="round"/>
  <path d="M54.9299 44.9207C55.3397 47.5273 56.2643 50.0264 57.6498 52.2721C59.0353 54.5177 60.854 56.4651 62.9999 58.0007C62.9999 58.0007 60.9999 61.0007 56.9999 58.0007" stroke="#27272D" stroke-width="2" stroke-linecap="round" stroke-linejoin="round"/>
  <path d="M53.9399 33.0007C53.9399 31.6407 53.8099 30.3007 53.6599 29.0007" stroke="#27272D" stroke-width="2" stroke-linecap="round" stroke-linejoin="round"/>
  <path d="M10.3401 29.0007C10.1901 30.3007 10.1001 31.6407 10.0601 33.0007" stroke="#27272D" stroke-width="2" stroke-linecap="round" stroke-linejoin="round"/>
  <path d="M50.3499 33.6807C51.5072 33.2807 52.7166 33.0516 53.9399 33.0007H53.9999C55.5026 33.0121 56.9462 33.5869 58.0454 34.6115C59.1446 35.636 59.8194 37.0358 59.9363 38.5339C60.0532 40.032 59.6037 41.5194 58.6766 42.702C57.7496 43.8847 56.4126 44.6764 54.9299 44.9207C54.6233 44.978 54.3118 45.0048 53.9999 45.0007C53.7635 45.0147 53.5264 45.0147 53.2899 45.0007C52.3799 50.2307 50.5199 54.8507 47.2899 58.2307C44.7778 60.8643 41.5236 62.671 37.9599 63.4107C34.004 64.2506 29.9158 64.2506 25.9599 63.4107C22.3963 62.671 19.1421 60.8643 16.6299 58.2307C13.4399 54.8507 11.6299 50.2307 10.6299 45.0007C10.4201 45.0118 10.2098 45.0118 9.99994 45.0007C9.68806 45.0048 9.37654 44.978 9.06994 44.9207C7.58727 44.6764 6.25025 43.8847 5.32324 42.702C4.39622 41.5194 3.94672 40.032 4.0636 38.5339C4.18048 37.0358 4.85524 35.636 5.95446 34.6115C7.05368 33.5869 8.49732 33.0121 9.99994 33.0007H10.0599C11.2833 33.0516 12.4927 33.2807 13.6499 33.6807" stroke="#27272D" stroke-width="2" stroke-linecap="round" stroke-linejoin="round"/>
  <path d="M14.0001 29.0007C13.7493 30.5483 13.6189 32.113 13.6101 33.6807" stroke="#27272D" stroke-width="2" stroke-linecap="round" stroke-linejoin="round"/>
  <path d="M50.35 33.6807C50.3544 32.114 50.2374 30.5493 50 29.0007" stroke="#27272D" stroke-width="2" stroke-linecap="round" stroke-linejoin="round"/>
  <path d="M56 25.0007H59V29.0007H53.66H49.96H14.04H10.34H5V25.0007H8" stroke="#27272D" stroke-width="2" stroke-linecap="round" stroke-linejoin="round"/>
  <path d="M56 25.0007H8C8 14.0007 16.3 4.07068 26 1.73068C29.9407 0.756441 34.0593 0.756441 38 1.73068C47.7 4.07068 56 14.0007 56 25.0007Z" stroke="#27272D" stroke-width="2" stroke-linecap="round" stroke-linejoin="round"/>
  <path d="M26.07 50.3407C25.8868 51.3301 26.0982 52.3518 26.6589 53.1872C27.2196 54.0227 28.085 54.6054 29.07 54.8107C30.5017 55.1082 31.9826 55.0735 33.3989 54.7095C34.8151 54.3454 36.1291 53.6617 37.24 52.7107C37.6215 52.3669 37.8694 51.8995 37.94 51.3907C34.0481 50.647 30.1081 50.1825 26.15 50.0007C26.12 50.1107 26.09 50.2207 26.07 50.3407Z" fill="#27272D"/>
  <path d="M37.2199 49.3907C36.8054 49.0705 36.3712 48.7766 35.9199 48.5107C31.9199 46.1907 27.6899 46.5807 26.3699 49.3807C26.2797 49.5775 26.2061 49.7816 26.1499 49.9907C30.1283 50.1729 34.0885 50.6408 37.9999 51.3907C38.0607 51.018 38.0205 50.6359 37.8833 50.2841C37.7461 49.9323 37.517 49.6238 37.2199 49.3907Z" fill="white"/>
  <g opacity="0.24">
  <path opacity="0.24" d="M54.6699 40.6306C54.8679 40.3795 55.0264 40.0996 55.1399 39.8006C55.244 39.5372 55.2818 39.2521 55.2499 38.9706C55.2185 38.7274 55.1178 38.4983 54.9599 38.3106C54.7855 38.0948 54.5799 37.906 54.3499 37.7506C54.1351 37.5915 53.9923 37.3536 53.9529 37.0891C53.9135 36.8247 53.9808 36.5555 54.1399 36.3406C54.299 36.1258 54.537 35.983 54.8014 35.9436C55.0658 35.9042 55.3351 35.9715 55.5499 36.1306C55.6078 36.1718 55.6614 36.2187 55.7099 36.2706C56.0515 36.6291 56.3319 37.0413 56.5399 37.4906C56.7629 37.9713 56.8493 38.5041 56.7899 39.0306C56.7331 39.5202 56.5618 39.9895 56.2899 40.4006C56.0431 40.7814 55.7357 41.1192 55.3799 41.4006C55.2836 41.4729 55.1645 41.5079 55.0445 41.4994C54.9244 41.4908 54.8115 41.4393 54.7264 41.3542C54.6413 41.2691 54.5897 41.1561 54.5812 41.0361C54.5726 40.916 54.6077 40.7969 54.6799 40.7006L54.6699 40.6306Z" fill="#27272D"/>
  </g>
  <g opacity="0.24">
  <path opacity="0.24" d="M9.66005 37.7506C9.43668 37.9074 9.24071 38.1 9.08005 38.3206C8.91929 38.5302 8.80662 38.7726 8.75005 39.0306C8.69457 39.2918 8.71896 39.5635 8.82005 39.8106C8.93855 40.1075 9.10773 40.3816 9.32005 40.6206C9.40269 40.7157 9.44641 40.8384 9.44246 40.9643C9.43851 41.0902 9.38719 41.21 9.29876 41.2997C9.21032 41.3894 9.09129 41.4424 8.96546 41.4481C8.83963 41.4539 8.71628 41.4119 8.62005 41.3306C8.25049 41.055 7.93231 40.7165 7.68005 40.3306C7.42725 39.9311 7.28253 39.4728 7.26005 39.0006C7.24053 38.4925 7.33625 37.9865 7.54005 37.5206C7.73297 37.0611 8.00359 36.6383 8.34005 36.2706L8.39005 36.2106C8.57172 36.0117 8.82498 35.8931 9.09409 35.8809C9.36321 35.8687 9.62614 35.9639 9.82505 36.1456C10.024 36.3273 10.1426 36.5805 10.1548 36.8497C10.1669 37.1188 10.0717 37.3817 9.89005 37.5806C9.82193 37.648 9.74447 37.7053 9.66005 37.7506Z" fill="#27272D"/>
  </g>
  <path d="M23 38.0007C24.1046 38.0007 25 36.6576 25 35.0007C25 33.3439 24.1046 32.0007 23 32.0007C21.8954 32.0007 21 33.3439 21 35.0007C21 36.6576 21.8954 38.0007 23 38.0007Z" fill="#27272D"/>
  <path d="M41 38.0007C42.1046 38.0007 43 36.6576 43 35.0007C43 33.3439 42.1046 32.0007 41 32.0007C39.8954 32.0007 39 33.3439 39 35.0007C39 36.6576 39.8954 38.0007 41 38.0007Z" fill="#27272D"/>
  <path d="M37.26 52.7207C36.1492 53.6716 34.8351 54.3554 33.4189 54.7194C32.0026 55.0835 30.5217 55.1181 29.09 54.8207C28.105 54.6154 27.2396 54.0326 26.6789 53.1972C26.1182 52.3617 25.9068 51.34 26.09 50.3507C26.1491 50.0052 26.2533 49.669 26.4 49.3507C27.71 46.5507 31.99 46.1507 35.95 48.4807C36.4047 48.7462 36.8423 49.0401 37.26 49.3607C37.5043 49.5672 37.7006 49.8245 37.8352 50.1146C37.9698 50.4048 38.0396 50.7208 38.0396 51.0407C38.0396 51.3605 37.9698 51.6766 37.8352 51.9667C37.7006 52.2569 37.5043 52.5142 37.26 52.7207V52.7207Z" stroke="#27272D" stroke-width="2" stroke-linecap="round" stroke-linejoin="round"/>
</svg>
