<svg width="62" height="72" viewBox="0 0 62 72" fill="none" xmlns="http://www.w3.org/2000/svg">
  <path d="M37 60.88C37.0049 60.9198 37.0049 60.9602 37 61C37 62.66 35.21 64 33 64C30.79 64 29 62.66 29 61C29 59.34 30.79 58 33 58C35.21 58 36.91 59.28 37 60.88Z" fill="#403E4C"/>
  <path d="M9 43V50C9 50.5304 8.78929 51.0391 8.41422 51.4142C8.03914 51.7893 7.53043 52 7 52H5C3.93913 52 2.92172 51.5786 2.17157 50.8284C1.42142 50.0783 1 49.0609 1 48V44C1 42.9391 1.42142 41.9217 2.17157 41.1716C2.92172 40.4214 3.93913 40 5 40H7.2C7.69504 40.0497 8.15377 40.2822 8.48661 40.652C8.81945 41.0219 9.00249 41.5025 9 42V43Z" fill="#403E4C"/>
  <path d="M61 44V48C61 49.0609 60.5786 50.0783 59.8285 50.8284C59.0783 51.5786 58.0609 52 57 52H55C54.4696 52 53.9609 51.7893 53.5858 51.4142C53.2107 51.0391 53 50.5304 53 50V42C52.9975 41.5025 53.1806 41.0219 53.5134 40.652C53.8463 40.2822 54.305 40.0497 54.8 40H57C58.0609 40 59.0783 40.4214 59.8285 41.1716C60.5786 41.9217 61 42.9391 61 44Z" fill="#403E4C"/>
  <path d="M37.0001 60.88C36.9201 59.28 35.1701 58 33.0001 58C30.8301 58 29.0001 59.34 29.0001 61C29.0001 62.66 30.7901 64 33.0001 64C35.2101 64 37.0001 62.66 37.0001 61C37.005 60.9602 37.005 60.9198 37.0001 60.88ZM51.9301 53.79C51.1301 58.025 49.1984 61.9643 46.3401 65.19C42.9101 68.81 38.0001 71 31.0001 71C24.0001 71 19.0901 68.81 15.6701 65.19C12.4801 61.82 10.6701 57.19 9.67008 51.96C9.19354 48.9977 8.9694 46.0002 9.00009 43C9.00009 41.9867 9.02008 40.9867 9.06008 40C10.2937 40.0545 11.5129 40.2869 12.6801 40.69C13.0301 32.35 15.6801 29 15.6801 29C25.6801 33 30.6801 27 30.6801 27C23.6801 27 19.6801 21 30.6801 21C46.3601 21 48.9701 33.08 49.0401 40.77C50.2842 40.3209 51.5888 40.0613 52.9101 40H54.7701C54.275 40.0497 53.8163 40.2822 53.4835 40.652C53.1506 41.0219 52.9676 41.5025 52.9701 42V50C52.9723 50.5296 53.1845 51.0367 53.5601 51.41L53.0001 52C52.6928 52.6269 52.3315 53.2259 51.9201 53.79H51.9301Z" fill="#F9E7D4"/>
  <path d="M52.2199 52.42C52.1599 52.76 52.0999 53.1 52.0299 53.42C51.2553 57.8219 49.2832 61.9253 46.3299 65.28C42.9099 68.91 37.9999 71.1 30.9999 71.1C30.1199 71.1 29.2799 71.1 28.4599 71C26.3075 70.8403 24.1892 70.3721 22.1699 69.61C26.0532 68.3599 30.0026 67.3249 33.9999 66.51C41.7399 64.94 46.8099 61.86 49.8799 54.34C50.0691 53.844 50.3845 53.406 50.7949 53.0693C51.2053 52.7325 51.6965 52.5088 52.2199 52.42Z" fill="#EACDB2"/>
  <path d="M58.82 40.44C58.2567 40.1514 57.6329 40.0006 57 40H52.94C51.6187 40.0613 50.3141 40.3209 49.07 40.77C49 33.08 46.39 21 30.71 21C19.71 21 23.71 27 30.71 27C30.71 27 25.71 33 15.71 29C15.71 29 13.03 32.35 12.71 40.69C11.5333 40.284 10.3037 40.0516 9.06001 40C9.02001 40.9867 9.00002 41.9867 9.00002 43V42C9.00251 41.5025 8.81946 41.0219 8.48663 40.652C8.15379 40.2822 7.69506 40.0497 7.20001 40H5.00002C4.33668 40 3.68375 40.1649 3.10001 40.48C1.50204e-05 30.67 1.00002 15.69 13 8C11.5162 6.01982 9.39856 4.60804 7.00002 4C7.00002 4 23.86 -3.1 41.69 5.28C42.79 5.79 43.9 6.36 45 7C44.8863 4.8563 44.1952 2.78321 43 1C49.58 1 66.78 16.92 58.82 40.44Z" fill="#E89C42"/>
  <path d="M41.69 5.27995C41.195 5.83148 40.5692 6.24968 39.8702 6.49607C39.1712 6.74245 38.4215 6.80913 37.69 6.68995C31.84 5.83995 25.69 4.99995 19.69 5.49995C19.8571 6.32841 19.7654 7.18821 19.4273 7.96278C19.0892 8.73734 18.5211 9.3892 17.8 9.82996C6.64002 15.76 5.38002 28.51 6.61002 40H5.00002C4.33668 39.9999 3.68375 40.1649 3.10001 40.48C1.50204e-05 30.67 1.00002 15.69 13 7.99995C11.5162 6.01978 9.39856 4.608 7.00002 3.99995C7.00002 3.99995 23.86 -3.10005 41.69 5.27995Z" fill="#F2B26D"/>
  <path d="M9 40H9.06C10.2936 40.0545 11.5129 40.2869 12.68 40.69" stroke="#27272D" stroke-width="2" stroke-linecap="round" stroke-linejoin="round"/>
  <path d="M49.0701 40.77C50.3142 40.3209 51.6188 40.0613 52.9401 40H53.0001" stroke="#27272D" stroke-width="2" stroke-linecap="round" stroke-linejoin="round"/>
  <path d="M9.05991 40C9.01991 40.9867 8.99992 41.9867 8.99992 43C8.98018 46.0147 9.2177 49.0257 9.70991 52C10.6299 57.24 12.4799 61.86 15.7099 65.23C19.0899 68.81 23.9999 71 30.9999 71C37.9999 71 42.9099 68.81 46.3299 65.19C49.1883 61.9643 51.1199 58.025 51.9199 53.79" stroke="#27272D" stroke-width="2" stroke-linecap="round" stroke-linejoin="round"/>
  <path d="M7.99989 40C5.58989 24.79 12.4099 13 30.9999 13C49.5899 13 56.4399 24.79 53.9999 40" stroke="#27272D" stroke-width="2" stroke-linecap="round" stroke-linejoin="round"/>
  <path d="M9 43V50C9 50.5304 8.78929 51.0391 8.41422 51.4142C8.03914 51.7893 7.53043 52 7 52H5C3.93913 52 2.92172 51.5786 2.17157 50.8284C1.42142 50.0783 1 49.0609 1 48V44C1 42.9391 1.42142 41.9217 2.17157 41.1716C2.92172 40.4214 3.93913 40 5 40H7.2C7.69504 40.0497 8.15377 40.2822 8.48661 40.652C8.81945 41.0219 9.00249 41.5025 9 42V43Z" stroke="#27272D" stroke-width="2" stroke-linecap="round" stroke-linejoin="round"/>
  <path d="M53.59 51.41C53.9634 51.7856 54.4704 51.9978 55 52H57C58.0609 52 59.0783 51.5786 59.8285 50.8284C60.5786 50.0783 61 49.0609 61 48V44C61 42.9391 60.5786 41.9217 59.8285 41.1716C59.0783 40.4214 58.0609 40 57 40H54.8C54.305 40.0497 53.8463 40.2822 53.5134 40.652C53.1806 41.0219 52.9975 41.5025 53 42V50C53.0023 50.5296 53.2144 51.0367 53.59 51.41Z" stroke="#27272D" stroke-width="2" stroke-linecap="round" stroke-linejoin="round"/>
  <path d="M37 60.88C43.66 60.35 49 57.99 51.93 53.79C52.3379 53.2255 52.696 52.6266 53 52" stroke="#27272D" stroke-width="2" stroke-linecap="round" stroke-linejoin="round"/>
  <path d="M37 61C37 62.66 35.21 64 33 64C30.79 64 29 62.66 29 61C29 59.34 30.79 58 33 58C35.21 58 36.91 59.28 37 60.88C37.0049 60.9198 37.0049 60.9602 37 61Z" stroke="#27272D" stroke-width="2" stroke-linecap="round" stroke-linejoin="round"/>
  <path d="M12.6799 40.69C13.0299 32.35 15.6799 29 15.6799 29C25.6799 33 30.6799 27 30.6799 27C23.6799 27 19.6799 21 30.6799 21C46.3599 21 48.9699 33.08 49.0399 40.77" stroke="#27272D" stroke-width="2" stroke-linecap="round" stroke-linejoin="round"/>
  <path d="M3.10001 40.48C1.50204e-05 30.67 1.00002 15.69 13 8C11.5162 6.01982 9.39856 4.60804 7.00002 4C7.00002 4 26 -4 45 7C44.8863 4.8563 44.1952 2.78321 43 1C49.58 1 66.78 16.92 58.82 40.44" stroke="#27272D" stroke-width="2" stroke-linecap="round" stroke-linejoin="round"/>
  <g opacity="0.24">
  <path opacity="0.24" d="M17.5801 36.73C17.9134 36.1892 18.34 35.7118 18.8401 35.32C19.3425 34.9174 19.9156 34.6122 20.5301 34.42C21.1565 34.221 21.8137 34.1364 22.4701 34.17C23.1152 34.2026 23.7537 34.3168 24.3701 34.51C24.4968 34.5462 24.6152 34.6069 24.7184 34.6887C24.8217 34.7706 24.9078 34.872 24.9719 34.9871C25.036 35.1023 25.0767 35.2289 25.0919 35.3598C25.107 35.4907 25.0962 35.6233 25.0601 35.75C25.024 35.8768 24.9632 35.9951 24.8814 36.0984C24.7995 36.2017 24.6981 36.2878 24.583 36.3519C24.4678 36.4159 24.3412 36.4567 24.2103 36.4718C24.0794 36.487 23.9468 36.4762 23.8201 36.44H23.6901C23.2607 36.2319 22.8073 36.0774 22.3401 35.98C21.8806 35.8959 21.4096 35.8959 20.9501 35.98C20.4736 36.0525 20.0154 36.2154 19.6001 36.46C19.1747 36.7015 18.7927 37.0124 18.4701 37.38C18.3866 37.4706 18.2726 37.5272 18.15 37.5389C18.0274 37.5506 17.9048 37.5167 17.8057 37.4435C17.7066 37.3704 17.6379 37.2633 17.6129 37.1427C17.5879 37.0221 17.6082 36.8966 17.6701 36.79L17.5801 36.73Z" fill="#27272D"/>
  </g>
  <g opacity="0.24">
  <path opacity="0.24" d="M43.5799 35.27C43.2573 34.9024 42.8753 34.5915 42.4499 34.35C42.0346 34.1054 41.5764 33.9425 41.0999 33.87C40.6404 33.7859 40.1694 33.7859 39.7099 33.87C39.2427 33.9673 38.7893 34.1218 38.3599 34.33C38.2398 34.3839 38.1102 34.4135 37.9786 34.4173C37.8469 34.421 37.7159 34.3988 37.5928 34.3519C37.4698 34.3051 37.3572 34.2344 37.2615 34.144C37.1658 34.0536 37.0888 33.9452 37.0349 33.825C36.9811 33.7049 36.9514 33.5753 36.9477 33.4437C36.9439 33.3121 36.9661 33.181 37.013 33.0579C37.0599 32.9349 37.1306 32.8223 37.221 32.7266C37.3114 32.6309 37.4198 32.5539 37.5399 32.5H37.6699C38.2863 32.3068 38.9248 32.1926 39.5699 32.16C40.2264 32.1263 40.8835 32.211 41.5099 32.41C42.1244 32.6022 42.6975 32.9074 43.1999 33.31C43.7 33.7018 44.1266 34.1792 44.4599 34.72C44.5218 34.8265 44.5421 34.9521 44.5171 35.0727C44.4921 35.1933 44.4234 35.3004 44.3243 35.3735C44.2252 35.4466 44.1026 35.4806 43.98 35.4689C43.8574 35.4571 43.7434 35.4006 43.6599 35.31L43.5799 35.27Z" fill="#27272D"/>
  </g>
  <path d="M40 45C41.6569 45 43 43.6569 43 42C43 40.3431 41.6569 39 40 39C38.3431 39 37 40.3431 37 42C37 43.6569 38.3431 45 40 45Z" fill="#27272D"/>
  <path d="M22 45C23.6569 45 25 43.6569 25 42C25 40.3431 23.6569 39 22 39C20.3431 39 19 40.3431 19 42C19 43.6569 20.3431 45 22 45Z" fill="#27272D"/>
</svg>
