<svg width="128" height="128" viewBox="0 0 512 512" fill="none" xmlns="http://www.w3.org/2000/svg">
  <path d="M384.314 30.8432L382.507 29.7137C371.663 23.2755 358.335 20 346.137 20C333.938 20 321.853 23.2755 310.896 29.7137L127.24 142.663C105.441 155.54 92 179.485 92 205.35V416.453C92 442.319 105.441 466.264 127.24 479.14L131.306 481.286C142.15 487.725 154.348 491 166.547 491C178.745 491 190.831 487.725 201.787 481.286L384.314 372.968C406.113 359.978 419.554 336.146 419.554 310.281V93.5302C419.554 67.6647 406.113 43.7194 384.314 30.8432ZM137.745 470.217L133.678 468.071C115.832 457.454 104.763 437.688 104.763 416.453V205.35C104.763 184.116 115.832 164.35 133.678 153.732L317.335 40.8957C326.145 35.7 336.084 32.9892 346.137 32.9892C356.189 32.9892 367.371 35.7 376.068 40.8957L377.876 41.9122C392.898 50.8352 403.063 66.3093 405.887 83.7036C399.788 70.8273 386.234 67.2129 370.308 76.5878L197.608 183.325C176.035 195.863 160.222 210.094 160.222 235.96V448.757C160.222 464.344 166.434 474.396 176.147 477.333C172.985 477.898 169.822 478.237 166.547 478.237C156.494 478.124 146.442 475.413 137.745 470.217Z" fill="#121212"/>
  <path d="M137.745 470.217L133.678 468.071C115.832 457.454 104.763 437.688 104.763 416.453V205.35C104.763 184.116 115.832 164.35 133.678 153.732L317.335 40.8957C326.145 35.7 336.084 32.9892 346.137 32.9892C356.189 32.9892 367.371 35.7 376.068 40.8957L377.876 41.9122C392.898 50.8352 403.063 66.3093 405.887 83.7036C399.788 70.8273 386.234 67.2129 370.308 76.5878L197.608 183.325C176.035 195.863 160.222 210.094 160.222 235.96V448.757C160.222 464.344 166.434 474.396 176.147 477.333C172.985 477.898 169.822 478.237 166.547 478.237C156.494 478.124 146.442 475.413 137.745 470.217Z" fill="#F9F9F9"/>
  <path d="M245.758 354.067C246.001 354.581 246.12 355.234 246.113 356.025C246.107 356.817 245.976 357.622 245.722 358.441C245.396 359.387 245.018 360.262 244.587 361.065L228.446 389.611C228.016 390.372 227.48 391.115 226.837 391.841C226.231 392.502 225.573 393.051 224.862 393.486C224.187 393.9 223.549 394.146 222.947 394.224C222.381 394.281 221.869 394.18 221.412 393.922C220.92 393.601 220.552 393.184 220.309 392.67C220.066 392.156 219.947 391.503 219.954 390.711C219.961 389.878 220.091 389.052 220.345 388.233C220.636 387.308 221.014 386.434 221.48 385.609L228.959 372.32L193.148 394.265C192.473 394.679 191.835 394.925 191.234 395.003C190.668 395.06 190.138 394.97 189.645 394.733C189.188 394.475 188.82 394.057 188.542 393.482C188.334 392.946 188.234 392.282 188.24 391.49C188.247 390.698 188.359 389.904 188.578 389.107C188.868 388.183 189.247 387.308 189.713 386.483C190.215 385.637 190.751 384.894 191.322 384.254C191.928 383.55 192.569 382.992 193.244 382.578L229.055 360.633L221.719 356.485C221.262 356.227 220.894 355.809 220.616 355.234C220.373 354.678 220.255 354.004 220.261 353.212C220.268 352.421 220.398 351.615 220.652 350.796C220.907 349.936 221.285 349.061 221.787 348.173C222.254 347.348 222.772 346.616 223.343 345.976C223.95 345.273 224.591 344.714 225.266 344.3C225.976 343.865 226.632 343.608 227.234 343.53C227.87 343.513 228.399 343.624 228.822 343.862L244.655 352.815C245.147 353.094 245.515 353.511 245.758 354.067Z" fill="#3DF950"/>
  <path d="M381.071 328.107L380.969 340.606L315.262 380.871L315.365 368.372L381.071 328.107Z" fill="white"/>
</svg>
